<?xml version="1.0" encoding="UTF-8" standalone="no"?>
<!-- Created with Inkscape (http://www.inkscape.org/) -->

<svg
   version="1.1"
   id="svg1"
   width="1011"
   height="931"
   viewBox="0 0 1011 931"
   xmlns="http://www.w3.org/2000/svg"
   xmlns:svg="http://www.w3.org/2000/svg">
  <defs
     id="defs1" />
  <g
     id="g1">
    <path
       style="fill:#2a7fff"
       d="m 3.1423304,929.45645 c 0,-0.68576 7.2279996,-4.70412 7.6687296,-4.26338 0.22917,0.22916 -1.2032696,1.37245 -3.1831896,2.54063 -3.61378,2.13219 -4.48554,2.467 -4.48554,1.72275 z m 9.4999996,-2.07269 4,-2.46367 120.27305,-0.0312 120.27306,-0.0312 -1.63807,2.5 -1.63806,2.5 -122.63499,-0.005 -122.6349896,-0.005 z m 246.74997,0.22391 1.4939,-2.25 121.12807,-0.254 121.12806,-0.254 v 2.504 2.504 H 380.52036 257.89839 Z m 246.75003,-0.254 v -2.504 l 121.12806,0.254 121.12807,0.254 1.4939,2.25 1.49391,2.25 H 628.7643 506.14233 Z m 247.59198,0.004 -1.63809,-2.5 120.27309,0.0312 120.273,0.0312 4,2.46367 3.99999,2.46366 -122.63499,0.005 -122.635,0.005 z m 247.61089,0.29759 c -1.81339,-1.12019 -3.10759,-2.2262 -2.87599,-2.45779 0.4437,-0.44372 7.67309,3.56897 7.67309,4.25898 0,0.78704 -1.5483,0.20569 -4.7971,-1.80119 z m 9.2929,-463.29759 c 0,-256.3 0.1144,-361.29928 0.2542,-233.33174 0.1398,127.96754 0.1398,337.66754 0,466 -0.1398,128.33246 -0.2542,23.63174 -0.2542,-232.66826 z M 37.14233,908.76699 c 10.175,-6.09886 19.9625,-11.98514 21.75,-13.08063 1.7875,-1.0955 3.25,-1.7561 3.25,-1.46802 0,0.67516 -41.53265,25.63963 -42.65384,25.6384 -0.46539,-5.1e-4 7.47884,-4.9909 17.65384,-11.08975 z m -10.45,10.23384 c 0.5225,-0.47126 20.6942,-12.85664 44.82601,-27.52307 l 43.87601,-26.66624 16.74988,0.27308 16.74987,0.27307 -40.62588,27.26846 -40.62589,27.26845 -20.95,-0.0185 c -11.70704,-0.0103 -20.53087,-0.39649 -20,-0.8753 z m 48.45,-1.12017 c 1.375,-1.0629 19.6,-13.43956 40.5,-27.50369 l 38,-25.57115 17.33216,0.27592 17.33216,0.27593 -36.08711,27.25 -36.08712,27.25 -21.74504,-0.0222 c -21.68977,-0.0222 -21.73869,-0.0272 -19.24505,-1.95481 z m 46.55,1.04592 c 0.5225,-0.5121 16.68849,-12.8871 35.92443,-27.5 l 34.97443,-26.56891 h 17.50284 17.50285 l -2.47728,2.44314 c -1.3625,1.34373 -15.52727,13.70465 -31.47727,27.46872 l -29,25.02558 -21.95,0.0313 c -13.56342,0.0193 -21.58703,-0.32447 -21,-0.89981 z m 48.48571,-0.49936 c 0.80536,-0.78675 14.96429,-13.15615 31.46429,-27.48757 l 30,-26.05711 17.99318,-0.0124 17.99318,-0.0125 -27.48636,27.5 -27.48636,27.5 h -21.97111 c -19.07086,0 -21.77781,-0.18882 -20.50682,-1.43045 z m 73.58124,-26.05016 26.81426,-27.51939 h 17.85249 17.85249 l -2.03999,2.75 c -1.12199,1.5125 -11.19394,13.775 -22.38211,27.25 l -20.34212,24.5 -22.28464,0.26939 -22.28463,0.2694 z m 24.33728,24.73061 c 1.16657,-1.5125 3.20052,-4.325 4.51988,-6.25 1.31936,-1.925 10.19595,-12.95 19.72575,-24.5 l 17.32693,-21 17.7366,-0.27307 c 9.75514,-0.1502 17.73661,0.004 17.73661,0.34213 0,0.33836 -7.9875,12.71861 -17.75,27.51167 l -17.75,26.89646 -21.83341,0.0114 -21.8334,0.0114 z m 53.42508,-10 c 4.57161,-7.0125 12.64286,-19.3875 17.93612,-27.5 l 9.62411,-14.75 h 18.02786 18.02787 l -13.73918,27.5 -13.73918,27.5 h -22.22481 -22.22481 z m 41.10589,10.79662 c 0.34774,-1.09562 6.25497,-13.47932 13.12718,-27.51933 l 12.49492,-25.52729 h 17.94635 c 9.87049,0 17.93818,0.1125 17.92819,0.25 -0.01,0.1375 -3.96801,12.4 -8.7956,27.25 l -8.77744,27 -22.27792,0.26933 c -21.85318,0.26419 -22.26587,0.23135 -21.64568,-1.72271 z m 47.5148,1.27788 c 0,-0.39258 3.40141,-11.31369 7.55868,-24.26914 4.15727,-12.95545 8.01717,-25.01786 8.57755,-26.80536 l 1.01887,-3.25 h 17.92245 17.92245 l -0.0622,2.25 c -0.0342,1.2375 -1.96215,13.5 -4.28427,27.25 l -4.22202,25 -22.21574,0.26913 c -12.21869,0.14802 -22.21577,-0.0521 -22.21577,-0.44463 z m 48.28317,-2.0745 c 0.29324,-1.5125 2.23111,-13.8875 4.30638,-27.5 l 3.77322,-24.75 h 18.31862 18.31861 v 27.5 27.5 h -22.625 -22.625 z m 47.71683,-24.75 v -27.5 h 18 c 9.9,0 18,0.25825 18,0.57388 0,0.79336 7.89774,48.27887 8.59472,51.67612 l 0.56419,2.75 h -22.57945 -22.57946 z m 44.13795,2.75 c -2.38024,-13.6125 -4.56833,-25.99788 -4.86244,-27.52306 l -0.53473,-2.77306 18.27164,0.27306 18.27165,0.27306 8.83467,27 c 4.85907,14.85 8.84516,27.1125 8.85797,27.25 0.0128,0.1375 -9.99694,0.25 -22.24389,0.25 h -22.26718 z m 51.96502,22.5 c -0.46614,-1.2375 -4.71711,-13.6125 -9.4466,-27.5 l -8.59908,-25.25 h 17.96778 17.96778 l 13.50358,26.99286 c 7.42696,14.84607 13.50357,27.22107 13.50357,27.5 0,0.27893 -9.91114,0.50714 -22.02475,0.50714 -21.9227,0 -22.02868,-0.0104 -22.87228,-2.25 z m 35.4006,-24.74286 c -7.42696,-14.84607 -13.50357,-27.22107 -13.50357,-27.5 0,-0.27893 7.9875,-0.49847 17.75,-0.48786 l 17.75,0.0193 17.75,26.80034 c 9.7625,14.74015 17.75,27.10648 17.75,27.48069 0,0.37422 -9.89839,0.68039 -21.99643,0.68039 h -21.99642 z m 45.33304,2.24286 c -9.06685,-13.6125 -17.29101,-25.9875 -18.27591,-27.5 l -1.79072,-2.75 17.86501,0.0119 17.86501,0.0119 17,20.55791 c 15.44131,18.67301 18.91666,22.98237 25.53941,31.66834 l 2.09678,2.75 h -21.9072 -21.9072 z m 57.80138,16 c -4.07424,-4.8125 -14.39259,-17.075 -22.92966,-27.25 l -15.52193,-18.5 17.63056,-0.27399 17.63056,-0.27398 27.52396,27.52398 27.524,27.52399 h -22.2249 -22.22487 z m 28.36199,-18.75 -27.48634,-27.5 h 17.60054 17.6005 l 30.3926,26.10122 c 16.716,14.35567 31.0517,26.73067 31.857,27.5 1.2566,1.20036 -1.6523,1.39878 -20.5068,1.39878 h -21.9711 z m 43.6292,0.23871 -31.8708,-27.23871 17.4777,-0.27249 17.4776,-0.27249 35.3932,26.60215 c 19.4662,14.63118 35.8206,27.0163 36.3431,27.52249 0.5795,0.56134 -7.6119,0.91593 -21,0.90905 l -21.95,-0.0113 z m 43.7483,-0.065 -36.1225,-27.17369 17.4249,-0.27329 17.4249,-0.27329 39.6976,26.65749 c 21.8337,14.66162 40.1251,27.0471 40.6476,27.52329 0.5378,0.49007 -8.5754,0.83268 -21,0.78949 l -21.95,-0.0763 z m 43.6225,-0.17371 -41.5,-27.46491 17.2961,-0.0175 17.2961,-0.0175 44.2039,26.66028 c 24.3122,14.66315 44.6314,27.03815 45.1539,27.5 0.5225,0.46185 -8.4775,0.83183 -20,0.82218 l -20.95,-0.0175 z m 57.5,8.91746 c -17.05,-10.21978 -31.45,-19.06654 -32,-19.65947 -0.55,-0.59293 0.6052,-0.12025 2.567,1.05042 1.9618,1.17066 16.8118,10.01511 33,19.65433 16.1882,9.63922 28.983,17.52816 28.433,17.53099 -0.55,0.003 -14.95,-8.35649 -32,-18.57627 z M 63.14233,893.42804 c 0,-0.275 0.9,-0.98167 2,-1.57037 1.1,-0.5887 2,-0.84537 2,-0.57037 0,0.275 -0.9,0.98167 -2,1.57037 -1.1,0.5887 -2,0.84537 -2,0.57037 z m 5,-3 c 0,-0.275 0.9,-0.98167 2,-1.57037 1.1,-0.5887 2,-0.84537 2,-0.57037 0,0.275 -0.9,0.98167 -2,1.57037 -1.1,0.5887 -2,0.84537 -2,0.57037 z m 5,-3 c 0,-0.275 0.9,-0.98167 2,-1.57037 1.1,-0.5887 2,-0.84537 2,-0.57037 0,0.275 -0.9,0.98167 -2,1.57037 -1.1,0.5887 -2,0.84537 -2,0.57037 z m 5,-3 c 0,-0.275 0.9,-0.98167 2,-1.57037 1.1,-0.5887 2,-0.84537 2,-0.57037 0,0.275 -0.9,0.98167 -2,1.57037 -1.1,0.5887 -2,0.84537 -2,0.57037 z m 5,-3 c 0,-0.275 0.9,-0.98167 2,-1.57037 1.1,-0.5887 2,-0.84537 2,-0.57037 0,0.275 -0.9,0.98167 -2,1.57037 -1.1,0.5887 -2,0.84537 -2,0.57037 z m 838.44118,-2.12554 c -1.8641,-1.49339 -1.8518,-1.51185 0.3088,-0.46481 1.2375,0.59969 2.25,1.29951 2.25,1.55516 0,0.76522 -0.5186,0.54424 -2.5588,-1.09035 z M 88.14233,878.42804 c 0,-0.275 0.9,-0.98167 2,-1.57037 1.1,-0.5887 2,-0.84537 2,-0.57037 0,0.275 -0.9,0.98167 -2,1.57037 -1.1,0.5887 -2,0.84537 -2,0.57037 z m 828.44118,-2.12554 c -1.8641,-1.49339 -1.8518,-1.51185 0.3088,-0.46481 1.2375,0.59969 2.25,1.29951 2.25,1.55516 0,0.76522 -0.5186,0.54424 -2.5588,-1.09035 z M 93.14233,875.42804 c 0,-0.275 0.9,-0.98167 2,-1.57037 1.1,-0.5887 2,-0.84537 2,-0.57037 0,0.275 -0.9,0.98167 -2,1.57037 -1.1,0.5887 -2,0.84537 -2,0.57037 z m 818.44118,-2.12554 c -1.8641,-1.49339 -1.8518,-1.51185 0.3088,-0.46481 1.2375,0.59969 2.25,1.29951 2.25,1.55516 0,0.76522 -0.5186,0.54424 -2.5588,-1.09035 z m -5,-3 c -1.8641,-1.49339 -1.8518,-1.51185 0.3088,-0.46481 1.2375,0.59969 2.25,1.29951 2.25,1.55516 0,0.76522 -0.5186,0.54424 -2.5588,-1.09035 z m -805.44118,0.12554 c 0,-0.275 0.9,-0.98167 2,-1.57037 1.1,-0.5887 2,-0.84537 2,-0.57037 0,0.275 -0.9,0.98167 -2,1.57037 -1.1,0.5887 -2,0.84537 -2,0.57037 z m 5,-3 c 0,-0.275 0.9,-0.98167 2,-1.57037 1.1,-0.5887 2,-0.84537 2,-0.57037 0,0.275 -0.9,0.98167 -2,1.57037 -1.1,0.5887 -2,0.84537 -2,0.57037 z m 5,-3 c 0,-0.275 0.9,-0.98167 2,-1.57037 1.1,-0.5887 2,-0.84537 2,-0.57037 0,0.275 -0.9,0.98167 -2,1.57037 -1.1,0.5887 -2,0.84537 -2,0.57037 z m 5,-3 c 0,-0.275 0.9,-0.98167 2,-1.57037 1.1,-0.5887 2,-0.84537 2,-0.57037 0,0.275 -0.9,0.98167 -2,1.57037 -1.1,0.5887 -2,0.84537 -2,0.57037 z m 5.08333,0.0221 c 0.22917,-0.22417 14.14167,-8.77109 30.91667,-18.99317 l 30.5,-18.5856 13.91922,-0.007 13.91922,-0.007 -11.91922,8.14594 c -6.55557,4.48027 -19.22188,13.03027 -28.14735,19 l -16.22814,10.85436 h -16.68853 c -9.17869,0 -16.50103,-0.1834 -16.27187,-0.40755 z m 37.91667,-0.0293 c 0,-0.24026 12.38117,-8.80258 27.5137,-19.02737 l 27.5137,-18.59054 14.18528,0.27738 14.18527,0.27737 -24.8176,18.75 -24.8176,18.75 h -16.88137 c -9.28476,0 -16.88138,-0.19658 -16.88138,-0.43684 z m 38.11711,-0.0136 c 0.24775,-0.24775 11.41575,-8.79775 24.81779,-19 l 24.36735,-18.54956 h 14.54887 c 9.02298,0 14.18805,0.35466 13.59888,0.93378 -0.5225,0.51358 -10.39542,9.06358 -21.93983,19 l -20.98983,18.06622 h -17.42684 c -9.58476,0 -17.22413,-0.2027 -16.97639,-0.45044 z m 40.90562,-1.99613 c 1.3625,-1.34561 11.02727,-9.88509 21.47727,-18.97662 l 19,-16.53006 14.25,-0.0234 c 7.8375,-0.0129 14.25,0.28648 14.25,0.6652 0,0.37872 -8.19654,8.92872 -18.21454,19 l -18.21453,18.31145 h -17.51274 -17.51274 z m 54.51255,-16.58222 19.02879,-19.02878 14.17509,0.27878 14.17509,0.27879 -15.51002,18.75 -15.51001,18.75 h -17.69386 -17.69387 z m 21.16503,17.70779 c 0.43983,-0.72655 7.31193,-9.27655 15.27134,-19 l 14.47164,-17.679 h 14.78123 14.78123 l -12.66198,19 -12.66198,19 h -17.39058 c -14.14788,0 -17.24148,-0.24632 -16.5909,-1.321 z m 43.31327,-7.929 c 3.30905,-5.0875 8.82219,-13.63309 12.25143,-18.9902 l 6.23499,-9.74021 14.75,-0.01 c 8.1125,-0.005 14.75,0.21206 14.75,0.48323 0,0.27116 -4.15685,8.82116 -9.23745,19 l -9.23745,18.50718 h -17.76398 -17.76398 z m 32.98642,8.92292 c 0,-0.20528 4.04134,-8.76567 8.98076,-19.02308 l 8.98075,-18.64984 h 14.94245 14.94244 l -6.25895,18.75 -6.25895,18.75 -17.66425,0.27307 c -9.71534,0.1502 -17.66425,0.10512 -17.66425,-0.10015 z m 44.31043,-18.67292 6.0675,-19 h 14.81104 c 8.14606,0 14.81103,0.20534 14.81103,0.45631 0,0.80554 -5.0043,31.94215 -5.59207,34.79369 l -0.56684,2.75 h -17.79908 -17.79907 z m 32.68957,18.58881 c 0,-0.94568 5.0548,-33.27712 5.52498,-35.33881 0.50409,-2.21037 0.77698,-2.25 15.49407,-2.25 h 14.98095 v 19 19 h -18 c -9.9,0 -18,-0.18504 -18,-0.41119 z m 38.64974,-8.74243 c -0.35736,-5.0345 -0.64974,-13.5845 -0.64974,-19 v -9.84638 h 14.92054 14.92055 l 0.56052,2.75 c 0.97602,4.78849 5.59839,32.97325 5.59839,34.13603 0,0.77582 -5.26666,1.11397 -17.35026,1.11397 h -17.35025 z m 38.35026,8.37205 c 0,-0.42986 -1.34472,-8.41736 -2.98826,-17.75 -1.64354,-9.33264 -2.99354,-17.53093 -3,-18.21843 -0.009,-0.94411 3.60294,-1.25 14.75965,-1.25 h 14.7714 l 5.87033,17.75 c 3.22869,9.7625 6.0797,18.3125 6.3356,19 0.36145,0.97111 -3.57467,1.25 -17.64173,1.25 -9.95885,0 -18.10699,-0.35171 -18.10699,-0.78157 z m 38.46848,-0.46843 c -0.25781,-0.6875 -3.13576,-9.2375 -6.39544,-19 l -5.92669,-17.75 h 14.73942 14.73942 l 9.18741,18.5529 c 5.05307,10.20409 9.1874,18.75409 9.1874,19 0,0.2459 -7.88912,0.4471 -17.53138,0.4471 -13.10845,0 -17.64965,-0.31536 -18.00014,-1.25 z m 29.76897,-17.25697 c -5.0806,-10.17884 -9.23745,-18.72884 -9.23745,-19 0,-0.27117 6.51895,-0.49303 14.48655,-0.49303 h 14.48655 l 11.82921,17.75 c 6.50606,9.7625 12.16368,18.3125 12.57247,19 0.58333,0.98104 -3.09132,1.25 -17.07831,1.25 h -17.82157 z m 35.41878,-0.49303 -12.66198,-19 14.75287,0.0136 14.75288,0.0136 15,18.1636 c 8.25,9.98998 15.15,18.53386 15.33333,18.9864 0.18334,0.45254 -7.50757,0.8228 -17.09089,0.8228 h -17.42423 z m 35.96522,0.25 -15.72188,-18.75 14.26818,-0.27879 14.26818,-0.27878 19.02879,19.02878 19.02879,19.02879 h -17.57509 -17.57509 z m 34.93138,-0.24292 -19.05283,-18.99291 14.86135,-0.007 14.86136,-0.007 21.13864,18.16479 c 11.62623,9.99064 21.56613,18.54064 22.08863,19 0.5225,0.4592 -7.1037,0.83504 -16.9471,0.83504 H 737.748 Z m 36.12975,0.2122 -21.81735,-18.71928 14.18392,-0.27817 14.18393,-0.27816 24.8835,18.64364 c 13.6859,10.25401 24.8834,18.81669 24.8834,19.02817 0,0.21149 -7.7625,0.3707 -17.25,0.3538 l -17.25,-0.0307 z m 35.7286,0.0307 -24.9112,-18.75 13.7629,-0.2783 c 8.1043,-0.16388 14.5547,0.14551 15.6889,0.75251 1.0594,0.56695 13.9575,9.12969 28.6624,19.02831 l 26.7363,17.99748 h -17.5141 -17.5141 z m 35.2021,-0.0673 -27.8867,-18.68266 13.7319,-0.27884 13.7319,-0.27884 30.1548,18.18056 c 16.5852,9.99931 30.5823,18.56229 31.1048,19.02884 0.5242,0.46807 -6.6471,0.8181 -16,0.78094 l -16.95,-0.0674 z m -704.61328,15.38767 c 0,-0.275 0.9,-0.98167 2,-1.57037 1.1,-0.5887 2,-0.84537 2,-0.57037 0,0.275 -0.9,0.98167 -2,1.57037 -1.1,0.5887 -2,0.84537 -2,0.57037 z m 5,-3 c 0,-0.275 0.9,-0.98167 2,-1.57037 1.1,-0.5887 2,-0.84537 2,-0.57037 0,0.275 -0.9,0.98167 -2,1.57037 -1.1,0.5887 -2,0.84537 -2,0.57037 z m 61.28635,-34.19006 c 0.34083,-0.34082 9.75333,-6.18695 20.91667,-12.99138 l 20.29698,-12.37169 12,-0.008 12,-0.008 -19.5,12.99876 -19.5,12.99806 -13.41667,9.7e-4 c -7.37916,5.3e-4 -13.1378,-0.27789 -12.79698,-0.61872 z m 30.71365,0.29398 c 0,-0.17915 8.43934,-6.04438 18.75408,-13.03387 l 18.75409,-12.70815 11.99591,0.28387 11.99592,0.28386 -16.90869,12.75 -16.9087,12.75 h -13.8413 c -7.61272,0 -13.84131,-0.14657 -13.84131,-0.32571 z m 33.03571,-1.06213 c 0.80536,-0.76331 8.37577,-6.61331 16.82314,-13 l 15.35884,-11.61216 h 11.89116 c 6.54013,0 11.89115,0.18792 11.89115,0.4176 0,0.22968 -6.54388,6.07968 -14.54195,13 l -14.54195,12.5824 h -14.17234 c -12.1253,0 -13.96083,-0.20046 -12.70805,-1.38784 z m 32.96429,-13.61216 c 0,-0.55 -0.64844,-1 -1.44098,-1 -0.79254,0 -1.7191,0.45 -2.05902,1 -0.33992,0.55 0.30852,1 1.44098,1 1.13246,0 2.05902,-0.45 2.05902,-1 z m -2,14.55844 c 0,-0.24285 6.48603,-6.09285 14.4134,-13 l 14.4134,-12.55844 h 12.32217 12.32217 l -12.97114,13 -12.97114,13 h -13.76443 c -7.57044,0 -13.76443,-0.1987 -13.76443,-0.44156 z m 32,-0.32345 c 0,-0.42075 5.53362,-6.28533 12.29693,-13.0324 l 12.29692,-12.26741 12.2404,0.28241 12.24039,0.28241 -10.5404,12.75 -10.54041,12.75 h -13.99691 c -7.69831,0 -13.99692,-0.34425 -13.99692,-0.76501 z m 32,0.21078 c 0,-0.30482 4.59121,-6.15482 10.20269,-13 l 10.2027,-12.44577 h 12.3955 12.39551 l -1.8482,2.84119 c -1.01651,1.56266 -4.77256,7.41266 -8.34678,13 l -6.49857,10.15881 h -14.25143 c -7.83828,0 -14.25142,-0.2494 -14.25142,-0.55423 z m 38.63343,-11.19577 c 4.16832,-6.4625 8.1241,-12.32701 8.79062,-13.03224 0.88671,-0.9382 4.46076,-1.20651 13.3207,-1 l 12.10885,0.28224 -6.08234,12.75 -6.08235,12.75 h -14.81711 -14.81712 z m 30.64505,-1.19006 6.22152,-12.94006 12.85699,-0.0599 c 9.88797,-0.0461 12.74885,0.22872 12.38871,1.19006 -0.25756,0.6875 -2.20357,6.5375 -4.32449,13 l -3.8562,11.74996 h -14.75403 -14.75402 z m 15.72152,-2.05994 c 0,-0.55 -0.45,-1 -1,-1 -0.55,0 -1,0.45 -1,1 0,0.55 0.45,1 1,1 0.55,0 1,-0.45 1,-1 z m 12.41956,7.75 c 1.2456,-3.9875 3.09294,-9.8375 4.1052,-13 l 1.84048,-5.75 h 12.88477 c 11.79878,0 12.84179,0.1475 12.37487,1.75 -0.28044,0.9625 -1.29799,6.8125 -2.26122,13 l -1.75132,11.25 h -14.72875 -14.72875 z m 30.12021,4.5 c 0.8464,-4.75244 3.452,-21.71495 3.45621,-22.5 0.002,-0.4125 5.85402,-0.75 13.00402,-0.75 h 13 v 13 13 h -14.975 -14.975 z m 31.46023,-10.27988 v -13.02987 l 12.72177,0.27987 12.72176,0.27988 2.11048,12.75 2.11048,12.75 h -14.83225 -14.83224 z m 32,12.1993 c 0,-0.45683 -0.89317,-5.74433 -1.98481,-11.75 -1.09165,-6.00568 -1.99165,-11.49536 -2,-12.1993 -0.0117,-0.9878 2.87465,-1.216 12.64812,-1 l 12.6633,0.27988 4.26289,12.75 4.26288,12.75 h -14.92619 c -8.2094,0 -14.92619,-0.37376 -14.92619,-0.83058 z m 28.08282,-11.42089 c -2.24555,-6.73831 -4.08282,-12.58831 -4.08282,-13 0,-0.41169 5.62178,-0.74853 12.49284,-0.74853 h 12.49285 l 6.51431,13 6.51431,13 h -14.92433 -14.92433 z m 13.91718,-2.74853 c 0,-0.55 -0.70156,-1 -1.55902,-1 -0.85746,0 -1.2809,0.45 -0.94098,1 0.33992,0.55 1.04148,1 1.55902,1 0.51754,0 0.94098,-0.45 0.94098,-1 z m 16.23148,2.48982 c -3.42732,-6.88059 -6.23148,-12.73059 -6.23148,-13 0,-0.2694 5.54864,-0.48982 12.33032,-0.48982 h 12.33031 l 7.91969,12.18785 c 4.35582,6.70332 8.06968,12.55332 8.25301,13 0.18334,0.44668 -6.125,0.81215 -14.01852,0.81215 h -14.35186 z m 29.48869,-0.53381 -8.77983,-12.95601 12.77983,0.0475 12.77983,0.0475 9,11.0187 c 4.95,6.06029 9.61739,11.88891 10.37197,12.95249 1.33821,1.8862 1.01825,1.93271 -13,1.8898 l -14.37197,-0.044 z m 29.99215,-0.0293 -10.78768,-12.92671 h 12.30211 12.30211 l 12.97114,13 12.97114,13 -14.48557,-0.0733 -14.48557,-0.0733 z m 29.78768,0.0733 -12.97114,-13 h 12.58891 12.58891 l 12.89666,11.0813 c 19.59308,16.8351 19.29063,14.9187 2.35445,14.9187 h -14.48665 z m 30.26332,0.19661 -14.73668,-12.69661 12.10819,-0.28175 12.10818,-0.28176 15.61412,11.78176 c 8.58777,6.47996 16.29555,12.32994 17.12855,12.99995 1.207,0.97099 -1.4281,1.21381 -12.98568,1.19661 l -14.5,-0.0216 z m 11.73668,-2.19661 c -0.33992,-0.55 -1.04148,-1 -1.55902,-1 -0.51754,0 -0.94098,0.45 -0.94098,1 0,0.55 0.70156,1 1.55902,1 0.85746,0 1.2809,-0.45 0.94098,-1 z m 18.23214,2.17942 -16.76786,-12.67942 11.99224,-0.28057 11.99223,-0.28058 18.27563,12.1563 c 10.0516,6.68597 18.7031,12.54972 19.2256,13.03058 0.5458,0.50226 -5.1986,0.84424 -13.5,0.80369 l -14.45,-0.0706 z m 29.87654,0.004 -18.8914,-12.68309 11.5302,-0.28077 11.5301,-0.28078 19.3192,11.61976 c 10.6256,6.39087 20.2258,12.25472 21.3337,13.03078 1.7737,1.2423 0.3439,1.40301 -11.958,1.3441 l -13.9725,-0.0672 z M 233.69233,793.0046 c 0.5225,-0.46919 7.77091,-4.98599 16.10758,-10.03733 l 15.15759,-9.18425 9.67978,0.28732 9.67978,0.28733 -14.42494,9.75 -14.42495,9.75 h -11.36242 c -6.34604,0 -10.94301,-0.37662 -10.41242,-0.85307 z m 39.75296,-9.14693 14.6303,-10 h 10.70433 10.70432 l -13.34191,10 -13.34191,10 H 270.8077 258.81498 Z m 25.69073,-0.0326 13.24707,-10.03261 10.37795,0.28261 10.37795,0.28261 -11.42676,9.75 -11.42676,9.75 h -12.19826 -12.19826 z m 16.53409,8.14244 c 1.08472,-1.0396 6.15387,-5.5396 11.26478,-10 l 9.29256,-8.10984 h 10.68868 10.68868 l -9.96248,10 -9.96248,10 h -11.99098 c -11.78768,0 -11.95755,-0.0321 -10.01876,-1.89017 z m 35.02168,-8.14709 10.03726,-10.03727 10.31263,0.28727 10.31262,0.28726 -7.85599,9.70042 -7.85598,9.70041 -12.4939,0.0496 -12.4939,0.0496 z m 25.64747,0.0373 8.21571,-10 h 10.79921 10.79921 l -6.65804,10 -6.65804,10 h -12.35688 -12.35688 z m 19.80307,9.55872 c 0,-0.24268 2.75226,-4.74268 6.11613,-10 l 6.11614,-9.55877 h 10.89298 10.89298 l -5.01823,10 -5.01823,10 h -11.99089 c -6.59498,0 -11.99088,-0.19855 -11.99088,-0.44123 z m 27,-0.0455 c 0,-0.26772 2.12656,-4.76772 4.72569,-10 l 4.72568,-9.51327 h 10.8417 c 9.8607,0 10.79374,0.15835 10.31164,1.75 -0.29153,0.9625 -1.69144,5.4625 -3.11089,10 l -2.58083,8.25 h -12.4565 c -6.85107,0 -12.45649,-0.21905 -12.45649,-0.48678 z m 29.58411,-7.26327 c 1.33609,-4.2625 2.70004,-8.7625 3.03099,-10 0.57732,-2.15878 1.04328,-2.25 11.49331,-2.25 12.38458,0 11.64429,-0.71788 9.86499,9.56634 -2.01621,11.65355 -0.33082,10.43366 -14.41503,10.43366 h -12.40353 z m 25.47734,5 c 0.0338,-1.5125 0.60576,-5.9 1.27103,-9.75 l 1.20957,-7 11.22898,-0.28275 11.22897,-0.28275 v 10.03275 10.03275 h -12.5 -12.5 z m 26.93855,-7.25 v -10 h 10.8628 10.8628 l 1.21617,7.75 c 0.66889,4.2625 1.45441,8.7625 1.7456,10 0.52765,2.24236 0.48663,2.25 -12.07896,2.25 h -12.60841 z m 25.66249,0.69246 c -0.91437,-5.11914 -1.66249,-9.61914 -1.66249,-10 0,-0.38085 4.91289,-0.69246 10.91754,-0.69246 h 10.91753 l 3.08247,9.25247 c 1.69535,5.08886 3.08246,9.58886 3.08246,10 0,0.41114 -5.55188,0.74753 -12.33751,0.74753 h -12.33751 z m 28.81358,8.05754 c -0.25364,-0.6875 -1.5422,-4.4 -2.86348,-8.25 -1.32128,-3.85 -2.72278,-7.7875 -3.11444,-8.75 -0.65285,-1.60432 0.21172,-1.75 10.38574,-1.75 h 11.09788 l 5.01823,10 5.01823,10 h -12.5405 c -9.11978,0 -12.66629,-0.34097 -13.00166,-1.25 z m 22.62219,-8.75 -5.22953,-10 h 11.03984 11.03984 l 5.847,8.75 c 3.21585,4.8125 6.17901,9.3125 6.58481,10 0.57399,0.97245 -2.01438,1.25 -11.65731,1.25 h -12.39513 z m 26.40174,0.8458 c -3.3,-5.01756 -6.15,-9.5105 -6.33333,-9.98432 -0.18334,-0.47381 4.38071,-0.86148 10.14232,-0.86148 h 10.47566 l 6.862,8.25 c 3.7741,4.5375 7.47765,9.0375 8.23012,10 1.28701,1.64625 0.63464,1.74907 -11.00433,1.73431 l -12.37244,-0.0157 z m 27.38452,1.45293 c -3.51149,-4.2357 -7.20468,-8.7357 -8.2071,-10 l -1.82258,-2.29873 10.82258,0.007 10.82258,0.007 9.32111,9.99338 9.3211,9.99337 h -11.93658 -11.93659 z m 23.61548,-2.29873 -9.96248,-10 h 10.81208 10.81207 l 10.66917,9.17667 c 5.86804,5.04717 11.09666,9.54717 11.61916,10 0.5225,0.45283 -4.66094,0.82333 -11.51876,0.82333 h -12.46876 z m 26,0 -11.63473,-10 h 10.60815 10.60816 l 12.20921,9.145 c 6.71506,5.02975 12.63671,9.52975 13.15921,10 0.53173,0.47855 -4.39185,0.855 -11.18264,0.855 h -12.13263 z m 26.06071,0.22277 -12.9393,-9.72277 10.16386,-0.2847 10.16385,-0.2847 13.77544,9.163 c 7.57649,5.03966 14.20294,9.55527 14.72544,10.03471 0.54474,0.49983 -4.1478,0.86007 -11,0.84446 l -11.95,-0.0272 z m 25.543,-0.0392 -14.39629,-9.68353 9.80363,-0.28811 9.80363,-0.28811 14.5927,8.69759 c 8.0259,4.78367 15.4803,9.30082 16.5651,10.03811 1.6987,1.15442 0.3104,1.33129 -10,1.27405 l -11.97248,-0.0665 z M 267.22566,772.46495 c 0.22917,-0.216 5.75241,-3.60782 12.27386,-7.53737 l 11.8572,-7.14465 8.57206,0.28737 8.57207,0.28737 -10.97264,7.25 -10.97264,7.25 h -9.87329 c -5.4303,0 -9.68578,-0.17673 -9.45662,-0.39272 z m 33.65388,-7.10728 11.22384,-7.5 h 9.17163 9.17164 l -9.77142,7.5 -9.77142,7.5 H 300.27975 289.6557 Z m 13.4493,6.98016 c 0.28591,-0.28592 4.71391,-3.66092 9.83998,-7.5 l 9.32015,-6.98016 h 8.82668 c 4.85467,0 8.82668,0.19229 8.82668,0.42732 0,0.23503 -3.7125,3.60793 -8.25,7.49535 l -8.25,7.06804 -10.41667,0.005 c -5.72916,0.003 -10.18273,-0.22928 -9.89682,-0.51519 z m 26.41804,-2.2708 c 1.7075,-1.49015 5.58102,-4.84686 8.60781,-7.45936 l 5.50327,-4.75 h 9.36716 9.36715 l -7.44994,7.5 -7.44994,7.5 -10.52503,-0.0406 -10.52503,-0.0406 z m 28.39545,-4.70936 7.44994,-7.5 h 9.30619 9.30619 l -6.25888,7.5 -6.25887,7.5 h -10.49726 -10.49725 z m 17,6.90949 c 0,-0.52101 7.52648,-9.79129 10.67857,-13.15267 1.14304,-1.21892 19.32143,-1.9197 19.32143,-0.74483 0,0.28159 -2.09102,3.65659 -4.64672,7.5 l -4.64671,6.98801 h -10.35329 c -5.6943,0 -10.35328,-0.26573 -10.35328,-0.59051 z m 27.77687,-6.85589 4.72313,-7.4464 9.74181,-0.0536 9.74182,-0.0536 -3.7111,7.5 -3.7111,7.5 h -10.75384 -10.75385 z m 22.9506,-0.0536 3.7111,-7.5 h 9.28072 c 5.10439,0 9.28071,0.30557 9.28071,0.67905 0,0.37348 -0.98857,3.74848 -2.19683,7.5 l -2.19684,6.82095 H 443.95368 433.1587 Z m 20.71444,5.7908 c 0.36073,-0.94006 1.42138,-4.31444 2.35698,-7.49862 l 1.70111,-5.78941 9.86129,-0.001 9.86129,-10e-4 -0.58448,3.25 c -0.32147,1.7875 -0.87906,5.1625 -1.2391,7.5 l -0.65462,4.24923 h -10.97918 c -9.94568,0 -10.91744,-0.16089 -10.32329,-1.7092 z m 23.55809,0.54111 c 0,-0.64244 0.49619,-4.01744 1.10265,-7.5 l 1.10266,-6.33191 h 9.89734 9.89735 v 7.5 7.5 h -11 c -7.72193,0 -11,-0.3481 -11,-1.16809 z m 24,-6.33191 v -7.5 h 9.39159 c 10.61209,0 9.81953,-0.69111 11.18133,9.75 l 0.68474,5.25 h -10.62883 -10.62883 z m 23.54653,6.25 c -0.21489,-0.6875 -0.68149,-3.05 -1.03689,-5.25 -0.35541,-2.2 -0.88925,-5.0125 -1.18632,-6.25 -0.53253,-2.21833 -0.4006,-2.25 9.37144,-2.25 h 9.91157 l 2.19684,6.82095 c 1.20826,3.75152 2.19683,7.12652 2.19683,7.5 0,0.37348 -4.73912,0.67905 -10.53138,0.67905 -7.55007,0 -10.64199,-0.35386 -10.92209,-1.25 z m 21.6503,-5.57095 c -1.20826,-3.75152 -2.19683,-7.12652 -2.19683,-7.5 0,-0.37348 4.26934,-0.67905 9.48743,-0.67905 h 9.48743 l 3.51257,6.97504 c 1.93191,3.83627 3.51257,7.21127 3.51257,7.5 0,0.28873 -4.86143,0.52496 -10.80317,0.52496 H 552.536 Z m 22.53064,-0.67905 -3.7111,-7.5 9.74182,0.018 9.74181,0.018 3.07765,4.73204 c 1.69271,2.60262 3.88197,5.96953 4.86501,7.48203 l 1.78736,2.75 H 587.47663 576.5809 Z m 24.69488,2.73203 c -1.69271,-2.60262 -3.88197,-5.96953 -4.86501,-7.48203 l -1.78736,-2.75 h 9.47218 9.47217 l 6.15562,7.5 6.15561,7.5 -10.76278,-0.018 -10.76278,-0.018 z m 21.32765,-2.21265 c -3.1625,-3.81297 -5.75,-7.17717 -5.75,-7.47602 0,-0.29885 4.17376,-0.54336 9.27503,-0.54336 h 9.27503 l 7.44994,7.5 7.44994,7.5 -10.97497,-0.024 -10.97497,-0.024 z m 22.25,-0.51938 -7.44994,-7.5 9.47497,0.005 9.47497,0.005 8.25,7.06804 c 4.5375,3.88742 8.25,7.26032 8.25,7.49535 0,0.23432 -4.62376,0.42661 -10.27503,0.42661 h -10.27503 z m 23.0867,0.21704 -8.41331,-7.21704 9.17288,-0.28765 9.17288,-0.28766 8.20203,6.28766 c 4.51111,3.45821 8.89431,6.83584 9.74042,7.50585 1.23495,0.97791 -0.53271,1.21797 -8.9616,1.21704 l -10.5,-10e-4 z m 22.49209,-0.24277 -9.92122,-7.47427 h 9.45795 9.45794 l 10.8934,7.5 10.8934,7.5 -10.43013,-0.0257 -10.43013,-0.0257 z m 23.00438,0.27035 -10.91682,-7.24462 8.70715,-0.28952 8.70715,-0.28952 10.70967,6.51392 c 5.89033,3.58266 11.38468,6.96856 12.20968,7.52421 1.05905,0.7133 -1.43963,1.01321 -8.5,1.02022 l -10,0.01 z M 295.22566,755.48981 c 0.22917,-0.20232 4.16481,-2.67732 8.74588,-5.5 8.23916,-5.07666 8.41744,-5.13214 16.4911,-5.13214 h 8.16189 l -8.21502,5.5 -8.21503,5.5 h -8.69274 c -4.78101,0 -8.50524,-0.16554 -8.27608,-0.36786 z m 20.91667,-0.10167 c 0,-0.25824 3.38149,-2.75133 7.51443,-5.54021 l 7.51442,-5.07068 8.0274,0.29021 8.02739,0.29021 -7.0227,5.25 -7.02271,5.25 h -8.51911 c -4.68552,0 -8.51912,-0.21129 -8.51912,-0.46953 z m 27,-5.03047 7.35148,-5.5 8.07426,0.039 8.07426,0.039 -6,5.43675 -6,5.43675 -9.42574,0.0243 -9.42574,0.0243 z m 20.18181,0.0278 6.31819,-5.47214 8.46584,-0.0279 8.46584,-0.0278 -5.43168,5.5 -5.43168,5.5 h -9.35235 -9.35236 z m 19.88353,-0.0714 5.5436,-5.5436 8.29367,0.2936 8.29367,0.2936 -4.27497,5.25 -4.27496,5.25 h -9.56231 -9.5623 z m 16.95523,4.7936 c 0.0113,-0.4125 1.92381,-2.91282 4.25,-5.55628 l 4.22943,-4.80627 8.13158,0.30627 8.13158,0.30628 -3.37263,5.25 -3.37264,5.25 h -9.00894 c -4.95492,0 -8.99969,-0.3375 -8.98838,-0.75 z m 23.6108,-4.75 3.65179,-5.5 h 8.35842 c 4.59713,0 8.35842,0.23996 8.35842,0.53324 0,0.29329 -1.13258,2.76829 -2.51685,5.5 l -2.51684,4.96676 h -9.49337 -9.49337 z m 20.07001,0.0363 2.71526,-5.5363 h 8.73078 8.73079 l -1.78225,5.25 -1.78225,5.25 -9.66379,0.2863 -9.66379,0.28629 z m 20.2023,0.2137 1.78188,-5.25 8.7904,-0.29088 8.79039,-0.29087 -0.63317,3.16587 c -0.34825,1.74124 -0.63318,4.23463 -0.63318,5.54088 0,2.3407 -0.14356,2.375 -9.9391,2.375 h -9.93911 z m 20.18704,1 c 0.4522,-2.3375 0.84178,-4.8125 0.86573,-5.5 0.0315,-0.90418 2.53344,-1.25 9.04355,-1.25 h 9 v 5.5 5.5 h -9.86573 -9.86572 z m 20.53428,1.125 c -1.58401,-7.92007 -1.63194,-7.875 8.375,-7.875 6.51011,0 9.01205,0.34582 9.04355,1.25 0.024,0.6875 0.41353,3.1625 0.86573,5.5 l 0.82217,4.25 h -9.24072 -9.24073 z m 21.06143,2.375 c -0.23738,-0.4125 -0.7442,-2.90546 -1.12627,-5.53991 l -0.69468,-4.78992 8.72448,0.28992 8.72448,0.28991 1.78188,5.25 1.78189,5.25 h -9.38009 c -5.15905,0 -9.57431,-0.3375 -9.81169,-0.75 z m 20.79886,-0.5 c -0.24857,-0.6875 -1.11449,-3.1625 -1.92426,-5.5 l -1.47231,-4.25 h 8.74732 8.74732 l 2.69746,5.5 2.69745,5.5 h -9.52052 c -6.70871,0 -9.654,-0.36918 -9.97246,-1.25 z m 19.03156,-3.71676 c -1.38427,-2.73171 -2.51685,-5.20671 -2.51685,-5.5 0,-0.29328 3.76129,-0.53324 8.35842,-0.53324 h 8.35842 l 3.65179,5.5 3.6518,5.5 h -9.49337 -9.49337 z m 20.11452,-0.53324 -3.6518,-5.5 h 8.4171 8.41709 l 4.09312,4.88878 c 2.25122,2.68883 4.09312,5.16383 4.09312,5.5 0,0.33617 -3.98629,0.61122 -8.85842,0.61122 h -8.85842 z m 20.44732,0.25 -4.27497,-5.25 8.29367,-0.2936 8.29367,-0.2936 5.5436,5.5436 5.5436,5.5436 h -9.5623 -9.56231 z m 19.92131,-0.25 -5.43168,-5.5 8.46584,0.0278 8.46584,0.0279 6.31819,5.47214 6.3182,5.47215 h -9.35236 -9.35235 z m 20.5,0.0147 -6,-5.43675 8.07426,-0.039 8.07426,-0.039 7.35148,5.5 7.35148,5.5 -9.42574,-0.0243 -9.42574,-0.0243 z m 20.20991,0.16876 -6.79009,-5.18348 8.00657,-0.2899 8.00657,-0.2899 8.27462,5.5399 8.27462,5.5399 -9.4911,-0.0665 -9.4911,-0.0665 z m 19.80105,-0.24362 -7.98905,-5.43986 7.98905,0.002 c 7.82847,0.002 8.15988,0.10441 16.48904,5.10163 4.675,2.80485 8.6875,5.27899 8.91667,5.49809 0.22916,0.21911 -3.59584,0.3713 -8.5,0.33823 l -8.91667,-0.0602 z M 323.14233,738.35767 c 6.95958,-4.15481 8.00362,-4.47824 14.48932,-4.48872 l 6.98933,-0.0113 -6.70793,4.5 c -6.52543,4.37757 -6.91962,4.49969 -14.48932,4.48872 l -7.7814,-0.0113 z m 12,4.11746 c 0,-0.2104 2.84387,-2.2354 6.31972,-4.5 5.95092,-3.87718 6.7489,-4.11746 13.67426,-4.11746 h 7.35454 l -5.92426,4.47335 c -5.81909,4.39395 -6.06184,4.47383 -13.67426,4.5 -4.2625,0.0147 -7.75,-0.14549 -7.75,-0.35589 z m 19,0.004 c 0,-0.20812 2.40407,-2.23312 5.34237,-4.5 5.17263,-3.99066 5.57773,-4.12039 12.75,-4.08319 l 7.40763,0.0384 -5,4.44101 c -4.99475,4.43635 -5.00814,4.44104 -12.75,4.46158 -4.2625,0.0113 -7.75,-0.14971 -7.75,-0.35782 z m 23,-4.12146 5.06676,-4.5 h 7.67483 7.67483 l -4.41642,4.5 -4.41642,4.5 h -8.32517 -8.32517 z m 18,0 4.41642,-4.5 h 7.29179 c 4.01048,0 7.29179,0.25527 7.29179,0.56726 0,0.31199 -1.4625,2.32888 -3.25,4.48197 l -3.25,3.91472 -8.45821,0.018 -8.45821,0.018 z m 18.0724,0.40859 c 1.78225,-2.25028 3.77721,-4.29739 4.43324,-4.54913 0.65604,-0.25174 4.17059,-0.32311 7.81012,-0.15859 l 6.61734,0.29913 -2.71655,4.2428 -2.71655,4.24281 -8.33403,0.007 -8.33403,0.007 z m 17.15975,1.84141 c 0.80419,-1.2375 2.08919,-3.2625 2.85555,-4.5 1.25082,-2.01978 2.18601,-2.25 9.13985,-2.25 h 7.74646 l -2.18627,4.5 -2.18627,4.5 h -8.41575 -8.41574 z m 17.76785,1.71016 c 0,-0.29691 0.90915,-2.32191 2.02032,-4.5 l 2.02033,-3.96016 h 7.47967 c 4.11383,0 7.47968,0.28529 7.47968,0.63398 0,0.34869 -0.52123,2.37369 -1.15829,4.5 l -1.15829,3.86602 h -8.34171 c -4.58794,0 -8.34171,-0.24293 -8.34171,-0.53984 z m 19,-0.0941 c 0,-0.34869 0.52123,-2.37369 1.15829,-4.5 l 1.15829,-3.86606 h 7.95834 c 7.76509,0 7.9437,0.0546 7.35537,2.25 -0.33164,1.2375 -0.60913,3.2625 -0.61664,4.5 -0.0131,2.15579 -0.36955,2.25 -8.51365,2.25 -4.675,0 -8.5,-0.28529 -8.5,-0.63398 z m 18.53339,-1.11606 c 1.56679,-7.92112 0.68872,-7.25 9.48566,-7.25 h 7.98095 v 4.5 4.5 h -8.90638 c -7.94747,0 -8.86911,-0.18842 -8.56023,-1.75 z m 18.46661,-2.75 v -4.5 h 7.88337 c 8.50966,0 9.06451,0.41143 9.10298,6.75 0.0131,2.15793 -0.33416,2.25 -8.48635,2.25 h -8.5 z m 19,3.125 c 0,-0.75625 -0.28125,-2.78125 -0.625,-4.5 l -0.625,-3.125 h 7.96671 7.96671 l 1.15829,3.86602 c 0.63706,2.12631 1.15829,4.15131 1.15829,4.5 0,0.34869 -3.825,0.63398 -8.5,0.63398 -6.54545,0 -8.5,-0.31618 -8.5,-1.375 z m 18.15829,-2.49102 c -0.63706,-2.12631 -1.15829,-4.15131 -1.15829,-4.5 0,-0.34869 3.36585,-0.63398 7.47968,-0.63398 h 7.47967 l 2.02033,3.96016 c 1.11117,2.17809 2.02032,4.20309 2.02032,4.5 0,0.29691 -3.75377,0.53984 -8.34171,0.53984 h -8.34171 z m 18.05397,-0.63398 -2.18627,-4.5 h 7.74646 c 6.95384,0 7.88903,0.23022 9.13985,2.25 0.76636,1.2375 2.05136,3.2625 2.85555,4.5 l 1.46217,2.25 h -8.41574 -8.41575 z m 18.42063,0.52144 c -1.44809,-2.18821 -2.63289,-4.21321 -2.63289,-4.5 0,-0.28679 3.32079,-0.52144 7.37954,-0.52144 h 7.37954 l 3.68741,4.5 3.68741,4.5 h -8.43406 -8.43407 z m 18.0291,-0.52144 -3.76153,-4.5 h 7.84156 7.84156 l 4.41642,4.5 4.41642,4.5 h -8.49645 -8.49645 z m 18.33801,0 -4.41642,-4.5 h 7.61146 7.61147 l 4.84674,4.46029 4.84675,4.4603 -8.04179,0.0397 -8.04179,0.0397 z m 18.5,0.0178 -5,-4.44101 7.29291,-0.0384 c 7.01926,-0.037 7.49766,0.11618 12.75,4.08173 3.0014,2.26608 5.45709,4.29108 5.45709,4.5 0,0.20892 -3.4875,0.37059 -7.75,0.35928 -7.74186,-0.0205 -7.75525,-0.0252 -12.75,-4.46158 z m 18.07574,-0.0445 -5.92426,-4.4733 h 7.35454 c 6.92536,0 7.72334,0.24028 13.67426,4.11746 3.47585,2.2646 6.31972,4.2896 6.31972,4.5 0,0.2104 -3.4875,0.37055 -7.75,0.35589 -7.61242,-0.0262 -7.85517,-0.10605 -13.67426,-4.5 z m 18.47983,0.26759 -6.44443,-4.24094 6.788,-0.29782 c 6.49284,-0.28488 7.12092,-0.10074 14.44443,4.23475 l 7.65643,4.53258 -8,0.006 c -7.73379,0.006 -8.21445,-0.13494 -14.44443,-4.23476 z m -336.05557,-6.12401 c 0,-0.21072 2.76545,-2.0305 6.14544,-4.04395 5.52742,-3.29266 6.75179,-3.63125 12.17494,-3.36687 l 6.02951,0.29394 -5.65956,3.75 c -5.08686,3.37053 -6.31887,3.75 -12.17495,3.75 -3.58346,0 -6.51538,-0.17241 -6.51538,-0.38312 z m 17,0.0493 c 0,-0.18358 2.42837,-2.00627 5.39637,-4.05041 5.01675,-3.45517 5.83692,-3.69549 11.65865,-3.41622 l 6.26228,0.30041 -4.82276,3.75 c -4.49774,3.49732 -5.28344,3.75004 -11.65865,3.75004 -3.75974,0 -6.83589,-0.1502 -6.83589,-0.33378 z m 17,-0.0811 c 0,-0.22816 2.19779,-2.02816 4.88398,-4 4.45181,-3.26785 5.47478,-3.58508 11.56082,-3.58508 h 6.67684 l -4.62164,4 c -4.43488,3.83836 -4.90205,4 -11.56082,4 -3.81655,0 -6.93918,-0.18667 -6.93918,-0.41483 z m 21,-3.58508 c 4.30282,-3.76766 4.80466,-3.94162 11.45295,-3.97016 l 6.95295,-0.0298 -3.9059,4 c -3.88263,3.97618 -3.95084,3.99982 -11.45295,3.97016 l -7.54705,-0.0298 z m 16.5,0 c 3.80894,-3.90071 4.0767,-4 10.78698,-4 h 6.88108 l -3.16806,4 -3.16806,4 h -7.61892 -7.61892 z m 16.62024,0 c 3.18939,-3.96877 3.26829,-4 10.10614,-4 7.37973,0 7.27954,-0.14851 3.54156,5.25 -1.78998,2.58514 -2.35249,2.75 -9.38316,2.75 h -7.47903 z m 16.49846,0 2.64707,-4 h 6.86712 c 3.77691,0 6.86711,0.20973 6.86711,0.46607 0,0.25634 -0.75835,2.05634 -1.68521,4 l -1.68521,3.53393 h -7.82898 -7.82898 z m 15.3813,3.53393 c 0,-0.25634 0.75835,-2.05634 1.68521,-4 l 1.68521,-3.53393 h 6.81479 c 3.74814,0 6.81479,0.38285 6.81479,0.85078 0,0.46792 -0.49402,2.26792 -1.09783,4 l -1.09782,3.14922 h -7.40218 c -4.07119,0 -7.40217,-0.20973 -7.40217,-0.46607 z m 17,-0.38471 c 0,-0.46792 0.49402,-2.26792 1.09783,-4 1.08836,-3.12208 1.1573,-3.14922 8,-3.14922 6.6334,0 6.90217,0.0942 6.90217,2.41821 0,5.11867 -0.71412,5.58179 -8.60699,5.58179 -4.06615,0 -7.39301,-0.38285 -7.39301,-0.85078 z m 17.36971,-1.39922 c 0.33164,-1.2375 0.60913,-3.0375 0.61664,-4 0.0118,-1.5099 1.04266,-1.75 7.51365,-1.75 h 7.5 v 4 4 h -8.11663 c -7.92924,0 -8.10271,-0.052 -7.51366,-2.25 z m 16.63029,-1.75 v -4 h 7.5 c 7.26569,0 7.5,0.0756 7.5,2.41821 0,1.33002 0.27314,3.13002 0.60699,4 0.52273,1.36222 -0.51833,1.58179 -7.5,1.58179 h -8.10699 z m 17.55214,2.75 c -0.2118,-0.6875 -0.65625,-2.4875 -0.98767,-4 l -0.60257,-2.75 h 7.41064 c 6.99443,0 7.44458,0.13519 8.01479,2.4071 0.33228,1.3239 0.8792,3.1239 1.21539,4 0.52631,1.37152 -0.4503,1.5929 -7.02712,1.5929 -5.23865,0 -7.75935,-0.39271 -8.02346,-1.25 z m 16.39344,-1.5 c -0.55271,-1.5125 -1.20245,-3.3125 -1.44387,-4 -0.32508,-0.92576 1.4503,-1.25 6.84446,-1.25 h 7.28341 l 1.68521,3.53393 c 0.92686,1.94366 1.68521,3.74366 1.68521,4 0,0.25634 -3.38614,0.46607 -7.52475,0.46607 -7.29854,0 -7.55496,-0.0827 -8.52967,-2.75 z m 16.73963,-0.78393 c -0.92686,-1.94366 -1.68521,-3.74366 -1.68521,-4 0,-0.25634 3.0375,-0.4605 6.75,-0.45369 6.60079,0.0121 6.79974,0.0892 9,3.48597 1.2375,1.91048 2.25,3.70491 2.25,3.98763 0,0.28271 -3.29165,0.51402 -7.31479,0.51402 h -7.31479 z m 16.56479,0.0356 c -1.2375,-1.9105 -2.25,-3.70493 -2.25,-3.98765 0,-0.28271 2.93134,-0.51402 6.5141,-0.51402 6.07609,0 6.71289,0.21853 9.47068,3.25 1.62613,1.7875 2.96978,3.5875 2.98591,4 0.0161,0.4125 -3.23319,0.74443 -7.22069,0.73762 -7.17159,-0.0122 -7.27434,-0.0499 -9.5,-3.48597 z m 16.79892,-0.25165 -3.09669,-3.75 6.70926,-0.29992 c 6.65949,-0.29769 6.73931,-0.26987 10.75918,3.75 l 4.04992,4.0499 h -7.66249 c -7.63725,0 -7.6727,-0.0124 -10.75918,-3.75 z m 16.45108,-0.25002 -3.9059,-4 6.95295,0.0426 c 6.64773,0.0408 7.15049,0.21623 11.45295,3.99729 l 4.5,3.95466 -7.54705,0.003 c -7.4886,0.003 -7.57731,-0.0283 -11.45295,-3.9973 z m 16.62139,-0.041 -4.37861,-3.959 h 6.73471 c 6.75725,0 8.67172,0.86035 15.97251,7.17794 0.5225,0.45213 -2.4025,0.8036 -6.5,0.78105 -7.25157,-0.0399 -7.56662,-0.14646 -11.82861,-4 z m 16.87861,0.041 -5.36121,-4 h 6.69599 c 6.03141,0 7.24034,0.36143 12.1806,3.64158 3.01654,2.00287 5.48462,3.80287 5.48462,4 0,0.19713 -3.06873,0.35842 -6.81939,0.35842 -6.39576,0 -7.15245,-0.24849 -12.18061,-4 z m 16.5,0 -6,-3.99363 6.5,-6.2e-4 c 5.68758,-5.3e-4 7.24993,0.4497 12.5,3.60222 3.3,1.98155 6.1875,3.78039 6.41667,3.99743 0.22916,0.21703 -2.69584,0.39317 -6.5,0.39142 -6.39687,-0.003 -7.36758,-0.30332 -12.91667,-3.99682 z m -306.5,-5.40498 c 0,-0.22274 1.99263,-1.57274 4.42807,-3 3.39821,-1.99148 5.78211,-2.59402 10.25,-2.59074 l 5.82193,0.004 -4.5,2.99144 c -3.68721,2.45113 -5.53856,2.99221 -10.25,2.99572 -3.1625,0.002 -5.75,-0.17796 -5.75,-0.4007 z m 15,0.0379 c 0,-0.20192 1.79035,-1.55192 3.97856,-3 3.22302,-2.13293 5.15588,-2.63292 10.17814,-2.63292 h 6.19958 l -3.92814,2.97218 c -3.36874,2.54892 -4.81818,2.97614 -10.17814,3 -3.4375,0.0153 -6.25,-0.13738 -6.25,-0.33929 z m 19,-2.63292 c 3.07349,-2.58718 4.28748,-2.94948 9.96223,-2.9731 l 6.46222,-0.0269 -3.46222,2.95936 c -3.06032,2.61582 -4.21678,2.96095 -9.96223,2.9731 l -6.5,0.0137 z m 15.03777,0.0406 c 3.04173,-2.59993 4.24404,-2.96429 9.89932,-3 l 6.43709,-0.0406 -2.87418,3 c -2.65947,2.77589 -3.39899,3 -9.89932,3 h -7.02513 z m 15.46223,-0.0406 c 2.61632,-2.73085 3.45733,-3 9.37418,-3 h 6.5 l -2.87418,3 c -2.61632,2.73085 -3.45733,3 -9.37418,3 h -6.5 z m 14.09309,1.75 c 2.31673,-4.07233 3.76196,-4.75 10.12999,-4.75 h 6.41311 l -2.13619,3 c -1.99791,2.80581 -2.55635,3 -8.62711,3 -4.90534,0 -6.31721,-0.30535 -5.7798,-1.25 z m 16.40691,-1.75 c 1.99597,-2.80308 2.56005,-3 8.59377,-3 h 6.45759 l -1.55136,3 c -1.50093,2.90248 -1.78028,3 -8.59377,3 h -7.04242 z m 15.14984,0 c 1.02475,-2.93959 1.18375,-3 7.89597,-3 h 6.85015 l -1.0458,3 c -1.02475,2.93959 -1.18375,3 -7.89597,3 h -6.85015 z m 15.21987,0.75 c 0.33164,-1.2375 0.60913,-2.5875 0.61664,-3 0.008,-0.4125 3.08571,-0.75 6.84046,-0.75 h 6.8268 l -0.4403,3 -0.44031,3 h -7.00313 c -6.7745,0 -6.98345,-0.0735 -6.40016,-2.25 z m 15.41698,-0.75 0.44031,-3 h 6.8865 6.8865 v 3 3 h -7.32681 -7.3268 z m 15.21331,-0.0457 v -3.04569 l 6.75,0.29569 c 6.53616,0.28632 6.76002,0.38281 7.06642,3.04569 l 0.31642,2.75 h -7.06642 -7.06642 z m 15.63029,0.79569 c -0.33164,-1.2375 -0.60913,-2.5875 -0.61664,-3 -0.008,-0.4125 2.92249,-0.75 6.5111,-0.75 6.08376,0 6.59067,0.17337 7.5,2.5651 0.53639,1.4108 0.97525,2.7608 0.97525,3 0,0.23919 -3.09752,0.4349 -6.88337,0.4349 -6.29298,0 -6.93508,-0.19298 -7.48634,-2.25 z m 15.34496,-0.3151 c -0.53639,-1.4108 -0.97525,-2.7608 -0.97525,-3 0,-0.23919 2.91344,-0.4349 6.47432,-0.4349 6.18228,0 6.5443,0.13532 8.02568,3 l 1.55136,3 h -7.05043 c -6.64804,0 -7.10609,-0.1464 -8.02568,-2.5651 z m 15.52475,-0.4349 -1.55136,-3 h 6.41067 c 5.71016,0 6.58715,0.26934 8.02568,2.46482 0.88826,1.35565 1.61501,2.70565 1.61501,3 0,0.29435 -2.91344,0.53518 -6.47432,0.53518 -6.18228,0 -6.5443,-0.13532 -8.02568,-3 z m 15.15907,0 -1.77214,-3 h 6.48844 c 6.068,0 6.62686,0.19439 8.62463,3 l 2.13619,3 h -6.85249 c -6.5534,0 -6.92983,-0.13094 -8.62463,-3 z m 15.49905,0 -2.21799,-3 h 6.34284 c 5.74223,0 6.61501,0.28407 9.21703,3 l 2.87418,3 h -6.99903 c -6.61715,0 -7.12005,-0.16369 -9.21703,-3 z m 15.34188,0 -2.87418,-3 h 6.5 c 5.91685,0 6.75786,0.26915 9.37418,3 l 2.87418,3 h -6.5 c -5.91685,0 -6.75786,-0.26915 -9.37418,-3 z m 15.46223,0.0406 -3.46223,-2.95936 5.94625,-0.0406 c 4.83658,-0.0331 6.65609,0.45128 9.75,2.59536 2.09206,1.4498 3.80375,2.7998 3.80375,3 0,0.2002 -2.8295,0.364 -6.28777,0.364 -5.52062,0 -6.7102,-0.36107 -9.75,-2.95936 z m 15.63732,0.20936 -3.8767,-2.75 5.73917,-0.30291 c 4.98947,-0.26333 6.34651,0.0944 10.38857,2.73824 l 4.64941,3.04114 -6.51188,0.0118 c -5.50833,0.01 -7.10932,-0.41204 -10.38857,-2.73824 z m 14.96491,-0.0601 -3.93555,-2.68989 5.61185,-0.2977 c 4.81009,-0.25518 6.30101,0.135 10.43555,2.73099 l 4.82369,3.02874 -6.5,-0.0411 c -5.37297,-0.034 -7.18238,-0.50751 -10.43554,-2.731 z m -281.56446,-5.59108 c 0,-0.22068 1.63694,-1.36705 3.63764,-2.54749 2.71798,-1.60364 4.93015,-2.07105 8.75,-1.84878 l 5.11236,0.29749 -3.61803,2.25 c -2.52627,1.57105 -5.16664,2.25 -8.75,2.25 -2.82259,0 -5.13197,-0.18055 -5.13197,-0.40122 z m 14,-0.0172 c 0,-0.23014 1.51562,-1.35514 3.36803,-2.5 2.32401,-1.43632 5.03634,-2.08002 8.75,-2.07659 l 5.38197,0.005 -3,2.45907 c -2.3972,1.96497 -4.15536,2.4663 -8.75,2.49504 -3.1625,0.0198 -5.75,-0.15234 -5.75,-0.38248 z m 16.5,-2.05056 c 2.43261,-1.99399 4.13477,-2.46494 9,-2.49007 l 6,-0.031 -3,2.45907 c -2.43261,1.99399 -4.13477,2.46494 -9,2.49007 l -6,0.031 z m 14.31763,-0.031 c 2.4192,-2.03563 4.04471,-2.5 8.75104,-2.5 h 5.77996 l -2.34863,2.49998 c -2.0309,2.16179 -3.21477,2.5 -8.75104,2.5 h -6.40241 z m 14.18237,-2e-5 c 1.935,-2.05972 3.28655,-2.5 7.67431,-2.5 5.68093,0 6.41609,0.70322 3.49695,3.34501 -1.26264,1.14268 -3.63827,1.65499 -7.67431,1.65499 h -5.84558 z m 14,0 c 1.935,-2.05972 3.28655,-2.5 7.67431,-2.5 5.60048,0 6.09229,0.40634 3.93364,3.25 -1.01844,1.34163 -2.80184,1.75 -7.64251,1.75 h -6.31407 z m 13.0318,1.75 c 0.0175,-0.4125 0.6296,-1.5375 1.36025,-2.5 0.98894,-1.30277 2.76973,-1.75 6.96819,-1.75 6.03301,0 6.18954,0.10422 4.60458,3.06574 -0.84584,1.58046 -2.12622,1.93426 -7,1.93426 -3.28065,0 -5.95051,-0.3375 -5.93302,-0.75 z m 13.9682,0.18426 c 0,-0.31116 0.46583,-1.43616 1.03518,-2.5 0.84897,-1.58631 2.12743,-1.93426 7.10699,-1.93426 5.12585,0 5.97724,0.24643 5.46482,1.58179 -0.33385,0.86998 -0.60699,1.99498 -0.60699,2.5 0,0.50501 -2.925,0.91821 -6.5,0.91821 -3.575,0 -6.5,-0.25458 -6.5,-0.56574 z m 14.8927,-1.68426 c 0.71978,-1.95533 1.64887,-2.28942 7.09433,-2.551 5.45495,-0.26204 6.18498,-0.0896 5.63953,1.33178 -0.34461,0.89804 -0.62656,2.04599 -0.62656,2.55101 0,0.50501 -2.9105,0.91821 -6.46778,0.91821 -6.28606,0 -6.4445,-0.0632 -5.63952,-2.25 z m 14.1073,-0.25 c 0,-2.41026 0.23333,-2.5 6.5,-2.5 6.26667,0 6.5,0.0897 6.5,2.5 0,2.41026 -0.23333,2.5 -6.5,2.5 -6.26667,0 -6.5,-0.0897 -6.5,-2.5 z m 14,0 c 0,-2.38385 0.2738,-2.5 5.89301,-2.5 4.45117,0 6.04152,0.38702 6.5,1.58179 1.17321,3.05733 0.55105,3.41821 -5.89301,3.41821 -6.26667,0 -6.5,-0.0897 -6.5,-2.5 z m 14.66667,1.83333 c -0.36667,-0.36666 -0.66667,-1.49166 -0.66667,-2.5 0,-1.57037 0.84524,-1.83333 5.89301,-1.83333 5.7476,0 7.10699,0.78074 7.10699,4.08179 0,1.04324 -11.31094,1.27394 -12.33333,0.25154 z m 13.94032,-0.91512 c -1.16307,-3.03091 -0.5702,-3.41821 5.23249,-3.41821 5.25837,0 5.95285,0.24879 6.97857,2.5 l 1.13907,2.5 h -6.37157 c -4.88755,0 -6.51295,-0.36842 -6.97856,-1.58179 z m 13.92385,-0.66821 c -1.57499,-2.23922 -1.55786,-2.25147 3.5741,-2.5568 6.13363,-0.36492 7.40945,0.0309 8.86483,2.75031 1.05363,1.96873 0.84546,2.05649 -4.87788,2.05649 -5.06433,0 -6.22047,-0.34404 -7.56105,-2.25 z m 14.06112,-0.25 -1.63807,-2.5 h 5.86807 c 4.41489,0 6.27791,0.45287 7.52305,1.82874 0.91025,1.00581 1.65499,2.13081 1.65499,2.5 0,0.36919 -2.64825,0.67126 -5.88499,0.67126 -5.17384,0 -6.08294,-0.3021 -7.52305,-2.5 z m 14.40804,0 -2.34863,-2.5 h 6 c 5.10703,0 6.34954,0.37207 8.34863,2.5 l 2.34863,2.5 h -6 c -5.10703,0 -6.34954,-0.37207 -8.34863,-2.5 z m 14,0 -2.34863,-2.5 h 6 c 5.10703,0 6.34954,0.37207 8.34863,2.5 l 2.34863,2.5 h -6 c -5.10703,0 -6.34954,-0.37207 -8.34863,-2.5 z m 14,0 -2.34863,-2.5 h 5.48004 c 4.27508,0 6.22511,0.5497 8.86859,2.5 l 3.38856,2.5 h -6.51997 c -5.66166,0 -6.82914,-0.32911 -8.86859,-2.5 z m 14.5,0.031 -3,-2.45907 5.30305,-0.036 c 4.04859,-0.0275 6.17336,0.55543 8.98214,2.46404 l 3.67908,2.5 -5.98214,-0.005 c -4.86991,-0.004 -6.5399,-0.46216 -8.98213,-2.46403 z m 13.52822,-0.08 -3.47178,-2.45096 5.47178,0.005 c 4.05968,0.004 6.50406,0.64093 9.47178,2.46879 l 4,2.46367 -6,-0.0178 c -4.73841,-0.0141 -6.72999,-0.53317 -9.47178,-2.46879 z m -260.02822,-3.92532 c 0,-1.38044 6.52036,-3.52483 10.70034,-3.51909 l 4.79966,0.007 -3,1.98682 c -2.66985,1.76817 -12.5,2.96798 -12.5,1.52568 z m 15,-1.52568 c 1.76405,-1.37986 4.0852,-1.96207 7.88486,-1.97776 l 5.38486,-0.0222 -2.54259,2 c -1.83369,1.44238 -4.03207,1.9938 -7.88486,1.97776 l -5.34227,-0.0223 z m 13,0 c 1.76405,-1.37986 4.0852,-1.96207 7.88486,-1.97776 l 5.38486,-0.0222 -2.54259,2 c -1.83369,1.44238 -4.03207,1.9938 -7.88486,1.97776 l -5.34227,-0.0223 z m 13.27287,0 c 1.80888,-1.42286 4.05678,-2 7.78985,-2 5.18391,0 5.22541,0.0241 3.43728,2 -1.42558,1.57524 -3.07997,2 -7.78985,2 h -5.97987 z m 13.22713,0 c 1.39204,-1.53818 3.07997,-2 7.30998,-2 5.43665,0 5.47915,0.023 3.69002,2 -1.39204,1.53818 -3.07997,2 -7.30998,2 -5.43665,0 -5.47915,-0.023 -3.69002,-2 z m 13,0 c 1.3806,-1.52555 3.07997,-2 7.16346,-2 5.10316,0 5.29508,0.0935 4.10447,2 -1.02031,1.63378 -2.33203,2 -7.16346,2 -5.8511,0 -5.89506,-0.0214 -4.10447,-2 z m 12.73207,0 c 1.01558,-1.6262 2.33203,-2 7.04366,-2 5.48476,0 5.7374,0.10695 4.72427,2 -0.88697,1.65732 -2.09382,2 -7.04366,2 -5.72296,0 -5.92094,-0.0838 -4.72427,-2 z m 13.16094,0.41821 c 0.33385,-0.86998 0.60699,-1.76998 0.60699,-2 0,-0.23001 2.65787,-0.41821 5.90638,-0.41821 5.41405,0 5.86278,0.16671 5.38337,2 -0.44959,1.71921 -1.36402,2 -6.51337,2 -5.05158,0 -5.89523,-0.24789 -5.38337,-1.58179 z m 13.31724,-0.41821 c 0.44704,-1.70949 1.36402,-2 6.31276,-2 5.29742,0 5.74528,0.17007 5.26674,2 -0.44704,1.70949 -1.36402,2 -6.31276,2 -5.29742,0 -5.74528,-0.17007 -5.26674,-2 z m 13.28975,0 c 0,-1.77778 0.66667,-2 6,-2 5.33333,0 6,0.22222 6,2 0,1.77778 -0.66667,2 -6,2 -5.33333,0 -6,-0.22222 -6,-2 z m 13,-0.0499 c 0,-1.8633 0.52255,-2.02261 5.74028,-1.75 4.52807,0.23657 5.81061,0.66946 6.07333,2.0499 0.28758,1.51113 -0.49596,1.75 -5.74029,1.75 -5.45594,0 -6.07332,-0.20838 -6.07332,-2.0499 z m 13.66667,1.38323 c -0.36667,-0.36666 -0.66667,-1.28912 -0.66667,-2.0499 0,-1.05183 1.37529,-1.31138 5.74028,-1.08333 4.52807,0.23657 5.81061,0.66946 6.07333,2.0499 0.28393,1.49195 -0.46421,1.75 -5.07362,1.75 -2.97366,0 -5.70666,-0.3 -6.07332,-0.66667 z m 12.94032,-0.91512 c -0.33385,-0.86998 -0.60699,-1.76998 -0.60699,-2 0,-0.23001 2.45917,-0.41821 5.46482,-0.41821 4.44136,0 5.66527,0.37456 6.53518,2 1.01442,1.89546 0.76049,2 -4.85783,2 -4.48325,0 -6.07614,-0.38555 -6.53518,-1.58179 z m 13,0 c -0.33385,-0.86998 -0.60699,-1.76998 -0.60699,-2 0,-0.23001 2.45917,-0.41821 5.46482,-0.41821 4.44136,0 5.66527,0.37456 6.53518,2 1.01442,1.89546 0.76049,2 -4.85783,2 -4.48325,0 -6.07614,-0.38555 -6.53518,-1.58179 z m 13.39301,-0.41821 c -1.0082,-1.88384 -0.76049,-2 4.26482,-2 4.89434,0 7.73518,1.17524 7.73518,3.2 0,0.44 -2.45917,0.8 -5.46482,0.8 -4.44136,0 -5.66527,-0.37456 -6.53518,-2 z m 13.5,0 c -1.78913,-1.97697 -1.74663,-2 3.69002,-2 4.23001,0 5.91794,0.46182 7.30998,2 1.78913,1.97697 1.74663,2 -3.69002,2 -4.23001,0 -5.91794,-0.46182 -7.30998,-2 z m 13,0 c -1.78913,-1.97697 -1.74663,-2 3.69002,-2 4.23001,0 5.91794,0.46182 7.30998,2 1.78913,1.97697 1.74663,2 -3.69002,2 -4.23001,0 -5.91794,-0.46182 -7.30998,-2 z m 13,0 c -1.78813,-1.97586 -1.74663,-2 3.43728,-2 3.73307,0 5.98097,0.57714 7.78985,2 l 2.54259,2 h -5.97987 c -4.70988,0 -6.36427,-0.42476 -7.78985,-2 z m 13.5,0 -2.5,-1.95553 5,-0.0156 c 3.33663,-0.0104 5.99802,0.64531 8,1.97117 l 3,1.98682 -5.5,-0.0156 c -3.92161,-0.0112 -6.21745,-0.57684 -8,-1.97117 z m 13,0 -2.5,-1.95553 5,-0.0156 c 3.33663,-0.0104 5.99802,0.64531 8,1.97117 l 3,1.98682 -5.5,-0.0156 c -3.92161,-0.0112 -6.21745,-0.57684 -8,-1.97117 z m -244,-3.47432 c 0,-1.31744 6.42148,-3.52299 10.20034,-3.50344 l 4.29966,0.0222 -2.5,1.95553 c -1.66764,1.30445 -4.08148,1.96293 -7.25,1.97776 -2.6125,0.0122 -4.75,-0.1912 -4.75,-0.45208 z m 14.5,-1.52568 c 1.90258,-1.26003 4.64613,-1.97706 7.5,-1.96014 l 4.5,0.0267 -2.36078,1.96673 c -1.67692,1.39701 -3.84951,1.96482 -7.5,1.96014 l -5.13922,-0.007 z m 12.36078,-0.0333 c 1.5854,-1.32073 3.85332,-1.9667 6.90499,-1.9667 4.48086,0 4.51898,0.0279 2.73423,2 -1.36893,1.51265 -3.0515,1.99189 -6.90499,1.96673 l -5.09501,-0.0333 z m 12,0 c 1.66094,-1.38366 3.85614,-1.9667 7.40499,-1.9667 4.98086,0 5.02148,0.0251 3.23423,2 -1.40813,1.55597 -3.05216,1.99261 -7.40499,1.96673 l -5.59501,-0.0333 z m 12.63922,0.0333 c 1.35024,-1.492 3.07997,-2 6.80998,-2 4.93665,0 4.97707,0.0253 3.19002,2 -1.35024,1.492 -3.07997,2 -6.80998,2 -4.93665,0 -4.97707,-0.0253 -3.19002,-2 z m 12,0 c 1.33896,-1.47953 3.07997,-2 6.69017,-2 4.57032,0 4.81223,0.12699 3.80983,2 -0.87544,1.63577 -2.09382,2 -6.69017,2 -5.55646,0 -5.5994,-0.0225 -3.80983,-2 z m 11.5,1.2 c 0,-1.97944 2.78707,-3.2 7.30699,-3.2 4.06369,0 4.80267,0.27184 4.3,1.58179 -0.33385,0.86998 -0.60699,1.76998 -0.60699,2 0,0.23001 -2.475,0.41821 -5.5,0.41821 -3.025,0 -5.5,-0.36 -5.5,-0.8 z m 12.97229,-1.14822 c 0.88425,-1.65224 2.07915,-2.05178 6.13622,-2.05178 4.25843,0 4.9866,0.27083 4.7051,1.75 -0.26326,1.3833 -1.54907,1.81324 -6.13622,2.05178 -5.58013,0.29018 -5.76098,0.22292 -4.7051,-1.75 z m 12.21375,0.19822 c 0.25713,-1.35252 1.523,-1.81865 5.57333,-2.05226 4.71663,-0.27204 5.24063,-0.0971 5.24063,1.75 0,1.82419 -0.61936,2.05226 -5.57332,2.05226 -4.768,0 -5.52526,-0.25287 -5.24064,-1.75 z m 12.52421,-0.25 c 0.44131,-1.68755 1.36402,-2 5.90638,-2 4.7167,0 5.38337,0.24768 5.38337,2 0,1.77426 -0.66667,2 -5.90638,2 -5.41405,0 -5.86278,-0.16671 -5.38337,-2 z m 12.28975,0 c 0,-1.75758 0.66667,-2 5.5,-2 4.83333,0 5.5,0.24242 5.5,2 0,1.75758 -0.66667,2 -5.5,2 -4.83333,0 -5.5,-0.24242 -5.5,-2 z m 12.66667,1.33333 c -0.36667,-0.36666 -0.66667,-1.26666 -0.66667,-2 0,-0.94599 1.56389,-1.33333 5.38337,-1.33333 4.54236,0 5.46507,0.31245 5.90638,2 0.47387,1.81208 0.0307,2 -4.7167,2 -2.88185,0 -5.53972,-0.3 -5.90638,-0.66667 z m 12.04358,-1.33333 c -0.47442,-1.81419 -0.0307,-2 4.77638,-2 4.88132,0 6.51337,0.89749 6.51337,3.58179 0,0.23001 -2.42252,0.41821 -5.38337,0.41821 -4.54236,0 -5.46507,-0.31245 -5.90638,-2 z m 12.28975,0 c -1.00772,-1.88295 -0.76049,-2 4.22427,-2 4.21163,0 5.55012,0.4091 6.54366,2 1.19189,1.90853 0.99869,2 -4.22427,2 -4.44984,0 -5.67344,-0.37398 -6.54366,-2 z m 13.2,0.8 c -2.15231,-2.15231 -1.28144,-2.8 3.76482,-2.8 3.94136,0 5.18546,0.41228 6.03518,2 1.00177,1.87182 0.76049,2 -3.76482,2 -2.65935,0 -5.37518,-0.54 -6.03518,-1.2 z m 11.8,-0.8 c -1.0024,-1.87301 -0.76049,-2 3.80983,-2 3.6102,0 5.35121,0.52047 6.69017,2 1.78957,1.97746 1.74663,2 -3.80983,2 -4.59635,0 -5.81473,-0.36423 -6.69017,-2 z m 12.5,0 c -1.78705,-1.97466 -1.74663,-2 3.19002,-2 3.73001,0 5.45974,0.508 6.80998,2 1.78705,1.97466 1.74663,2 -3.19002,2 -3.73001,0 -5.45974,-0.508 -6.80998,-2 z m 12.36078,0.0333 -2.36078,-1.96673 5,-0.011 c 3.45597,-0.008 5.77202,0.59284 7.5,1.94449 l 2.5,1.95553 -5.13922,0.0222 c -3.66741,0.0159 -5.81531,-0.54101 -7.5,-1.94449 z m 12.27844,-0.0665 -2.36079,-1.96673 4.86079,0.0222 c 3.27867,0.015 5.67449,0.65872 7.36078,1.97776 l 2.5,1.95553 -5,-0.011 c -3.49275,-0.008 -5.71166,-0.6039 -7.36078,-1.97776 z m 12.36078,0.0332 -3,-1.98682 4.72583,-0.007 c 2.97259,-0.004 5.94052,0.734 8,1.98967 l 3.27417,1.99626 -5,-0.003 c -3.3118,-0.002 -6.01292,-0.67368 -8,-1.98967 z m -223.47211,-6.54838 c 3.79953,-2.36525 6.68927,-3.41335 9.45424,-3.42903 l 3.98214,-0.0226 -3.80991,2.5889 c -2.09544,1.42389 -3.58153,2.81727 -3.30241,3.09639 0.27913,0.27912 2.5327,-0.88588 5.00795,-2.5889 3.28339,-2.25902 5.63912,-3.09638 8.71101,-3.09638 h 4.21055 l -4.35389,3.44535 c -4.34166,3.43569 -4.38339,3.44531 -14.86284,3.42904 l -10.50895,-0.0163 z m 17.97211,3.2179 c 0,-0.18176 1.98606,-1.75676 4.41348,-3.5 3.23494,-2.32316 5.50548,-3.16952 8.50288,-3.16952 h 4.0894 l -3.87408,3.5 c -3.25195,2.93794 -4.61741,3.5 -8.50288,3.5 -2.54584,0 -4.6288,-0.14872 -4.6288,-0.33048 z m 15.41661,-3.21115 c 3.22255,-2.84551 4.70941,-3.45837 8.39044,-3.45837 h 4.47384 l -3.39045,3.48935 c -2.99471,3.08208 -3.97403,3.48574 -8.39044,3.45838 l -5,-0.031 z m 11.68682,-0.0285 c 3.04639,-3.04638 4.13023,-3.52314 7.38852,-3.25 l 3.81841,0.3201 -2.74407,3.25 c -2.36942,2.80627 -3.37819,3.25 -7.38852,3.25 h -4.64444 z m 10.60394,0.0701 c 2.40397,-3.01287 3.38411,-3.49998 7.04263,-3.5 2.3375,-2e-5 4.25,0.268 4.25,0.5956 0,0.3276 -0.93064,1.9026 -2.06809,3.5 -1.80824,2.5395 -2.69315,2.90443 -7.04264,2.90443 h -4.97453 z m 11.14718,0.24997 c 1.75377,-2.77907 2.70985,-3.29416 6.5982,-3.55479 2.50099,-0.16764 4.54725,-0.12427 4.54725,0.0964 0,0.22064 -0.70796,1.82029 -1.57324,3.55479 -1.45223,2.91109 -1.95976,3.15366 -6.5982,3.15366 h -5.02496 z m 10.14545,2.7004 c 0,-0.30231 0.68656,-1.87731 1.52568,-3.5 1.34462,-2.6002 2.05668,-2.95034 6,-2.95034 2.46088,0 4.47432,0.15785 4.47432,0.35078 0,0.19292 -0.49402,1.76792 -1.09783,3.5 -1.03002,2.95472 -1.40058,3.14922 -6,3.14922 -2.69619,0 -4.90217,-0.24735 -4.90217,-0.54966 z m 12.26138,-2.95034 c 1.03815,-3.3826 1.23985,-3.5 6.01339,-3.5 4.09307,0 4.83522,0.27098 4.33222,1.58179 -0.33385,0.86998 -0.60699,2.44498 -0.60699,3.5 0,1.65441 -0.7435,1.91821 -5.4064,1.91821 h -5.4064 z m 11.10833,1.25 c 0.33164,-1.2375 0.60913,-2.8125 0.61664,-3.5 0.009,-0.82807 1.6676,-1.25 4.91365,-1.25 h 4.9 v 3.5 3.5 h -5.51663 c -5.23295,0 -5.48563,-0.1157 -4.91366,-2.25 z m 11.63029,-1.25 c 0,-3.46885 0.0391,-3.5 4.39301,-3.5 4.52543,0 5.60699,0.98025 5.60699,5.08179 0,1.63519 -0.73773,1.91821 -5,1.91821 h -5 z m 11.60699,1.91821 c -1.61673,-4.21312 -0.77262,-5.41821 3.79518,-5.41821 4.0386,0 4.49285,0.2601 5.5,3.14922 0.60381,1.73208 1.09783,3.30708 1.09783,3.5 0,0.19293 -2.20186,0.35078 -4.89301,0.35078 -3.5393,0 -5.06094,-0.43762 -5.5,-1.58179 z m 11.36826,-0.98331 c -1.53752,-4.04398 -1.24315,-4.4349 3.33954,-4.4349 3.94661,0 4.4572,0.29865 5.98382,3.5 l 1.66903,3.5 h -5.00857 c -4.45624,0 -5.11612,-0.28287 -5.98382,-2.5651 z m 10.72614,-0.9349 -1.66903,-3.5 h 4.41572 c 3.73268,0 4.73564,0.44926 6.48383,2.90437 1.13745,1.5974 2.06809,3.1724 2.06809,3.5 0,0.3276 -2.16665,0.59563 -4.81479,0.59563 -4.51803,0 -4.91765,-0.21572 -6.48382,-3.5 z m 11.50226,-0.0691 -2.29635,-3.54431 4.67571,0.30669 c 3.91612,0.25686 5.08167,0.83467 7.17451,3.55668 l 2.4988,3.25 -4.87816,-0.0124 c -4.4824,-0.0114 -5.06446,-0.29992 -7.17451,-3.55668 z m 11.36415,0.0691 -2.66958,-3.5 h 4.35472 c 3.664,0 4.8928,0.55515 7.74706,3.5 l 3.39233,3.5 h -5.07747 c -4.62768,0 -5.31398,-0.31006 -7.74706,-3.5 z m 11.4322,0 -3.39233,-3.5 h 4.32496 c 3.53823,0 5.02968,0.63667 8.19905,3.5 l 3.87408,3.5 h -4.80671 c -4.18056,0 -5.24862,-0.45593 -8.19905,-3.5 z m 11.41661,0.0416 -3.91661,-3.45838 4.053,-0.0416 c 2.99797,-0.0308 5.1455,0.76181 8.25,3.04488 2.30835,1.69758 4.197,3.27258 4.197,3.5 0,0.22742 -1.95003,0.41349 -4.33339,0.41349 -3.52084,0 -5.06779,-0.64847 -8.25,-3.45837 z m 11.78039,0.37186 c -2.30835,-1.69755 -4.197,-3.24416 -4.197,-3.43688 0,-0.19273 3.9375,-0.34288 8.75,-0.33368 7.98761,0.0153 9.22921,0.29294 14.25,3.18691 l 5.5,3.17019 -4.23717,0.30687 c -3.41788,0.24754 -5.12333,-0.30283 -8.82027,-2.84639 -2.52071,-1.73429 -4.8332,-2.90317 -5.13887,-2.59751 -0.30566,0.30567 1.07596,1.51849 3.07028,2.69517 1.99432,1.17668 3.62603,2.31996 3.62603,2.54064 0,0.22067 -1.93635,0.40122 -4.303,0.40122 -3.23471,0 -5.34496,-0.76627 -8.5,-3.08651 z M 401.7012,690.38946 c 1.06762,-0.8075 3.71464,-1.4825 5.88226,-1.5 3.67764,-0.0297 3.81135,0.0664 2,1.4364 -1.06762,0.8075 -3.71464,1.4825 -5.88226,1.5 -3.67764,0.0297 -3.81135,-0.0664 -2,-1.4364 z m 10,0 c 1.06762,-0.8075 3.74113,-1.46819 5.94113,-1.46819 3.73179,0 3.86984,0.0984 2.05887,1.46819 -1.06762,0.80751 -3.74113,1.4682 -5.94113,1.4682 -3.73179,0 -3.86984,-0.0984 -2.05887,-1.4682 z m 10.44113,-0.0318 c 0.72689,-0.87585 2.90928,-1.5 5.24489,-1.5 3.44217,0 3.82639,0.20919 2.75511,1.5 -0.72689,0.87585 -2.90928,1.5 -5.24489,1.5 -3.44217,0 -3.82639,-0.20919 -2.75511,-1.5 z m 10,0 c 0.72689,-0.87585 2.90928,-1.5 5.24489,-1.5 3.44217,0 3.82639,0.20919 2.75511,1.5 -0.72689,0.87585 -2.90928,1.5 -5.24489,1.5 -3.44217,0 -3.82639,-0.20919 -2.75511,-1.5 z m 10,0 c 0.76908,-0.92668 2.96484,-1.5 5.74489,-1.5 3.88662,0 4.33031,0.20446 3.25511,1.5 -0.76908,0.92668 -2.96484,1.5 -5.74489,1.5 -3.88662,0 -4.33031,-0.20446 -3.25511,-1.5 z m 11,0 c 0.71171,-0.85755 2.89219,-1.5 5.09106,-1.5 3.00798,0 3.72073,0.32689 3.27057,1.5 -0.39406,1.02689 -1.99982,1.5 -5.09106,1.5 -3.90036,0 -4.34588,-0.20433 -3.27057,-1.5 z m 9.94864,0.0619 c 1.60412,-1.93285 9.43141,-2.21006 8.80652,-0.31189 -0.23313,0.70819 -2.51183,1.38519 -5.25714,1.56189 -4.29671,0.27656 -4.69879,0.13495 -3.54938,-1.25 z m 10.29575,0.18811 c 0.22608,-0.6875 2.28858,-1.38837 4.58333,-1.5575 3.2421,-0.23894 4.17228,0.0397 4.17228,1.25 0,1.18345 -1.10073,1.5575 -4.58333,1.5575 -3.21923,0 -4.461,-0.37203 -4.17228,-1.25 z m 10,0 c 0.22608,-0.6875 2.28858,-1.38837 4.58333,-1.5575 3.2421,-0.23894 4.17228,0.0397 4.17228,1.25 0,1.18345 -1.10073,1.5575 -4.58333,1.5575 -3.21923,0 -4.461,-0.37203 -4.17228,-1.25 z m 10.39398,-0.25 c 0.39078,-1.01835 1.98621,-1.5 4.96862,-1.5 3.23823,0 4.39301,0.3943 4.39301,1.5 0,1.13207 -1.21874,1.5 -4.96862,1.5 -4.0057,0 -4.85706,-0.2907 -4.39301,-1.5 z m 10.36163,-10e-6 c 0,-1.11111 1.16667,-1.5 4.5,-1.5 3.33333,0 4.5,0.38889 4.5,1.5 0,1.11111 -1.16667,1.5 -4.5,1.5 -3.33333,0 -4.5,-0.38889 -4.5,-1.5 z m 10,0 c 0,-1.11111 1.16667,-1.5 4.5,-1.5 3.33333,0 4.5,0.38889 4.5,1.5 0,1.11111 -1.16667,1.5 -4.5,1.5 -3.33333,0 -4.5,-0.38889 -4.5,-1.5 z m 10.63837,0 c -0.45743,-1.19204 0.31987,-1.5 3.78603,-1.5 2.95451,0 4.54732,0.48392 4.93723,1.5 0.45743,1.19204 -0.31987,1.5 -3.78603,1.5 -2.95451,0 -4.54732,-0.48392 -4.93723,-1.5 z m 10,0 c -0.45743,-1.19204 0.31987,-1.5 3.78603,-1.5 2.95451,0 4.54732,0.48392 4.93723,1.5 0.45743,1.19204 -0.31987,1.5 -3.78603,1.5 -2.95451,0 -4.54732,-0.48392 -4.93723,-1.5 z m 11.0283,0.83333 c -1.63739,-1.63738 -0.34793,-2.42483 3.50561,-2.14083 5.52266,0.40702 6.44414,2.8075 1.07772,2.8075 -2.15417,0 -4.21667,-0.3 -4.58333,-0.66667 z m 9.9717,-0.83333 c -0.45016,-1.17311 0.26259,-1.5 3.27057,-1.5 2.19887,0 4.37935,0.64245 5.09106,1.5 1.07531,1.29567 0.62979,1.5 -3.27057,1.5 -3.09124,0 -4.697,-0.47311 -5.09106,-1.5 z m 10.36163,0 c -1.07128,-1.29081 -0.68706,-1.5 2.75511,-1.5 2.33561,0 4.518,0.62415 5.24489,1.5 1.07128,1.29081 0.68706,1.5 -2.75511,1.5 -2.33561,0 -4.518,-0.62415 -5.24489,-1.5 z m 10,0 c -1.07065,-1.29005 -0.70288,-1.49555 2.62756,-1.4682 2.12984,0.0175 4.74595,0.6925 5.81357,1.5 1.798,1.35994 1.60426,1.4682 -2.62756,1.4682 -2.8411,0 -5.03942,-0.5672 -5.81357,-1.5 z m 10.65655,0.0396 c -1.62173,-1.22878 -0.76101,-1.39677 7.15656,-1.39677 6.15784,0 9.58215,0.44109 10.84344,1.39677 1.67303,1.26764 1.45601,1.3997 -2.34753,1.42857 -2.30504,0.0175 -4.4691,-0.4182 -4.80902,-0.9682 -0.33992,-0.55 -1.06803,-1 -1.61803,-1 -0.55,0 -0.72189,0.45 -0.38197,1 0.95516,1.54549 -6.72371,1.14574 -8.84345,-0.46037 z m -179.65655,-2.91639 c 0,-1.22984 19.4086,-11.70299 21.19758,-11.43851 3.24773,0.48015 -14.20093,11.8153 -18.18777,11.8153 -1.65539,0 -3.00981,-0.16956 -3.00981,-0.37679 z m 17.49005,-5.6725 c 6.14394,-4.19249 9.63507,-5.95743 11.37378,-5.75 2.22492,0.26543 1.6427,0.94986 -5.14592,6.04929 -6.11994,4.59714 -8.40036,5.75 -11.37378,5.75 h -3.71909 z m 2.05995,5.22867 c 7.69563,-6.64754 14.63767,-11.17468 17.09179,-11.14613 2.74495,0.0319 2.60064,0.26838 -3.64179,5.96675 -5.60312,5.11478 -7.04503,5.93808 -10.45,5.96675 -2.1725,0.0183 -3.5225,-0.33603 -3,-0.78737 z m 15.45,-5.17938 c 4.79817,-4.37999 7.27136,-5.9422 9.44617,-5.96675 l 2.94616,-0.0332 -3.44616,3.66813 c -6.71135,7.1436 -8.33719,8.26872 -11.94617,8.26702 l -3.5,-0.002 z m 8.5,0 c 4.42533,-4.47199 6.6457,-6 8.7187,-6 1.52971,0 2.7813,0.26573 2.7813,0.59051 0,0.32478 -2.07966,3.02478 -4.62147,6 -4.19802,4.91383 -4.9969,5.40949 -8.7187,5.40949 h -4.09722 z m 6.17742,3.72176 c 7.47144,-9.33934 7.88726,-9.7217 10.57258,-9.72173 1.5125,-2e-5 2.75,0.23189 2.75,0.51535 0,0.28347 -1.63871,2.98347 -3.64158,6 -3.38516,5.09843 -3.91838,5.48462 -7.57258,5.48462 h -3.931 z m 9.44801,0.0282 c 3.81981,-7.18735 6.1873,-9.75 9.00746,-9.75 1.57691,0 2.86711,0.17062 2.86711,0.37916 0,0.20853 -1.15799,2.90853 -2.57331,6 -2.49461,5.44895 -2.69446,5.62084 -6.53518,5.62084 -3.79626,0 -3.91189,-0.0941 -2.76608,-2.25 z m 8.87457,1.68596 c 0,-0.31024 1.1189,-3.01024 2.48644,-6 2.20866,-4.82862 2.82312,-5.43592 5.5,-5.43592 3.50807,0 3.53741,0.14833 1.36165,6.88517 -1.60862,4.9808 -1.75274,5.11483 -5.5,5.11483 -2.11645,0 -3.84809,-0.25383 -3.84809,-0.56408 z m 11.15738,-5.43592 c 1.91819,-5.68007 2.1988,-6 5.26275,-6 h 3.23653 l -0.96627,6 -0.96627,6 h -4.29649 -4.29648 z m 8.35492,2.25 c 1.33066,-8.27625 1.31539,-8.25 4.80083,-8.25 h 3.27503 l 0.11889,6 0.11888,6 h -4.45828 -4.45828 z m 9.4877,-2.25 c 0,-5.97324 0.0131,-6 2.94098,-6 3.55261,0 3.64695,0.14031 4.53853,6.75 l 0.70817,5.25 h -4.09384 -4.09384 z m 9.67335,5.25 c -0.24458,-0.4125 -0.76776,-3.14449 -1.16263,-6.07109 l -0.71795,-5.32108 3.25946,0.32108 c 2.71325,0.26728 3.46077,0.90761 4.46077,3.82109 2.93521,8.55175 3.03084,8 -1.3866,8 -2.2046,0 -4.20847,-0.3375 -4.45305,-0.75 z m 8.00927,-4.58789 c -2.16003,-6.8524 -2.19724,-6.66211 1.30298,-6.66211 2.64588,0 3.33025,0.68274 6.0144,6 l 3.02879,6 h -4.33177 -4.33178 z m 9.0257,-0.18426 c -1.48958,-3.03719 -2.70832,-5.73719 -2.70832,-6 0,-0.26282 1.28629,-0.47785 2.85842,-0.47785 2.35447,0 3.50044,0.96696 6.5,5.48462 2.00287,3.01653 3.64158,5.71653 3.64158,6 0,0.28346 -1.70626,0.51538 -3.79168,0.51538 -3.60419,0 -3.9256,-0.27306 -6.5,-5.52215 z m 9.04168,0.0961 c -2.0625,-2.97125 -3.75,-5.66592 -3.75,-5.98812 0,-0.32221 1.29579,-0.58583 2.87954,-0.58583 2.73208,0 4.71873,1.8698 11.42181,10.75 0.71529,0.94762 0.007,1.24713 -2.92891,1.23815 -3.55107,-0.0109 -4.18365,-0.46018 -7.62244,-5.41417 z m 8.92342,-0.32398 -4.6709,-5.75 2.65704,-0.3317 c 2.13076,-0.266 3.86166,0.87292 8.73874,5.75 l 6.0817,6.08173 h -4.06784 c -3.74393,0 -4.43977,-0.45785 -8.73874,-5.75 z m 8.82658,-0.24997 c -5.91575,-5.97813 -5.92657,-5.99994 -2.9687,-5.98262 2.18846,0.0128 4.75789,1.58975 9.7763,6 l 6.80761,5.98262 h -3.83891 c -3.36562,0 -4.57091,-0.73972 -9.7763,-6 z m 9.08239,0.25 c -6.36506,-5.33835 -6.67071,-5.77231 -4.26934,-6.06158 1.88043,-0.22652 4.64772,1.23979 10.13675,5.37116 4.15261,3.12551 7.5502,5.85322 7.5502,6.06158 0,0.20836 -1.47639,0.37884 -3.28086,0.37884 -2.53253,0 -4.8446,-1.3115 -10.13675,-5.75 z m 9.04057,0 c -6.91162,-5.11202 -7.49358,-5.78461 -5.24518,-6.06192 1.72566,-0.21285 5.00561,1.33931 10.32561,4.88634 10.21793,6.81264 10.31896,6.92558 6.19518,6.92558 -2.6946,0 -5.29285,-1.32498 -11.27561,-5.75 z m 8.46263,-0.065 c -6.77732,-4.57891 -7.9814,-5.74869 -6.18878,-6.01253 1.36789,-0.20133 6.15225,2.01016 12.4144,5.73835 10.09101,6.0077 10.1504,6.06541 6.18879,6.01253 -3.16169,-0.0422 -5.76348,-1.24483 -12.41441,-5.73835 z"
       id="path1" />
  </g>
</svg>
