<?xml version="1.0" encoding="UTF-8" standalone="no"?>
<!-- Created with Inkscape (http://www.inkscape.org/) -->

<svg
   version="1.1"
   id="svg1"
   width="1189.3333"
   height="1189.3333"
   viewBox="0 0 1189.3333 1189.3333"
   xmlns="http://www.w3.org/2000/svg"
   xmlns:svg="http://www.w3.org/2000/svg">
  <defs
     id="defs1" />
  <g
     id="g1">
    <path
       style="fill:#00aad4"
       d="m 8.602497,1186.8185 c 0.32008,-0.5179 7.41829,-7.0072 15.77381,-14.4208 l 15.19185,-13.4792 25.15293,0.024 25.15294,0.024 -15.33334,14.643 -15.33333,14.643 -25.59341,-0.246 c -14.07637,-0.1353 -25.33152,-0.6697 -25.01145,-1.1876 z m 56.60486,0.9753 c 0,-0.252 6.45,-6.8448 14.33333,-14.6507 l 14.33334,-14.1925 25.000003,-0.016 c 13.74999,-0.01 24.99999,0.3487 24.99999,0.7945 0,0.4457 -5.774,7.0457 -12.83112,14.6666 l -12.83113,13.8563 H 91.709567 c -14.57622,0 -26.50221,-0.2062 -26.50221,-0.4581 z m 60.162243,-1.8753 c 1.00215,-1.2833 6.87005,-7.8833 13.03979,-14.6666 l 11.21771,-12.3334 h 25.12346 c 13.8179,0 25.12346,0.3238 25.12346,0.7195 0,0.9292 -20.22122,26.3023 -21.99075,27.5934 -0.73842,0.5388 -13.26605,0.9888 -27.83917,1 -25.04168,0.019 -26.39654,-0.1077 -24.6745,-2.3129 z m 58.12796,0.6667 c 0.70586,-0.9167 5.94483,-7.5167 11.64214,-14.6667 l 10.35875,-13 h 25.18778 c 13.85328,0 25.18779,0.343 25.18779,0.7622 0,0.4192 -4.3141,7.0192 -9.58689,14.6666 l -9.58689,13.9046 H 209.4572 c -21.59001,0 -26.97672,-0.3459 -25.95964,-1.6667 z m 59.04312,0.6516 c 0,-0.6693 4.21934,-7.3147 9.3763,-14.7676 l 9.37631,-13.5507 h 25.29036 c 13.9097,0 25.29036,0.2404 25.29036,0.5341 0,0.2938 -3.58641,6.7846 -7.9698,14.4239 l -7.96979,13.8898 -26.69687,0.3437 c -15.45697,0.199 -26.69687,-0.1687 -26.69687,-0.8732 z m 59.74871,-1.6021 c 0.42928,-1.1272 3.82653,-7.4495 7.54945,-14.0495 l 6.76894,-12 25.63311,-0.3621 c 14.09822,-0.1992 25.63312,-0.1115 25.63312,0.1949 0,0.3063 -2.99521,6.9713 -6.65602,14.8111 l -6.65602,14.254 -26.52655,-0.3995 c -23.2099,-0.3495 -26.42895,-0.6557 -25.74603,-2.4489 z m 57.80684,1.5177 c 0.24445,-0.6047 3.12927,-7.2047 6.41073,-14.6667 l 5.96628,-13.5672 h 25.84303 c 20.11025,0 25.70798,0.3697 25.23421,1.6667 -0.33485,0.9167 -2.58267,7.5167 -4.99516,14.6667 l -4.38633,13 h -27.2586 c -14.99223,0 -27.0586,-0.4948 -26.81416,-1.0995 z m 58.9003,-0.5672 c 0.37295,-0.9167 2.65054,-7.5167 5.06132,-14.6667 l 4.38322,-13 h 25.85912 c 20.1386,0 25.718,0.3687 25.22124,1.6667 -0.35083,0.9167 -1.98898,7.5167 -3.64035,14.6667 l -3.00247,13 h -27.28008 c -21.29682,0 -27.13136,-0.3656 -26.602,-1.6667 z m 58.56337,0 c 0.35083,-0.9167 1.98899,-7.5167 3.64035,-14.6667 l 3.00248,-13 h 25.92548 c 24.04864,0 25.87863,0.1689 25.27819,2.3334 -0.35602,1.2833 -1.02817,5.9333 -1.49368,10.3333 -0.46552,4.4 -1.18144,9.95 -1.59094,12.3333 l -0.74456,4.3334 h -27.32759 c -21.31339,0 -27.18722,-0.3668 -26.68973,-1.6667 z m 60.20602,-7.8818 c 0.50956,-5.3817 1.26901,-12.0349 1.68768,-14.7849 l 0.76122,-5 h 25.97224 c 23.13549,0 25.88384,0.2304 25.16292,2.1091 -0.44513,1.1599 -0.80932,7.6312 -0.80932,14.3805 v 12.2715 l -26.8506,0.4044 -26.8506,0.4044 z m 58.10807,-5.4383 v -14.4042 l 25.33546,0.3622 c 13.9345,0.1991 25.42681,0.6621 25.53846,1.0288 1.19607,3.9278 2.98405,27.009 2.13299,27.535 -0.61983,0.3831 -12.79995,0.5134 -27.06694,0.2895 l -25.93997,-0.4071 z m 58.24627,9.9868 c -0.41867,-2.75 -1.17419,-9.3633 -1.67892,-14.6961 l -0.91771,-9.6961 25.73953,0.3628 25.73952,0.3627 2.40618,11.3333 c 1.32339,6.2334 2.73087,12.6834 3.12772,14.3334 l 0.72154,3 H 682.0698 654.88148 Z m 56.68856,-8.0137 c -1.61416,-7.1575 -2.93484,-13.7705 -2.93484,-14.6955 0,-1.3073 5.65239,-1.6011 25.38281,-1.3196 l 25.3828,0.3621 4.61719,13.7652 c 2.53946,7.5708 4.6172,14.0208 4.6172,14.3333 0,0.3125 -12.17932,0.5682 -27.06516,0.5682 h -27.06516 z m 60.88599,9.347 c -0.79558,-2.0167 -3.14268,-8.6167 -5.21579,-14.6667 l -3.76928,-11 h 25.72502 25.72502 l 5.48814,12.4648 c 3.01849,6.8557 5.86837,13.4557 6.33309,14.6667 0.76824,2.002 -1.59158,2.2019 -25.99738,2.2019 h -26.84232 z m 56.03286,-5.2178 c -2.27616,-5.0136 -5.25307,-11.6655 -6.61536,-14.7822 l -2.4769,-5.6667 h 25.63171 25.63171 l 7.65424,13.8174 c 4.20983,7.5996 7.65424,14.0708 7.65424,14.3806 0,0.3097 -12.00177,0.7439 -26.67059,0.9648 l -26.67059,0.4016 z m 61.75726,6.3114 c -0.74782,-1.9867 -6.92233,-13.0068 -12.56576,-22.4269 l -2.59602,-4.3334 h 25.78607 25.78607 l 8.656,12.8342 c 4.7608,7.0587 9.1613,13.7043 9.7789,14.7678 0.9684,1.6677 -2.6724,1.8868 -26.4672,1.5928 -23.64341,-0.2921 -27.70275,-0.6404 -28.37806,-2.4345 z m 50.92576,-11.0936 c -5.0619,-7.5167 -9.4034,-14.1167 -9.6478,-14.6667 -0.2445,-0.55 11.1555,-0.9569 25.3333,-0.9043 l 25.7778,0.096 10.6666,13.5635 c 5.8667,7.46 10.86671,14.0169 11.11111,14.5711 0.2445,0.5541 -11.81401,1.0075 -26.79661,1.0075 h -27.2411 z m 57.5581,-0.3312 c -6.2855,-7.6989 -11.4282,-14.2989 -11.4282,-14.6667 0,-0.3678 11.55,-0.6367 25.66671,-0.5975 l 25.6667,0.071 12,13.4975 c 6.6,7.4236 12.2,13.9915 12.4444,14.5953 0.2444,0.6039 -11.5629,1.098 -26.2384,1.098 h -26.6829 z m 65.19781,8.3312 c -2.7597,-3.1167 -8.5295,-9.3544 -12.8218,-13.8616 -4.2923,-4.5072 -7.8042,-8.5572 -7.8042,-9 0,-0.4428 11.2658,-0.8051 25.035,-0.8051 h 25.0349 l 15.2984,14.6184 15.2984,14.6184 -27.5115,0.048 -27.5115,0.048 z m 49.1537,-9.0307 -14.887,-14.636 24.887,0.01 24.887,0.01 10,8.8649 c 5.5,4.8756 12.9149,11.471 16.4775,14.6562 l 6.4776,5.7915 -26.4776,-0.031 -26.4775,-0.031 z M 45.207357,1154.4324 c 0,-0.2674 6.53856,-6.2674 14.53013,-13.3333 l 14.53012,-12.8472 h 23.11152 23.111533 l -13.2833,13.3333 -13.283303,13.3333 h -24.35835 c -13.39709,0 -24.35835,-0.2187 -24.35835,-0.4861 z m 66.127743,-12.8639 13.46107,-13.3166 h 23.53892 c 12.94641,0 23.53893,0.3519 23.53893,0.782 0,0.4301 -5.19444,6.4301 -11.5432,13.3333 l -11.54321,12.5513 -25.45679,-0.017 -25.456793,-0.017 z m 43.23921,12.35 c 0.0185,-0.55 5.2685,-6.5815 11.66667,-13.4034 l 11.63304,-12.4034 23.54016,0.4034 23.54015,0.4034 -7.96893,10 c -4.38292,5.5 -9.12202,11.35 -10.53134,13 -2.48616,2.9108 -3.29662,3 -27.23789,3 -13.57151,0 -24.66035,-0.45 -24.64186,-1 z m 55.56679,-0.7815 c 0.58644,-0.9799 5.2131,-6.9799 10.28148,-13.3334 l 9.21522,-11.5517 h 23.78477 c 13.08163,0 23.78478,0.2381 23.78478,0.5292 0,0.2911 -3.93427,6.2911 -8.74283,13.3334 l -8.74282,12.804 h -25.32343 c -20.77273,0 -25.13182,-0.3201 -24.25717,-1.7815 z m 55.06625,0.8771 c 0,-0.5298 3.67928,-6.543 8.17617,-13.3628 l 8.17618,-12.3994 h 23.82382 c 13.1031,0 23.79484,0.45 23.75942,1 -0.0354,0.55 -3.21827,6.4 -7.073,13 l -7.00859,12 -24.927,0.3627 c -13.70985,0.1995 -24.927,-0.071 -24.927,-0.6005 z m 54.73106,-0.096 c 0.0354,-0.55 3.21745,-6.4 7.07117,-13 l 7.00676,-12 24.27923,-0.6666 c 15.91706,-0.4371 24.09497,-0.2075 23.74425,0.6666 -0.29424,0.7334 -3.08738,6.8834 -6.20697,13.6667 l -5.672,12.3333 h -25.14342 c -13.82888,0 -25.11444,-0.45 -25.07902,-1 z m 58.08358,-6.6379 c 1.91023,-4.2325 4.62521,-10.3954 6.03329,-13.6954 l 2.56014,-6 24.03384,0.392 24.03385,0.3921 -0.91559,2.9413 c -0.50357,1.6177 -2.56192,7.4413 -4.57413,12.9413 l -3.65855,10 -25.49299,0.3621 -25.493,0.3621 z m 52.51868,6.6706 c 0,-0.5643 1.84086,-6.5517 4.0908,-13.3052 l 4.09081,-12.2792 23.91078,-0.3908 c 20.58205,-0.3364 23.8937,-0.1124 23.78806,1.6092 -0.0675,1.1 -1.41821,7.1 -3.00159,13.3333 l -2.87886,11.3334 -25,0.3627 c -13.75,0.1995 -25,-0.099 -25,-0.6634 z m 55.12796,-1.986 c 0.42477,-1.6243 1.78154,-7.6243 3.01504,-13.3333 l 2.24274,-10.38 h 23.99125 23.99126 l -0.88791,9 c -0.48836,4.95 -1.23799,10.95 -1.66585,13.3333 l -0.77794,4.3333 h -25.34045 -25.34045 z m 55.41165,2.3818 c -0.34566,-0.3456 -0.008,-6.2085 0.75002,-13.0285 l 1.3785,-12.4 5.99926,-0.3082 c 3.2996,-0.1696 14.26945,-0.4696 24.37744,-0.6667 l 18.37818,-0.3584 -0.37818,13.3333 -0.37817,13.3334 -24.74928,0.3618 c -13.6121,0.199 -25.0321,0.079 -25.37777,-0.2667 z m 54.89898,-14.5339 c 0.0579,-8.192 0.40789,-14.1446 0.77777,-13.2279 0.50164,1.2432 6.53346,1.6667 23.73941,1.6667 h 23.06689 l 0.89478,9 c 0.49212,4.95 1.23287,10.9717 1.6461,13.3815 l 0.75132,4.3816 -25.49077,-0.1537 -25.49077,-0.1537 z m 54.13451,8.7721 c -0.42373,-3.4833 -1.15274,-9.6439 -1.62002,-13.6901 l -0.84959,-7.3568 23.95492,-0.4274 23.95492,-0.4275 2.15161,9.7842 c 1.18338,5.3814 2.53038,11.7343 2.99332,14.1176 l 0.84172,4.3333 H 676.21243 650.8842 Z m 55.77855,4.6667 c -0.6435,-1.8995 -6.01833,-24.9158 -6.01833,-25.772 0,-0.3088 10.72683,-0.5614 23.8374,-0.5614 h 23.83741 l 4.60731,13.3331 c 2.53402,7.3332 4.30719,13.6332 3.94037,14 -0.36682,0.3668 -11.68577,0.6669 -25.15323,0.6669 -18.399,0 -24.62666,-0.4143 -25.05093,-1.6666 z m 55.30155,1.3333 c -0.007,-0.1833 -2.1074,-6.3272 -4.66667,-13.653 -2.55927,-7.3258 -4.65322,-13.4893 -4.65322,-13.6967 0,-0.2074 10.82183,-0.2136 24.0485,-0.014 l 24.04851,0.3634 5.95149,13.2161 c 3.27332,7.2689 5.9515,13.4189 5.9515,13.6667 0,0.5125 -50.65944,0.6297 -50.68011,0.1172 z m 49.23611,-13.3333 -6.09867,-13.6667 23.438,-0.6667 23.438,-0.6666 7.6483,13.3333 c 4.20657,7.3333 7.65657,13.7833 7.66667,14.3333 0.0101,0.55 -11.23434,1 -24.98764,1 h -25.00599 z m 54.05404,0 c -4.2192,-7.5167 -7.82647,-13.9667 -8.01616,-14.3334 -0.18968,-0.3666 10.53413,-0.3666 23.8307,0 l 24.17553,0.6667 9.0333,13.0908 c 4.9683,7.1999 9.0332,13.3499 9.0332,13.6667 0,0.3167 -11.3367,0.5758 -25.19262,0.5758 H 872.1553 Z m 53.03507,-0.3334 -9.5702,-14 24.2958,0.055 24.2959,0.055 10,12.8761 c 5.5,7.0819 10.2,13.357 10.4445,13.9446 0.2444,0.5876 -10.8821,1.0684 -24.7257,1.0684 h -25.1701 z m 54.4204,0.7476 c -5.9027,-7.2888 -10.7322,-13.5888 -10.7322,-14 0,-0.4112 10.65,-0.7472 23.6667,-0.7468 l 23.66661,7e-4 8,8.9887 c 4.4,4.9438 10.0198,11.2435 12.4885,13.9993 l 4.4885,5.0105 h -25.423 -25.42291 z m 57.14021,3.5858 c -4.8054,-5.3167 -10.5742,-11.7667 -12.8196,-14.3334 l -4.0825,-4.6666 24.2603,0.3884 24.2602,0.3884 13.8974,13.9449 13.8975,13.9449 h -25.3382 -25.3382 z m 49.4943,-4.2999 -13.919,-13.9665 22.6095,-0.3668 22.6095,-0.3668 13.3677,11.5646 c 7.3522,6.3606 14.4952,12.8106 15.8733,14.3333 l 2.5056,2.7687 h -24.5638 -24.5638 z M 85.874027,1118.0843 c 3.66666,-3.3265 9.73135,-8.6996 13.47708,-11.9403 l 6.810423,-5.8921 21.85625,0.036 21.85624,0.036 -12.26259,11.9644 -12.26258,11.9643 -23.07075,-0.06 -23.070743,-0.06 z m 56.224153,-6.0576 11.72024,-11.7748 h 22.51413 22.51412 l -10.48632,11.3359 -10.48633,11.336 -23.74804,0.4388 -23.74805,0.4389 z m 44.15105,6.2252 c 2.71425,-2.9334 7.61764,-8.1834 10.89644,-11.6667 l 5.96144,-6.3333 h 22.42754 22.42753 l -9.15306,11.3735 -9.15306,11.3735 -24.17091,0.2932 -24.17092,0.2931 z m 32.95812,-7.3334 c 1.97892,-2.1867 2.05331,-2.6666 0.4133,-2.6666 -1.1,0 -3.08598,1.2 -4.4133,2.6666 -1.97892,2.1867 -2.05331,2.6667 -0.4133,2.6667 1.1,0 3.08599,-1.2 4.4133,-2.6667 z m 15.21009,11.3334 c 0.541,-0.7334 4.72859,-5.9834 9.30575,-11.6667 l 8.32212,-10.3333 h 22.64796 22.64796 l -7.95113,11.3958 -7.95113,11.3958 -24.00259,0.2709 c -15.81438,0.1784 -23.66702,-0.1841 -23.01894,-1.0625 z m 53.20113,-2.1339 c 1.24049,-1.907 4.65544,-7.1517 7.58878,-11.655 l 5.33333,-8.1878 22.33333,-0.012 c 12.28333,-0.01 22.33333,0.3856 22.33333,0.8712 0,0.4855 -2.74186,5.5597 -6.09303,11.2758 l -6.09303,10.3931 -23.82908,0.3908 -23.82908,0.3908 z m 308.35897,-7.8661 -0.10697,-12.6667 22.66838,0.3941 22.66837,0.3941 v 3.077 c 0,1.6923 0.38841,6.7931 0.86314,11.335 l 0.86313,8.258 -22.86503,-0.3958 c -14.36244,-0.2486 -23.07309,0.1001 -23.42454,0.9376 -0.30773,0.7333 -0.60764,-4.3667 -0.66648,-11.3333 z m -254.7174,3.6666 c 2.2587,-3.85 5.08197,-8.95 6.27392,-11.3333 l 2.16718,-4.3333 h 22.41972 c 12.33084,0 22.41971,0.3232 22.41971,0.7184 0,0.3951 -2.18349,5.4951 -4.85221,11.3333 l -4.85222,10.6149 H 360.99482 337.1534 Z m 48.16942,5.9193 c 0.24445,-0.5944 2.50288,-5.6944 5.01874,-11.3333 l 4.57429,-10.2526 h 22.42571 c 12.33413,0 22.4257,0.4262 22.4257,0.9471 0,0.5209 -1.65,5.6194 -3.66666,11.3299 l -3.66667,10.3827 h -23.77778 c -13.07777,0 -23.57777,-0.4829 -23.33333,-1.0773 z m 51.76473,0.1115 c -0.007,-0.5669 1.63253,-5.6808 3.64379,-11.3641 l 3.65684,-10.3333 h 22.35621 c 12.29591,0 22.33101,0.45 22.30022,1 -0.0308,0.55 -1.1395,5.5 -2.46379,11 l -2.4078,10 -23.53621,0.3641 c -12.94492,0.2002 -23.54209,-0.1 -23.54926,-0.6667 z m 28.01304,-8.9217 c 0,-0.3067 0.3642,-1.5067 0.80932,-2.6667 0.53109,-1.384 0.0727,-2.109 -1.33333,-2.109 -1.17846,0 -2.14265,0.2509 -2.14265,0.5576 0,0.3067 -0.3642,1.5067 -0.80932,2.6666 -0.53108,1.384 -0.0727,2.1091 1.33333,2.1091 1.17846,0 2.14265,-0.2509 2.14265,-0.5576 z m 24.78587,1.5576 c 1.03549,-4.5833 2.1937,-9.6833 2.57382,-11.3333 0.6835,-2.967 0.94188,-3 23.44958,-3 h 22.75846 l -0.74818,5 c -0.4115,2.75 -1.13236,7.85 -1.60192,11.3333 l -0.85375,6.3333 H 515.84086 492.1105 Z m 50.5364,2 c 0.45045,-3.4833 1.13995,-8.5833 1.53223,-11.3333 l 0.71323,-5 h 22.54946 22.54947 v 11.3333 11.3333 H 567.7923 543.7106 Z m 101.19567,-5 -1.24535,-11.3333 h 22.7999 22.79989 l 1.56793,8.3333 c 0.86236,4.5833 1.93605,9.6833 2.38598,11.3333 l 0.81805,3 h -23.94053 -23.94053 z m 50.80043,1 c -1.25546,-5.6833 -2.55997,-10.7977 -2.89892,-11.3652 -0.33895,-0.5676 9.72298,-0.8676 22.35986,-0.6667 l 22.97613,0.3652 3.12227,9.2597 c 1.71725,5.0929 3.12228,10.0429 3.12228,11 0,1.3649 -5.00539,1.7403 -23.19949,1.7403 h -23.1995 z m 24.43074,-1.318 c -0.24553,-1.2749 -1.44249,-2.5099 -2.65991,-2.7443 -1.65049,-0.3179 -2.03096,0.2717 -1.49585,2.318 0.87371,3.341 4.79455,3.7432 4.15576,0.4263 z m 28.88564,9.9847 c -0.33819,-0.9167 -2.08839,-6.0307 -3.88933,-11.3646 l -3.27446,-9.6978 22.68492,0.3645 22.68491,0.3645 4.5796,10.3875 c 2.51877,5.7131 4.57959,10.6631 4.57959,11 0,0.3369 -10.51883,0.6125 -23.37518,0.6125 -17.48331,0 -23.53016,-0.4201 -23.99005,-1.6666 z m 48.84632,-5.3334 c -1.67649,-3.85 -3.90956,-8.9642 -4.96239,-11.3649 l -1.91424,-4.365 22.80009,0.365 22.8001,0.3649 6.0112,11 6.0112,11 h -23.8489 -23.8489 z m 48.91991,-4.0931 c -3.41447,-5.9827 -6.07845,-11.0072 -5.91996,-11.1657 0.1585,-0.1585 10.16107,-0.372 22.22794,-0.4744 l 21.93977,-0.1862 7.74556,11.5091 7.74557,11.5091 -23.76538,-0.1572 -23.76538,-0.1572 z m 50.26745,0.3134 c -4.15444,-5.9288 -7.33131,-11.0019 -7.05972,-11.2735 0.2716,-0.2716 10.30055,-0.577 22.28655,-0.6787 l 21.7927,-0.185 8.4381,10.4585 c 4.641,5.7521 8.4612,10.9084 8.4894,11.4584 0.028,0.55 -10.3989,1 -23.1712,1 h -23.2223 z m 51.01523,0.6352 c -4.5927,-5.5795 -8.7463,-10.8295 -9.2302,-11.6667 -0.6473,-1.1198 5.1476,-1.4513 21.9258,-1.2543 l 22.8056,0.2678 9.7409,10.9113 c 5.3575,6.0013 9.74091,11.1307 9.74091,11.3989 0,0.2681 -10.49241,0.4875 -23.31631,0.4875 h -23.3163 z m 22.983,-1.8555 c -0.785,-1.4666 -2.3272,-2.6666 -3.4272,-2.6666 -1.5868,0 -1.7052,0.5509 -0.5728,2.6666 0.7849,1.4667 2.3271,2.6667 3.4271,2.6667 1.5869,0 1.7052,-0.5509 0.5729,-2.6667 z m 28,2.4221 c -13.8255,-15.238 -15.0248,-13.8123 11.24201,-13.3646 l 22.9312,0.3908 11.2173,11.2759 11.2173,11.2758 -23.9706,-0.013 -23.9706,-0.013 z m 48.81241,-1.7551 -11.8542,-11.2028 21.7458,-0.3988 21.7457,-0.3987 12.4418,11.1022 c 6.843,6.1062 12.4418,11.3562 12.4418,11.6667 0,0.3104 -10.05,0.5351 -22.3333,0.4993 l -22.3334,-0.065 z m -927.18013,-25.2882 11.03442,-9.9545 20.6333,-0.045 20.63329,-0.045 -9.93326,10 -9.93326,10 h -21.73445 -21.73446 z m 46.42457,-0.081 10.03532,-10.0353 21.03259,0.3687 21.03259,0.3686 -8.41199,9.568 -8.412,9.5679 -22.65591,0.099 -22.65591,0.099 z m 47.32007,0.035 8.94996,-10 h 21.24551 c 24.14879,0 22.73278,-1.4918 11.77853,12.4086 l -5.98243,7.5914 h -22.47076 -22.47076 z m 40.62311,9.2622 c 0,-0.4058 3.36758,-4.9058 7.48351,-10 l 7.48352,-9.2622 h 21.26184 c 16.64083,0 21.04983,0.3622 20.28637,1.6666 -0.53651,0.9167 -3.62459,5.4167 -6.86239,10 l -5.88693,8.3334 h -21.88296 c -12.03563,0 -21.88296,-0.332 -21.88296,-0.7378 z m 54.62368,-9.1986 6.70496,-9.9363 21.33752,-0.397 c 11.73564,-0.2183 21.33669,-0.2276 21.33568,-0.021 -10e-4,0.2069 -2.55185,4.8506 -5.66852,10.3191 l -5.66666,9.9428 -22.37397,0.014 -22.37396,0.014 z m 42.73574,8.9364 c 0.0144,-0.55 2.29509,-4.9 5.06831,-9.6667 l 5.0422,-8.6667 21.60065,-0.6666 c 11.88037,-0.3667 21.59963,-0.6012 21.59837,-0.5211 -0.001,0.08 -2.12047,4.73 -4.70934,10.3333 l -4.70704,10.1878 h -21.95962 c -12.0778,0 -21.94788,-0.45 -21.93353,-1 z m 48.19612,-0.069 c 0.24445,-0.5876 2.21624,-5.0607 4.38176,-9.9402 l 3.93732,-8.8718 21.50265,-0.3931 21.50265,-0.3931 -3.3896,10.3333 -3.3896,10.3334 h -22.49481 c -12.37215,0 -22.29481,-0.4808 -22.05037,-1.0685 z m 49.11111,0.1631 c 0,-0.498 1.29543,-4.9276 2.87873,-9.8436 l 2.87873,-8.9382 20.78794,-0.6097 c 11.43336,-0.3353 21.0054,-0.4383 21.27119,-0.2287 0.26579,0.2095 -0.52514,4.9135 -1.75762,10.4533 l -2.24087,10.0723 h -21.90905 c -12.04998,0 -21.90905,-0.4075 -21.90905,-0.9054 z m 47.98291,-0.095 c -0.009,-0.55 1.0003,-5.35 2.24379,-10.6667 l 2.26088,-9.6667 h 21.22045 21.22046 l -0.89353,8.3334 c -1.52529,14.2253 0.7487,13 -24.12482,13 -12.05058,0 -21.91783,-0.45 -21.92723,-1 z m 48.58823,-2 c 0.34207,-1.65 0.99668,-6.45 1.45468,-10.6667 l 0.83272,-7.6667 h 21.23739 21.23739 v 10.6667 10.6667 h -22.69207 -22.69206 z m 48.76218,-7.6667 v -10.6667 h 21.33333 21.33334 v 4.4806 c 0,2.4643 0.38155,7.2643 0.84789,10.6667 l 0.8479,6.1861 h -22.18123 -22.18123 z m 47.3833,3.1932 c -0.47128,-4.3229 -1.13675,-9.2099 -1.47882,-10.8599 l -0.62195,-3 h 21.30734 21.30734 l 1.30332,5 c 0.71683,2.75 1.70673,7.25 2.19978,10 l 0.89646,5 -9.14839,0.01 c -5.03161,0 -14.94435,0.3908 -22.0283,0.8599 l -12.87992,0.853 z m 141.55098,-3.4933 -4.67887,-10.3002 20.87229,-0.3665 20.87229,-0.3665 2.07737,3.3333 c 1.14255,1.8333 3.95077,6.6333 6.24047,10.6667 l 4.1631,7.3333 h -22.43389 -22.43388 z m 50.15251,4.3001 c -1.89079,-3.3 -4.60776,-7.95 -6.03771,-10.3333 l -2.59992,-4.3334 h 21.40145 21.40144 l 6.70597,9.9378 6.70597,9.9379 -22.0697,0.3955 -22.0697,0.3955 z m 218.24652,5.6686 -22,-0.4022 -9.7053,-9.6332 -9.7052,-9.6332 19.7052,-0.6667 19.7053,-0.6666 7.7849,6.6666 c 12.0277,10.3 17.6117,15.2568 16.8818,14.9854 -0.3667,-0.1363 -10.5667,-0.4289 -22.6667,-0.6501 z m -362.54937,-8.0019 c -0.90223,-4.2167 -1.93814,-8.7167 -2.30203,-10 -0.61033,-2.1525 0.98964,-2.3334 20.64108,-2.3334 h 21.3027 l 3.3622,10 3.36221,10 h -22.36288 -22.36288 z m 49.89823,6.3584 c -1.08739,-1.7595 -6.01551,-16.1511 -6.01551,-17.5672 0,-0.6185 9.50899,-1.1246 21.13108,-1.1246 h 21.13108 l 2.0468,5 c 1.12575,2.75 3.02481,7.25 4.22015,10 l 2.17334,5 h -21.9392 c -12.90738,0 -22.27206,-0.5385 -22.74774,-1.3082 z m 139.31781,-7.6084 c -3.3,-4.8577 -6.2,-9.3387 -6.44444,-9.9578 -0.24445,-0.6191 9.06346,-1.1256 20.68423,-1.1256 h 21.12863 l 5.9825,7.5914 c 10.963,13.9116 12.5299,12.4144 -12.942,12.3664 l -22.40892,-0.042 z m 46.75292,-1.0834 -8.1076,-10 h 21.4422 21.4422 l 6.9018,7.5353 c 12.4753,13.6202 13.5499,12.4647 -11.5924,12.4647 h -21.9787 z m 47.4661,0 -9.0569,-10 h 20.856 20.85611 l 9.8722,9 c 5.4297,4.95 9.883,9.45 9.8962,10 0.013,0.55 -9.7389,1 -21.6713,1 h -21.69531 z m -826.21897,-21.8821 10,-9.3351 20,-0.036 20,-0.036 -9.33333,9.0184 -9.33334,9.0184 -20.66666,0.3524 -20.66667,0.3524 z m 43.66193,-0.4147 9.00474,-8.9635 20.4179,-0.037 20.41791,-0.036 -8.41791,9.4473 -8.41791,9.4472 -21.00473,-0.4472 -21.00473,-0.4473 z m 37.84258,8.6184 c 0.27252,-0.7249 3.91382,-4.9938 8.09179,-9.4865 l 7.5963,-8.1684 h 20.14016 20.14016 l -7.1169,8.7638 -7.1169,8.7638 -21.11505,0.7227 c -13.65954,0.4675 -20.9401,0.2572 -20.61956,-0.5954 z m 48.85948,-4.3216 c 1.92637,-2.5666 5.03254,-6.6166 6.90258,-8.9999 l 3.40009,-4.3333 20.37368,-1e-4 h 20.37368 l -6.02081,8.7932 -6.02082,8.7931 -21.25545,0.2069 -21.25545,0.2068 z m 63.32865,4 -20.30735,-0.6666 5.47979,-8.3334 5.47979,-8.3333 h 20.40782 20.40783 l -5.12047,8.7624 c -2.81625,4.8193 -5.32737,8.8693 -5.58026,9 -0.25289,0.1307 -9.59811,-0.062 -20.76715,-0.4291 z m 24.97217,0.2375 c 10e-4,-0.2361 1.60336,-3.2361 3.56078,-6.6667 6.52888,-11.4426 5.1869,-10.9041 27.173,-10.9041 h 19.65196 l -4.08117,8.6051 -4.08117,8.6051 -21.11262,0.3949 c -11.61195,0.2172 -21.1118,0.2017 -21.11078,-0.034 z m 48.95563,-6.9041 c 1.81059,-4.0334 3.60088,-8.0834 3.97842,-9 0.50679,-1.2305 6.00938,-1.6667 21.02627,-1.6667 H 460.839 l -3.2079,9 -3.2079,9 h -21.11037 -21.11037 z m 63.25048,7.002 c -15.43719,-0.3065 -20.31467,-0.8068 -19.86087,-2.0375 0.33083,-0.8971 1.63713,-4.7812 2.90288,-8.6312 l 2.30136,-7 h 19.99879 19.99878 l -0.88217,4.3333 c -1.34589,6.6112 -3.39865,14.3689 -3.71444,14.0374 -0.15506,-0.1627 -9.49001,-0.4787 -20.74433,-0.702 z m 91.59371,0 -20.86867,-0.403 0.61808,-5.6334 c 1.40043,-12.7644 -0.71986,-11.6335 21.81134,-11.6335 h 19.97459 v 9.3333 c 0,5.1334 -0.15,9.1997 -0.33333,9.0364 -0.18333,-0.1633 -9.72424,-0.4782 -21.20201,-0.6998 z m 25.53342,-8.6699 0.002,-9 h 20 c 18.61097,0 20,0.1723 20,2.4806 0,1.3643 0.37743,5.2342 0.83873,8.5997 l 0.83872,6.1192 -20.84064,0.4003 -20.84065,0.4002 z m -91.2231,4.6667 c 0.45418,-2.0167 1.38874,-5.9167 2.0768,-8.6667 l 1.25101,-5 h 20.12307 20.12306 l -0.82645,5 c -0.45455,2.75 -0.83305,6.65 -0.84112,8.6667 l -0.0147,3.6666 h -21.35873 -21.35874 z m 136.01025,-0.6667 c -0.36791,-2.3833 -0.89118,-6.2833 -1.16282,-8.6667 l -0.4939,-4.3333 h 20.20675 20.20674 l 1.56233,6.7684 c 2.61769,11.3404 4.01554,10.5649 -19.04391,10.5649 h -20.60625 z m 44.49456,-3.3333 c -0.86676,-4.2167 -1.84471,-8.1167 -2.17322,-8.6667 -0.32851,-0.55 8.61579,-1 19.87622,-1 h 20.4735 l 2.81774,8.6667 2.81774,8.6666 h -21.11802 -21.11803 z m 44.4674,-0.9347 -2.7965,-8.6014 19.84553,-0.3986 c 12.35463,-0.2482 20.05549,0.1046 20.40177,0.9347 0.30592,0.7333 2.10396,4.7833 3.99563,9 l 3.43941,7.6666 h -21.04467 -21.04466 z m 44.87193,0.2823 c -4.88111,-10.3212 -5.21238,-10.1271 17.50755,-10.2539 14.41946,-0.08 17.07499,0.2361 18.78574,2.2396 1.87994,2.2016 9.08758,14.7605 9.08758,15.8346 0,0.2743 -9.32548,0.4987 -20.72329,0.4987 h -20.72328 z m 44.32214,-1.0143 -5.40361,-9.3333 20.23117,0.05 20.23116,0.05 6.24642,9.2834 6.24641,9.2834 h -21.07397 -21.07398 z m 45.58083,1.6879 c -2.85382,-4.205 -5.66859,-8.405 -6.25503,-9.3333 -0.84375,-1.3357 3.19056,-1.6726 19.33334,-1.6145 l 20.39958,0.073 7.06742,9.2599 7.0675,9.2599 h -21.21202 -21.21202 z m 43.84111,-1.4132 -6.9702,-8.9414 19.9424,-0.3679 19.9424,-0.3679 4.5235,5.0346 c 2.4879,2.769 6.1537,6.9846 8.1463,9.3679 l 3.6228,4.3333 -21.1186,-0.059 -21.1185,-0.059 z m 44.5803,-0.2747 -8.7559,-9.3333 h 20.2753 20.2753 l 9.2618,9.3333 9.26181,9.3333 h -20.78121 -20.7811 z m 44.881,-0.022 -9.5089,-9.3109 19.50891,0.03 19.5088,0.03 10.3846,9.3029 10.3847,9.3029 -20.3847,-0.022 -20.3846,-0.022 z m -831.18641,-11.9833 c -2.49545,-0.59 -1.78159,-1.6107 5.8283,-8.3333 l 8.67205,-7.661 h 18.41746 18.41746 l -8.08711,8.0871 -8.08712,8.0871 -16.15864,0.2462 c -8.88725,0.1355 -17.43833,-0.056 -19.0024,-0.4261 z m 47.36194,-7.9943 7.91652,-8 h 19.33333 19.33334 l -7.91653,8 -7.91652,8 H 225.29083 205.9575 Z m 38.07472,4.3333 c 1.76343,-2.0166 4.98572,-5.6166 7.16064,-8 l 3.95441,-4.3333 h 19.10891 19.10891 l -6.37047,7.9891 -6.37046,7.9891 -19.89908,0.011 -19.89909,0.011 z m 46.22148,-4.3224 6.37046,-7.9891 19.07869,-0.011 c 14.88702,-0.01 18.86834,0.3553 18.12129,1.6558 -0.52657,0.9166 -3.01308,4.5166 -5.52558,8 l -4.56819,6.3333 h -19.92357 -19.92357 z m 39.77814,4.3224 c 1.30958,-2.0166 3.62858,-5.6092 5.15335,-7.9835 l 2.7723,-4.3168 19.09026,-0.016 19.09025,-0.016 -4.39802,8 -4.39802,8 H 355.4129 335.56732 Z m 42.03045,2 c 0.0576,-0.9166 1.74625,-4.3666 3.75246,-7.6666 l 3.64765,-6 18.91421,-0.37 c 10.40281,-0.2034 18.91421,-0.071 18.91421,0.2953 0,0.3659 -1.46699,3.9824 -3.25996,8.0366 l -3.25996,7.3714 h -19.40671 c -14.69237,0 -19.38124,-0.4049 -19.3019,-1.6667 z m 42.56186,1.1659 c 0,-0.2754 1.49243,-3.8754 3.31652,-8 l 3.31652,-7.4992 h 19.25963 19.25963 l -2.90948,7.9988 -2.90949,7.9988 h -19.66666 c -10.81667,7e-4 -19.66667,-0.2241 -19.66667,-0.4996 z m 45.54317,-7.4992 2.70164,-8 h 19.10345 19.10345 l -1.09646,4.3333 c -0.60305,2.3834 -1.46611,5.9834 -1.91792,8 l -0.82147,3.6667 H 485.26936 465.3822 Z m 41.12349,6.7323 c 0,-0.6972 0.64972,-4.2972 1.44382,-8 l 1.44382,-6.7323 h 19.38951 19.38952 l -0.83334,4.1667 c -0.45833,2.2916 -0.83333,5.8916 -0.83333,8 v 3.8333 h -20 c -11.75419,0 -20,-0.5227 -20,-1.2677 z m 43.16667,-2.899 c 0.45833,-2.2916 0.83333,-5.8916 0.83333,-8 v -3.8333 h 19.33333 19.33333 v 8 8 h -20.16666 -20.16667 z m 43.49999,-3.8333 v -8 h 18.5 18.5 l 0.83333,4.1667 c 0.45834,2.2916 0.83334,5.8916 0.83334,8 v 3.8333 h -19.33334 -19.33333 z m 42.16667,3.8333 c -0.45834,-2.2916 -0.83334,-5.9081 -0.83334,-8.0366 v -3.8699 l 18.90574,0.3699 18.90573,0.37 0.87515,3.3333 c 0.48134,1.8333 1.25876,5.2833 1.7276,7.6667 l 0.85245,4.3333 h -19.8 -19.8 z m 43.86417,2.5 c -1.02539,-3.0952 -3.34925,-12.3259 -3.35674,-13.3333 -0.004,-0.55 8.58299,-1 19.0824,-1 h 19.08983 l 2.2435,7.1172 c 1.23392,3.9144 2.2435,7.5144 2.2435,8 0,0.4855 -8.71883,0.8828 -19.37518,0.8828 -14.31679,0 -19.51933,-0.4351 -19.92731,-1.6667 z m 42.48738,-0.3333 c -2.34945,-6.612 -4.51823,-13.0926 -4.51823,-13.501 0,-0.2744 8.62001,-0.499 19.15557,-0.499 h 19.15556 l 2.85748,6.8758 c 1.57161,3.7818 2.7016,7.0245 2.5111,7.2061 -1.17933,1.1242 -38.76084,1.0456 -39.16148,-0.082 z m 40.32025,-6.3333 -3.30553,-7.6667 h 19.21106 19.21107 l 3.35579,6.6223 c 1.84569,3.6423 3.35579,6.9115 3.35579,7.2649 0,0.3533 -8.66759,0.8233 -19.26133,1.0443 l -19.26133,0.4018 z m 42.22873,-0.6667 -4.21499,-7.6667 18.90474,0.2565 c 20.93512,0.2839 20.12338,-0.052 26.68552,11.0564 l 2.37494,4.0205 h -19.76761 -19.76761 z m 44.16048,3.3168 c -1.52476,-2.3742 -3.8057,-5.9087 -5.06876,-7.8544 l -2.29646,-3.5375 19.06876,-0.126 19.06876,-0.126 4.66667,6.1748 c 8.01701,10.6077 9.05526,9.8208 -12.93375,9.8025 l -19.73292,-0.016 z m 41.36105,-1.9835 c -2.7862,-3.4833 -5.63195,-7.0833 -6.32388,-8 -0.99238,-1.3147 2.78873,-1.6601 17.90525,-1.6356 l 19.1632,0.031 7.0935,7.969 7.0935,7.969 h -19.9329 -19.93285 z m 40.96257,-1.6666 -7.0419,-8 h 19.1204 19.1203 l 7.9165,8 7.9166,8 h -19.995 -19.995 z m 41.8561,0.075 -7.8423,-7.9251 18.2205,-0.4083 18.22061,-0.4082 8.9969,8.2716 8.9969,8.2716 -19.3751,0.062 -19.37511,0.062 z m -782.7407,-16.7612 8,-7.249 17.99999,0.029 18,0.029 -8,7.2697 -8,7.2697 -17.99999,-0.05 -18,-0.05 z m 39.40295,-0.021 7.37397,-7.374 17.94487,0.374 17.94487,0.3739 -6.51579,7 -6.51579,7 h -18.80305 -18.80305 z m 35.77791,5.0406 c 0.70109,-1.2833 3.5722,-4.5522 6.38025,-7.2642 l 5.10555,-4.9309 18.16359,-0.4025 18.16359,-0.4024 -6.02695,7.6667 -6.02694,7.6666 h -18.51689 c -17.23184,0 -18.42843,-0.1619 -17.2422,-2.3333 z m 44.6892,-5.0527 6.01659,-7.386 18.5357,-0.2806 18.53569,-0.2807 -5.40817,7.6667 -5.40817,7.6666 h -19.14411 -19.14411 z m 40.79659,-0.614 5.4327,-8 h 18.06143 c 9.93378,0 17.86143,0.4551 17.61698,1.0113 -0.24444,0.5562 -2.24444,4.1556 -4.44444,7.9987 l -4,6.9873 h -19.04968 -19.04968 z m 40.36888,0.022 4.29779,-7.9778 18.23352,-0.022 18.23352,-0.022 -3.45182,8 -3.45182,8 h -19.07949 -19.07948 z m 38.78067,3.6445 c 1.01861,-2.3833 2.62297,-5.9833 3.56525,-8 l 1.71324,-3.6667 h 17.78598 c 9.78228,0 17.78597,0.3973 17.78597,0.8828 0,0.4856 -1.00957,4.0856 -2.24349,8 l -2.2435,7.1172 h -19.10773 -19.10773 z m 40.2844,1.3333 c 0.52084,-1.65 1.67082,-5.1 2.55551,-7.6666 l 1.60853,-4.6667 18.35849,-0.372 c 15.30079,-0.31 18.23908,-0.061 17.64159,1.4962 -0.39429,1.0275 -1.13328,4.6449 -1.64221,8.0387 l -0.92532,6.1704 H 490.96609 471.6943 Z m 40.56604,1.7684 c 0,-0.6774 0.70305,-4.2774 1.56233,-8 l 1.56233,-6.7684 h 18.25278 c 20.58661,0 18.56345,-1.3389 16.62184,11 l -0.78678,5 h -18.60625 c -10.49081,0 -18.60625,-0.5372 -18.60625,-1.2316 z m 41.33333,-2.6017 c 0,-2.1083 0.375,-5.7083 0.83334,-8 l 0.83333,-4.1667 h 17.83333 17.83333 v 8 8 h -18.66666 -18.66667 z m 41.33333,-4.1667 v -8 h 18 18 v 3.8334 c 0,2.1083 0.375,5.7083 0.83333,8 l 0.83334,4.1666 h -18.83334 -18.83333 z m 39.98533,5 c -0.008,-1.65 -0.38941,-5.2674 -0.84742,-8.0388 l -0.83275,-5.0388 18.41502,0.3722 18.41501,0.3721 1.70925,7.3333 c 0.94008,4.0334 1.73466,7.4834 1.76573,7.6667 0.0311,0.1833 -8.64351,0.3333 -19.27684,0.3333 -19.15614,0 -19.33346,-0.027 -19.348,-3 z m 40.24366,-3.7684 c -0.85928,-3.7226 -1.56233,-7.3226 -1.56233,-8 0,-0.692 7.83244,-1.2316 17.8776,-1.2316 h 17.87759 l 2.70164,8 2.70164,8 h -19.0169 -19.0169 z m 39.98084,-1.2316 -2.70164,-8 h 18.2459 18.2459 l 2.85385,6.9987 c 2.04722,5.0206 2.42408,7.2756 1.33333,7.9783 -0.83628,0.5388 -9.11543,0.9888 -18.3981,1 l -16.8776,0.02 z m 40.29005,0.1675 c -1.74161,-3.9413 -3.16655,-7.4082 -3.16655,-7.7043 0,-0.2961 8.11408,-0.3715 18.03129,-0.1675 l 18.03129,0.371 3.95563,6.9299 3.95562,6.9298 -18.82036,0.4035 -18.82037,0.4035 z m 40.73774,0.3369 c -2.14737,-3.7559 -3.9043,-7.2059 -3.9043,-7.6667 0,-0.4607 7.95,-0.8306 17.66667,-0.8219 l 17.66666,0.016 5.0306,7.2469 5.03061,7.2469 -18.79298,0.404 -18.79297,0.404 z m 39.44993,-0.8377 -4.71662,-7 17.68119,-0.3992 17.6812,-0.3993 4.44981,5.0659 c 8.87488,10.1037 9.32099,9.7326 -11.70081,9.7326 h -18.67816 z m 40.76992,0.4816 c -3.00162,-3.5851 -5.45749,-6.902 -5.45749,-7.3709 0,-0.469 8.1735,-0.6857 18.16332,-0.4817 l 18.1633,0.371 6.0096,7 6.0095,7 h -18.7154 -18.71533 z m 39.41843,-0.8886 -6.4574,-7.2597 h 18.503 18.5029 l 7.2422,7.3334 7.2423,7.3333 -19.2878,-0.074 -19.2878,-0.074 z m 39.9333,-0.449 -7.774,-7.8559 16.8621,-0.2043 c 18.5903,-0.2253 16.7543,-0.8658 29.3766,10.2495 l 6.43481,5.6667 h -18.56271 -18.5628 z m -745.47584,-14.8107 7.36157,-6.6666 h 16.93576 16.93576 l -6.56642,6.6666 -6.56642,6.6667 h -17.73091 -17.7309 z m 37.40697,-0.042 6.70856,-6.7085 17.07369,0.3752 17.07369,0.3752 -5.5781,6.3334 -5.57811,6.3333 h -18.20414 -18.20415 z m 38.91708,-0.2914 6.24237,-6.3333 h 17.13939 17.13938 l -4.85997,5.9309 -4.85997,5.931 -18.52178,0.4024 -18.52178,0.4023 z m 20.34261,-0.3333 c 0.92591,-1.1157 1.07029,-2 0.32652,-2 -0.73333,0 -2.08027,0.9 -2.99318,2 -0.92591,1.1156 -1.07029,2 -0.32652,2 0.73333,0 2.08026,-0.9 2.99318,-2 z m 14.66667,5.2551 c 0,-0.4097 1.87509,-3.0781 4.16687,-5.93 l 4.16687,-5.1851 17.62608,-0.40333 17.62607,-0.40336 -4.12628,6.30939 -4.12628,6.3094 -17.66667,0.024 c -9.71666,0.013 -17.66666,-0.3112 -17.66666,-0.7209 z m 40.71778,-2.9218 c 5.68949,-8.8478 4.16381,-8.268 23.01747,-8.74692 l 17.50594,-0.44467 -3.49917,6.42909 -3.49917,6.4292 h -17.94144 -17.94144 z m 40.2053,-2.9986 3.74358,-6.66535 17,-0.001 c 9.35,-7.5e-4 17,0.2489 17,0.55477 0,0.30587 -1.17868,3.30588 -2.61929,6.66668 l -2.61928,6.1106 h -18.1243 -18.12429 z m 38.41024,0 3.37826,-6.66666 h 17.18221 17.18221 l -2.20467,6.65356 -2.20468,6.6535 -18.35579,0.013 -18.35579,0.013 z m 37.19943,3.3921 c 0.45202,-1.801 1.40222,-4.801 2.11155,-6.6666 l 1.28968,-3.39216 h 17.50899 c 14.62904,0 17.38872,0.3134 16.77785,1.90536 -0.40213,1.0479 -1.1331,4.0479 -1.62438,6.6666 l -0.89323,4.7614 h -17.99616 -17.99615 z m 20.55057,-3.3088 c 0.33333,-1 -0.16667,-1.5 -1.16667,-1.1666 -0.9625,0.3208 -2.0125,1.3708 -2.33333,2.3333 -0.33333,1 0.16667,1.5 1.16667,1.1667 0.9625,-0.3209 2.0125,-1.3709 2.33333,-2.3334 z m 17.58333,5.8405 c 0,-0.4086 0.67123,-3.4086 1.49162,-6.6667 l 1.49162,-5.92376 h 17.34171 17.34172 l -0.83334,4.16666 c -0.45833,2.2917 -0.83333,5.2917 -0.83333,6.6667 0,2.321 -1.28889,2.5 -18,2.5 -9.9,0 -18,-0.3343 -18,-0.7429 z m 39.15962,-2.2571 c 0.44218,-1.65 0.81216,-4.65 0.82217,-6.6667 l 0.0182,-3.66666 h 17.33333 17.33333 v 6.66666 6.6667 h -18.1555 -18.15551 z m 39.50704,-3.6667 v -6.66666 h 16.64127 c 18.47986,0 16.80829,-0.87693 18.42627,9.66666 l 0.56267,3.6667 h -17.8151 -17.81511 z m 38.14265,4.5576 c -0.44512,-1.16 -0.80932,-4.16 -0.80932,-6.6667 v -4.55756 h 17.15665 17.15666 l 1.31816,6.66666 1.31816,6.6667 h -17.66549 c -14.87864,0 -17.79318,-0.3328 -18.47482,-2.1091 z m 38.01563,-3.8147 c -0.82039,-3.2581 -1.49162,-6.258 -1.49162,-6.66665 0,-0.4086 7.7436,-0.74291 17.208,-0.74291 h 17.208 l 2.12533,6.23746 c 1.16894,3.4307 2.12534,6.4307 2.12534,6.6667 0,0.236 -8.02877,0.4292 -17.84171,0.4292 h -17.84172 z m 18.50838,-0.7429 c 0,-0.7333 -0.6,-1.3333 -1.33333,-1.3333 -0.73333,0 -1.33333,0.6 -1.33333,1.3333 0,0.7333 0.6,1.3333 1.33333,1.3333 0.73333,0 1.33333,-0.6 1.33333,-1.3333 z m 20.07942,1.6667 c -0.98429,-2.75 -2.06902,-5.75 -2.4105,-6.6667 -0.47682,-1.27994 3.41958,-1.66666 16.7927,-1.66666 h 17.41359 l 2.72906,6.16946 c 1.50099,3.3932 2.72906,6.3932 2.72906,6.6667 0,0.2734 -7.97946,0.4972 -17.73215,0.4972 h -17.73214 z m 37.68988,-1.6591 -2.89736,-6.59612 16.89736,-0.3724 16.89736,-0.3724 3.64393,6.00002 c 2.00416,3.3 3.65416,6.45 3.66667,7 0.0125,0.55 -7.92726,0.9858 -17.64393,0.9685 l -17.66666,-0.031 z m 41.83303,5.6591 c -0.30527,-0.55 -2.11115,-3.7 -4.01307,-7 l -3.45802,-6.00002 17.60104,0.40935 17.60105,0.40935 4.34358,6.59062 4.34358,6.5907 h -17.93156 c -9.86235,0 -18.18132,-0.45 -18.4866,-1 z m 35.24524,-5.1465 c -2.38284,-3.3805 -4.13113,-6.34775 -3.8851,-6.59378 0.24603,-0.24603 7.87499,-0.54979 16.95325,-0.67501 18.24598,-0.25169 16.17571,-1.08524 24.2125,9.74859 l 2.72002,3.6667 h -17.83412 -17.83413 z m 37.57371,-0.9468 -5.39788,-6.90672 17.61897,0.4029 17.61897,0.40291 5.11602,5.23931 c 2.81381,2.8816 4.85498,5.4681 4.53598,5.7478 -0.319,0.2797 -8.12071,0.8488 -17.3371,1.2645 l -16.75708,0.756 z m 18.24538,-0.2401 c -0.91292,-1.1 -2.25986,-2 -2.99319,-2 -0.74377,0 -0.59939,0.8844 0.32652,2 0.91292,1.1 2.25985,2 2.99319,2 0.74376,0 0.59939,-0.8843 -0.32652,-2 z m 19.99998,0 -5.88854,-5.99996 h 6.74314 c 3.7087,0 11.1836,-0.32201 16.6109,-0.71557 l 9.8678,-0.71558 7.3334,6.70081 7.3333,6.7009 -18.0557,0.015 -18.0557,0.015 z m 38,-0.6666 -6.5664,-6.66669 16.6165,0.0605 16.6166,0.0605 7.2539,6.60619 7.2539,6.6061 h -17.304 -17.3041 z m -710.66661,-12.64289 6.66667,-5.92134 15.94428,-0.0512 15.94427,-0.0512 -5.88855,6 -5.88856,6 -16.72238,-0.0274 -16.72239,-0.0274 z m 35.41165,-0.067 6.04322,-6.04322 16.57379,0.37656 16.57379,0.37656 -5.12304,5.66666 -5.12304,5.66667 H 275.40308 257.9091 Z m 36.74841,0.16882 5.17327,-5.87441 17.06636,-0.12559 17.06636,-0.12559 -5.01537,6 -5.01538,6 h -17.22426 -17.22425 z m 36.83683,0.20774 4.67552,-5.66666 16.92239,-0.37386 16.9224,-0.37386 -4.15599,6.04053 -4.15599,6.04052 h -17.44192 -17.44193 z m 36.86574,-0.13368 c 3.89934,-5.6675 4.19855,-5.81997 13.06405,-6.65719 11.29434,-1.06658 24.40665,-1.12741 24.40665,-0.11322 0,0.41941 -1.55702,3.41941 -3.46003,6.66667 l -3.46003,5.90409 h -17.27069 -17.27069 z m 37.18927,-0.68098 3.61476,-6.82957 16.47598,-0.0112 c 15.16519,-0.0103 16.40075,0.17442 15.53029,2.32212 -0.52013,1.28333 -1.54302,3.98333 -2.27308,6 -1.31052,3.62005 -1.47594,3.66667 -13.01086,3.66667 -6.42591,0 -14.44386,0.37835 -17.81766,0.84078 l -6.13419,0.84078 z m 35.17696,4.148 c 0.2481,-0.55 1.31864,-3.25 2.37896,-6 l 1.92787,-5 h 16.39882 c 9.01934,0 16.39881,0.38038 16.39881,0.8453 0,0.46492 -0.69497,3.16492 -1.54438,6 l -1.54439,5.1547 h -17.23339 c -9.47837,0 -17.0304,-0.45 -16.7823,-1 z m 37.72185,-1.33334 c 0.49648,-1.28333 1.23567,-3.98333 1.64265,-6 l 0.73996,-3.66666 h 16.64839 16.64838 l -0.9361,4.98984 c -0.51485,2.74442 -1.21704,5.44442 -1.56041,6 -0.34337,0.55559 -8.15309,1.01016 -17.35494,1.01016 -15.38892,0 -16.65823,-0.18712 -15.82793,-2.33334 z m 37.21594,-1.83333 c 0.45833,-2.29167 0.83333,-4.99167 0.83333,-6 0,-1.45778 3.41415,-1.83333 16.66667,-1.83333 H 555.874 v 3.89095 c 0,8.059 -0.113,8.10905 -18.30932,8.10905 H 520.874 Z m 36.62465,-1.83333 0.4772,-6 h 16.53241 16.5324 v 6 6 h -17.0096 -17.00961 z m 36.87535,0 v -6 h 16.17782 c 15.6499,0 16.20406,0.0979 16.98179,3 0.44219,1.65 0.81216,4.35 0.82218,6 0.0179,2.9552 -0.23566,3 -16.9818,3 h -16.99999 z m 36.66666,2.10905 c 0,-2.14003 -0.36419,-4.84003 -0.80932,-6 -0.71152,-1.85419 1.21437,-2.10905 15.93733,-2.10905 h 16.74664 l 1.38857,5 c 0.76372,2.75 1.39192,5.45 1.39601,6 0.004,0.55 -7.79257,1 -17.3259,1 h -17.33333 z m 36.40961,-2.10905 -1.373,-6 h 16.5147 c 18.16683,0 16.67824,-0.68029 19.69383,9 l 0.93456,3 h -17.19855 -17.19855 z m 36.44992,-0.0393 -2.05781,-6.03933 16.6658,0.37267 16.66579,0.37266 2.53482,5.66667 2.53482,5.66667 h -17.14281 -17.14281 z m 36.79345,0.11475 -2.87838,-5.92458 16.41285,-0.40875 16.41285,-0.40875 3.53279,6.33333 3.53279,6.33334 h -17.06726 -17.06725 z m 36.55486,-0.0754 -3.35346,-6 h 16.50875 16.50875 l 4.12811,6 4.12811,6 h -17.2834 -17.28339 z m 36.45881,0 -4.1281,-6 13.06405,-0.0182 c 7.18523,-0.01 14.32015,-0.35544 15.85538,-0.76761 2.16941,-0.58243 4.05378,0.75846 8.45749,6.01821 l 5.66616,6.76761 h -17.39343 -17.39344 z m 36.75593,0.19601 c -2.61576,-3.1922 -4.75593,-6.1922 -4.75593,-6.66667 0,-0.47447 7.07508,-0.86268 15.72239,-0.86268 h 15.72239 l 5.61094,5.71714 c 3.08602,3.14442 5.61095,6.14442 5.61095,6.66666 0,0.52225 -7.45983,0.94954 -16.5774,0.94954 h -16.5774 z m 35.91074,-0.86268 -6.56643,-6.66667 h 16.67227 16.67224 l 5.6919,5.79964 5.6919,5.79963 -9.0809,0.85755 c -20.29043,1.91611 -21.78338,1.61886 -29.08098,-5.79015 z m 35.33328,-0.66667 -5.8885,-6 h 16.1486 16.1486 l 6.4623,5.94706 6.4624,5.94706 -16.7224,0.0529 -16.7224,0.0529 z m -678.15434,-11.33333 5.78598,-5.33333 15.85089,0.0398 15.85089,0.0398 -6,5.25376 -6,5.25376 -15.63687,0.0398 -15.63687,0.0398 z m 34.66666,0 5.78599,-5.33333 h 15.78815 15.78816 l -5.20786,5.33333 -5.20787,5.33333 h -16.36627 -16.36628 z m 34.8211,0 5.20786,-5.33333 h 15.06274 c 8.2845,0 15.06273,0.33205 15.06273,0.7379 0,0.40585 -1.65,2.80583 -3.66666,5.3333 l -3.66667,4.59538 -16.60393,4e-5 -16.60393,4e-5 z m 32.77347,3 c 6.49414,-8.57723 5.82453,-8.33333 22.87875,-8.33333 h 15.85405 l -3.75313,5.30486 -3.75314,5.30487 -16.49659,0.0285 c -15.49752,0.0267 -16.3896,-0.11284 -14.72994,-2.30486 z m 34.55986,1.5777 c 0,-0.41559 1.57121,-2.81559 3.49159,-5.33333 l 3.49158,-4.5777 h 15.17508 c 8.3463,0 15.17284,0.45 15.1701,1 -0.003,0.55 -1.19392,2.95 -2.64707,5.33333 l -2.64209,4.33333 h -16.01959 c -8.81078,0 -16.0196,-0.34003 -16.0196,-0.75563 z m 36.00498,-0.24437 c 0.003,-0.55 1.17218,-2.91424 2.59875,-5.25387 l 2.59376,-4.25387 15.91112,-0.41279 15.91111,-0.4128 -1.17765,3.08975 c -3.24076,8.50264 -2.61576,8.24358 -19.88898,8.24358 -8.7742,0 -15.95085,-0.45 -15.94811,-1 z m 37.28825,-4.25473 2.68076,-5.25473 15.82136,-0.41193 15.82136,-0.41194 -1.93369,5.66667 -1.9337,5.66666 h -16.56843 -16.56842 z m 35.54642,-0.6476 2.07768,-6.09767 h 15.68969 15.68969 l -1.30804,5.66667 -1.30803,5.66667 -16.45934,0.43099 -16.45933,0.431 z m 34.57963,0.90233 c 0.44189,-2.01666 1.03449,-4.41666 1.31689,-5.33333 0.37285,-1.21024 4.82494,-1.66667 16.25721,-1.66667 h 15.74374 l -0.50861,5.33334 -0.50862,5.33333 h -16.55202 -16.55202 z m 35.50022,-1.33333 0.41382,-5 15.66667,-0.37565 15.66666,-0.37564 v 5.37564 5.37565 h -16.08048 -16.08049 z m 35.51863,-0.33333 -0.50861,-5.33334 h 15.53523 15.53523 l 0.83334,4.16667 c 0.45833,2.29167 0.83333,4.69167 0.83333,5.33333 0,0.64167 -7.13698,1.16667 -15.85995,1.16667 h -15.85995 z m 34.87698,3 c -0.01,-1.28334 -0.37999,-3.68334 -0.82217,-5.33334 -0.80104,-2.98905 -0.74564,-3 15.18935,-3 h 15.99332 l 1.35375,5.33334 1.35374,5.33333 h -16.52489 c -14.84217,0 -16.52675,-0.2376 -16.5431,-2.33333 z m 35.42105,0.66666 c -0.2824,-0.91666 -0.875,-3.31666 -1.31688,-5.33333 l -0.80344,-3.66667 h 15.89497 15.89497 l 1.46377,4.19897 c 0.80507,2.30943 1.46376,4.70943 1.46376,5.33333 0,1.92541 -32.00098,1.40285 -32.59715,-0.5323 z m 34.74738,-1.5428 c -0.44304,-1.7652 -1.17227,-4.1652 -1.62053,-5.33333 -0.71756,-1.86995 1.09076,-2.12387 15.1254,-2.12387 h 15.94039 l 2.095,5.33334 2.09499,5.33333 h -16.41486 c -16.22826,0 -16.42402,-0.0365 -17.22039,-3.20947 z m 34.53433,-1.62003 c -1.10984,-2.65622 -2.01789,-5.07526 -2.01789,-5.37565 0,-0.30038 6.98605,-0.3771 15.52457,-0.1705 l 15.52457,0.37565 3.1615,5 3.16151,5 H 753.91129 737.2431 Z m 35.42418,0.33879 c -1.52647,-2.46989 -2.77541,-4.86989 -2.77541,-5.33333 0,-0.46345 7.05,-0.8352 15.66667,-0.82612 l 15.66666,0.0165 3,4.63147 c 1.65,2.5473 3,4.93987 3,5.31682 0,0.37696 -7.15106,0.68537 -15.89125,0.68537 h -15.89125 z m 34.13812,-0.87109 -3.75314,-5.30487 h 15.97443 15.97443 l 4.22408,5.33334 4.22408,5.33333 -16.44537,-0.0285 -16.44538,-0.0285 z m 35.08647,0.0285 -4.22408,-5.33334 h 15.84144 15.84144 l 5.20786,5.33334 5.20786,5.33333 h -16.82522 -16.82523 z m 35.52848,0.19985 -5.01271,-5.13348 9.07544,-0.85704 c 19.07128,-1.801 20.55458,-1.52028 27.0754,5.124 l 5.8886,6 h -16.00701 -16.00701 z m 33.80483,-0.86652 -5.8885,-6 15.2776,0.0274 15.2776,0.0274 6.6666,5.92134 6.6667,5.92135 -16.0557,0.0512 -16.0557,0.0512 z m -649.49513,-11.38802 5.83815,-5.27865 h 14.76578 14.76578 l -5.20786,5.33334 -5.20786,5.33333 -15.39607,-0.0547 -15.39606,-0.0547 z m 32.82852,0.0547 5.20786,-5.33334 h 15.33333 15.33333 l -5.20786,5.33334 -5.20786,5.33333 h -15.33333 -15.33333 z m 33.27059,0.10628 5.2706,-5.43962 h 15.20086 15.20086 l -4.17096,4.75046 -4.17095,4.75046 -16.3005,0.68916 -16.3005,0.68916 z m 33.87865,-0.41115 3.51742,-4.97153 15.73452,-0.0285 15.73452,-0.0285 -3.50083,4.58983 -3.50083,4.58983 -15.75111,0.41017 -15.7511,0.41017 z m 33.8385,-0.34529 3.01225,-4.65017 15.11111,-0.0165 c 8.31111,-0.009 14.89186,0.43349 14.62389,0.98349 -0.26798,0.55 -1.31429,2.65 -2.32514,4.66667 l -1.8379,3.66667 h -15.79824 -15.79823 z m 31.94392,3.65016 c 0.26798,-0.55 1.31429,-2.65 2.32513,-4.66667 l 1.83791,-3.66667 h 15.11931 c 8.31562,0 15.11931,0.3298 15.11931,0.73288 0,0.40309 -0.91541,2.50309 -2.03424,4.66667 l -2.03424,3.93379 h -15.4102 c -8.47561,0 -15.19095,-0.45 -14.92298,-1 z m 35.33685,-3.66667 2.22538,-4.66667 h 15.08638 c 8.29751,0 15.08638,0.21047 15.08638,0.46771 0,0.25723 -0.65869,2.35723 -1.46376,4.66666 l -1.46377,4.19897 h -15.84799 -15.848 z m 32.39814,4.24128 c 0,-0.28051 0.6587,-2.39955 1.46377,-4.70898 l 1.46377,-4.19897 h 15.0345 15.0345 l -0.8841,4.33334 -0.88409,4.33333 -15.61417,0.37565 c -8.5878,0.2066 -15.61418,0.14614 -15.61418,-0.13437 z m 34.55423,-3.90795 0.88409,-4.33333 15.35111,-0.37337 15.35111,-0.37337 -0.54948,4.7067 -0.54948,4.70671 h -15.68572 -15.68573 z m 33.69462,0 0.41781,-4.33333 15.003,-0.66667 15.00299,-0.66666 -0.003,5 -0.003,5 h -15.41781 -15.41781 z m 33.97337,3.44445 c -1.74799,-1.74799 -0.87502,-8.16446 1.22016,-8.96846 1.15998,-0.44513 8.05998,-0.80932 15.33333,-0.80932 11.69873,0 13.22638,0.26917 13.24249,2.33333 0.01,1.28334 0.37999,3.68334 0.82218,5.33334 0.79947,2.98325 0.71872,3 -14.46265,3 -8.39664,0 -15.66662,-0.4 -16.15551,-0.88889 z m 33.28482,-2.11111 c -2.06016,-7.68749 -2.09907,-7.66667 14.32629,-7.66667 h 15.16666 l 0.83333,4.16667 c 0.45834,2.29166 0.83334,4.69166 0.83334,5.33333 0,0.64167 -6.83002,1.16667 -15.17783,1.16667 -14.61286,0 -15.20775,-0.11167 -15.98179,-3 z m 33.32628,-1.16667 c -0.45833,-2.29167 -0.83333,-4.69167 -0.83333,-5.33333 0,-0.64167 6.83496,-1.16667 15.18879,-1.16667 14.93307,0 15.20235,0.054 15.99431,3.20947 0.44304,1.7652 1.17228,4.1652 1.62053,5.33333 0.71763,1.87011 -1.09378,2.12387 -15.16098,2.12387 h -15.97598 z m 35.16667,3.66283 c 0,-0.27711 -0.90805,-2.67711 -2.01789,-5.33333 l -2.0179,-4.8295 h 15.41926 15.41926 l 1.93197,4.62384 c 1.06258,2.54312 1.93196,4.94312 1.93196,5.33334 0,0.39022 -6.9,0.70949 -15.33333,0.70949 -8.43333,0 -15.33333,-0.22673 -15.33333,-0.50384 z m 31.64284,-4.8295 -2.09499,-5.33333 h 14.98055 14.98055 l 2.9975,5.33333 2.9975,5.33334 h -15.88305 -15.88306 z m 33.69049,0 -2.72087,-5.33333 15.0271,0.0165 15.0271,0.0165 3,4.63146 c 1.65,2.54731 3,4.93988 3,5.31683 0,0.37695 -6.88781,0.68537 -15.30624,0.68537 h -15.30623 z m 33.01267,-0.0506 -3.654,-5.28273 15.654,0.0285 15.65399,0.0285 3.75314,5.30486 3.75314,5.30487 -15.75314,-0.0506 -15.75314,-0.0506 z m 33.81431,0.0506 -4.28598,-5.33333 h 15.13461 15.1346 l 4.35143,4.48953 c 5.5066,5.68137 4.45944,6.17714 -13.04755,6.17714 h -13.00113 z m 86.39546,4.33957 -15.4443,-0.42035 -4.48397,-4.62627 -4.48396,-4.62628 h 13.67353 c 8.7762,0 13.3785,-0.47755 12.8496,-1.33333 -0.4667,-0.75504 -7.0378,-1.33334 -15.1505,-1.33334 h -14.32641 l -4.47383,-4.61582 -4.47383,-4.61582 13.21228,-0.43846 13.21229,-0.43845 -14.73846,-0.27906 -14.73845,-0.27905 -4.52311,-4.66667 -4.52311,-4.66666 h 13.74782 13.74782 l 15.32819,13.66666 c 8.4305,7.51667 16.9117,14.99509 18.8471,16.61872 1.9353,1.62362 3.2188,2.8446 2.8522,2.71329 -0.3667,-0.13132 -7.6166,-0.42792 -16.1109,-0.65911 z m -53.22245,-5.00623 -4.52311,-4.66667 h 15.33333 15.33333 l 4.52312,4.66667 4.52311,4.66666 h -15.33334 -15.33333 z m -590.11115,-9.38884 5.22215,-4.61116 h 14.03941 14.03941 l -4.52311,4.66666 -4.52312,4.66667 -14.73844,-0.0555 -14.73844,-0.0555 z m 31.44452,0.0555 4.52311,-4.66666 h 14.53644 14.53643 l -3.79799,4.5704 -3.79799,4.57041 -15.26155,0.0963 -15.26156,0.0963 z m 32.02222,0.13069 c 4.62825,-4.52017 4.69649,-4.53795 19.56897,-5.09658 l 14.92453,-0.5606 -4.03657,5.09658 -4.03656,5.09658 h -15.53241 -15.5324 z m 30.75125,2.20265 c 6.44142,-8.5076 5.99087,-8.33333 21.54542,-8.33333 h 14.52072 l -3.75314,5.30486 -3.75314,5.30486 -15.16326,0.0285 c -14.22765,0.0267 -15.05425,-0.1155 -13.3966,-2.30486 z m 31.89319,1.64797 c 0,-0.37696 1.35,-2.76953 3,-5.31683 l 3,-4.63146 14.33333,-0.0165 c 7.88334,-0.009 14.33334,0.36267 14.33334,0.82612 0,0.46344 -1.24894,2.86344 -2.77542,5.33333 l -2.77541,4.49071 h -14.55792 c -8.00685,0 -14.55792,-0.30841 -14.55792,-0.68536 z m 34.96019,-4.6377 3.03981,-5.32307 14.33333,-0.0103 c 7.88334,-0.006 14.33333,0.26938 14.33333,0.61117 0,0.34178 -1.01112,2.74178 -2.24694,5.33333 l -2.24695,4.7119 h -15.1262 -15.12619 z m 30.37314,4.70163 c 0,-0.34179 1.01113,-2.74179 2.24695,-5.33333 l 2.24695,-4.7119 h 14.56237 c 12.774,0 14.46228,0.26082 13.74736,2.12386 -0.44825,1.16813 -1.17749,3.56813 -1.62053,5.33334 -0.79196,3.15543 -1.06124,3.20946 -15.99431,3.20946 -8.35383,0 -15.18879,-0.27964 -15.18879,-0.62143 z m 33.33333,-0.51294 c 0,-0.6239 0.6587,-3.0239 1.46377,-5.33333 l 1.46377,-4.19896 h 14.62608 c 13.98936,0 14.59315,0.11608 13.86956,2.66666 -0.41608,1.46667 -1.09695,3.86667 -1.51303,5.33333 -0.6973,2.45793 -1.89758,2.66667 -15.33333,2.66667 -8.01725,0 -14.57682,-0.51046 -14.57682,-1.13437 z m 32.75072,-2.5247 c 0.44294,-2.02084 1.0364,-4.42426 1.3188,-5.34093 0.37056,-1.20284 4.64642,-1.66666 15.36462,-1.66666 12.99453,0 14.74998,0.26366 14.04184,2.10905 -0.44512,1.15997 -0.81549,3.40997 -0.82303,4.99999 -0.0132,2.77762 -0.61536,2.90432 -15.36064,3.23188 l -15.34693,0.34093 z m 32.58261,-2.34093 v -4.66666 h 14.66667 14.66666 v 4.66666 4.66667 h -14.66666 -14.66667 z m 32,0 v -4.66666 h 14.51116 c 13.9215,0 14.54382,0.1219 15.31512,3 1.69272,6.31634 1.65384,6.33333 -14.49295,6.33333 h -15.33333 z m 32.84038,1.66667 c -1.62589,-6.067 -1.45397,-6.14944 13.72914,-6.58349 l 14.56953,-0.41651 0.76381,3.83333 c 0.42009,2.10834 0.7638,4.35833 0.7638,5 0,0.64167 -6.53002,1.16667 -14.51116,1.16667 -13.9215,0 -14.54382,-0.1219 -15.31512,-3 z m 31.98369,-1.21296 c -0.46343,-2.31713 -0.68843,-4.33383 -0.5,-4.48156 0.18842,-0.14773 6.52117,-0.65678 14.07276,-1.13122 l 13.73016,-0.86264 1.9365,4.6347 c 1.06508,2.54908 1.9365,4.95397 1.9365,5.34419 0,0.39022 -6.825,0.70949 -15.16666,0.70949 h -15.16667 z m 32.43669,0.54629 c -0.73694,-2.01666 -1.60325,-4.41666 -1.92515,-5.33333 -0.44523,-1.26791 2.93006,-1.66667 14.1076,-1.66667 h 14.69285 l 1.93197,4.62384 c 1.06258,2.54312 1.93196,4.94312 1.93196,5.33334 0,0.39022 -6.61485,0.70949 -14.69967,0.70949 h -14.69966 z m 33.4059,3.16283 c 0,-0.27711 -0.90806,-2.67711 -2.0179,-5.33333 l -2.01789,-4.8295 h 14.43904 14.43904 l 2.9975,5.33334 2.9975,5.33333 h -15.41865 c -8.48025,0 -15.41864,-0.22673 -15.41864,-0.50384 z m 30.79836,-4.23904 c -1.5391,-2.60859 -2.79836,-5.00859 -2.79836,-5.33333 0,-0.32475 6.44999,-0.56769 14.33333,-0.53986 l 14.33333,0.0506 3.65399,5.28273 3.654,5.28273 h -15.18896 -15.18896 z m 31.44849,-0.61892 -3.75314,-5.30487 h 14.6411 14.6411 l 4.22408,5.33334 4.22408,5.33333 -15.11204,-0.0285 -15.11204,-0.0285 z m 32.41981,0.0285 -4.22408,-5.33334 h 14.64058 14.64058 l 4.13813,4.71306 c 2.27596,2.59219 4.13812,4.99219 4.13812,5.33334 0,0.34115 -6.54958,0.62027 -14.55463,0.62027 h -14.55462 z m 32.16032,0 -4.28599,-5.33334 h 14.46794 14.46795 l 4.3347,4.47228 4.33471,4.47229 -7.07315,0.84946 c -3.89024,0.4672 -10.42273,0.85467 -14.51667,0.86105 -7.08636,0.011 -7.64916,-0.24431 -11.72949,-5.32174 z m -567.60481,-8.72217 c 5.21597,-4.60571 5.23797,-4.61117 18.59489,-4.61117 h 13.37274 l -4.52311,4.66667 -4.52311,4.66667 -14.07178,-0.0555 -14.07177,-0.0555 z m 30.2194,-0.008 4.70196,-4.70196 13.58166,0.38286 13.58166,0.38287 -2.98674,3.52708 c -2.81912,3.32913 -3.84529,3.57154 -18.28363,4.3191 l -15.29688,0.79202 z m 29.22512,2.29619 c 0,-0.60551 1.38867,-2.40551 3.08593,-4 2.75142,-2.58483 4.55809,-2.89909 16.66667,-2.89909 7.4694,0 13.58073,0.49541 13.58073,1.10092 0,0.6055 -1.38867,2.4055 -3.08593,4 -2.75142,2.58482 -4.55809,2.89908 -16.66667,2.89908 -7.4694,0 -13.58073,-0.49541 -13.58073,-1.10091 z m 18.66667,-2.89909 c 0,-0.73333 -0.26459,-1.33333 -0.58798,-1.33333 -0.32339,0 -0.9588,0.6 -1.41202,1.33333 -0.45323,0.73334 -0.18864,1.33334 0.58797,1.33334 0.77661,0 1.41203,-0.6 1.41203,-1.33334 z m 14.87749,0 c 2.95337,-3.99465 2.9757,-4 16.70658,-4 7.56209,0 13.74926,0.32111 13.74926,0.71358 0,0.39247 -0.96901,2.19247 -2.15335,4 -2.07101,3.16075 -2.70984,3.28642 -16.70658,3.28642 h -14.55324 z m 29.15215,3 c 0.0163,-0.55 1.06631,-2.31859 2.33333,-3.93019 2.0721,-2.63562 3.72683,-2.97072 16.46003,-3.33334 l 14.15635,-0.40313 -2.06996,4.33333 -2.06997,4.33333 h -14.41971 c -7.93085,0 -14.40638,-0.45 -14.39007,-1 z m 33.45469,-3.62318 2.77906,-4.71015 h 13.80393 13.80394 l -1.81941,4.33333 -1.8194,4.33334 -14.76359,0.37682 -14.76359,0.37682 z m 29.18232,3.8903 c 0,-0.40308 0.91541,-2.50308 2.03424,-4.66666 l 2.03424,-3.93379 h 13.84096 13.84096 l -1.43224,4.66667 -1.43224,4.66666 h -14.44296 c -7.94362,0 -14.44296,-0.32979 -14.44296,-0.73288 z m 32.61462,-3.60045 1.81922,-4.33333 14.03604,-0.37763 14.03604,-0.37763 -1.25296,4.36883 c -0.68913,2.40285 -1.25296,4.52278 -1.25296,4.71096 0,0.18817 -6.57103,0.34213 -14.6023,0.34213 h -14.6023 z m 30.57606,2.22428 c 0.44513,-1.15998 0.80932,-3.25997 0.80932,-4.66666 0,-2.36338 1.09353,-2.55762 14.39893,-2.55762 h 14.39893 l -0.5448,4.66667 -0.54481,4.66666 h -14.66344 c -12.82336,0 -14.56189,-0.26466 -13.85413,-2.10905 z m 31.47598,-2.55761 v -4.66667 h 14 14 v 4.66667 4.66666 h -14 -14 z m 30.66667,0.12459 v -4.79126 h 13.85735 c 14.49033,0 15.48112,0.41253 15.47298,6.44238 -0.003,1.91401 -2.04853,2.28816 -14.66667,2.68221 l -14.66366,0.45793 z m 31.50705,0.20874 c -0.44219,-1.65 -0.81217,-3.45 -0.82218,-4 -0.01,-0.55 6.2176,-1 13.83914,-1 11.4061,0 14.00051,0.37307 14.66667,2.10905 2.12938,5.54908 1.37292,5.89095 -13.03518,5.89095 -13.23014,0 -13.88016,-0.13312 -14.64845,-3 z m 31.15961,1.10905 c 0,-1.04002 -0.36419,-2.84002 -0.80932,-4 -0.70671,-1.84168 0.98779,-2.10905 13.36634,-2.10905 13.98979,0 14.1927,0.0448 15.47598,3.42013 0.71518,1.88108 1.30033,3.68107 1.30033,4 0,0.31893 -6.6,0.57987 -14.66666,0.57987 -11.77223,0 -14.66667,-0.37318 -14.66667,-1.89095 z m 30.63367,-1.52918 c -0.71519,-1.88108 -1.30034,-3.68108 -1.30034,-4 0,-0.31893 6.20369,-0.57987 13.78598,-0.57987 13.47907,0 13.82043,0.0756 15.33333,3.39607 0.85105,1.86784 1.54736,3.66784 1.54736,4 0,0.33216 -6.31485,0.60393 -14.033,0.60393 -13.83666,0 -14.0512,-0.0478 -15.33333,-3.42013 z m 30.86376,-0.0855 c -0.8785,-1.92809 -1.41275,-3.69015 -1.18723,-3.91567 0.22552,-0.22553 6.39799,-0.53277 13.71659,-0.68276 l 13.30654,-0.27271 2.45607,4.18839 2.45607,4.18839 H 734.8774 c -14.44421,0 -14.58975,-0.0315 -16.17265,-3.50564 z m 32.34425,1.83897 c -0.5403,-0.91666 -1.77594,-2.9117 -2.74587,-4.43341 -1.73967,-2.72935 -1.57631,-2.77105 12.08584,-3.08479 l 13.84934,-0.31805 2.81783,3.95729 c 1.54981,2.17651 2.81784,4.31466 2.81784,4.75146 0,0.43679 -6.26459,0.79417 -13.92131,0.79417 -9.72423,0 -14.21748,-0.50248 -14.90367,-1.66667 z m 30.66667,0 c -0.5403,-0.91666 -1.84472,-3.01666 -2.89871,-4.66666 l -1.91634,-3 h 13.99509 13.9951 l 3.55944,4.66666 3.55944,4.66667 h -14.65583 c -10.31186,0 -14.94701,-0.494 -15.63819,-1.66667 z m 29.4111,-2.66666 -3.65092,-4.33334 13.10416,-0.38449 c 7.20728,-0.21147 13.82219,-0.10895 14.6998,0.22782 0.8776,0.33676 2.91117,2.45978 4.51903,4.71782 l 2.92339,4.10552 h -13.97227 -13.97227 z m 30.66698,0 -3.65061,-4.33334 13.79367,-0.38286 13.79366,-0.38287 4.71619,4.7162 4.7162,4.7162 h -14.85925 -14.85925 z m -545.75664,-8.05551 c 4.81498,-4.26474 4.86885,-4.27653 17.61036,-3.85432 l 12.7806,0.4235 -4.45305,3.90983 c -4.2937,3.76992 -4.92388,3.90784 -17.61036,3.85433 l -13.15731,-0.0555 z m 28.9297,-0.0297 c 4.25403,-4.38904 4.37132,-4.41972 17.59489,-4.6025 7.32177,-0.10119 13.31231,0.2043 13.31231,0.67888 0,0.47458 -1.61226,2.5457 -3.58279,4.60249 -3.48041,3.63277 -3.98319,3.73963 -17.59489,3.73963 h -14.0121 z m 30.51702,-0.24813 3.72351,-4.66662 13.73452,-4e-5 13.73452,-4e-5 -3.55944,4.66666 -3.55944,4.66667 h -13.89859 -13.89859 z m 28.43454,2.3333 c 0.0244,-0.55 1.18789,-2.3714 2.58555,-4.04754 2.38548,-2.8608 3.37083,-3.0242 16.08053,-2.66667 l 13.53934,0.38087 -2.88833,3.66667 c -2.80416,3.5598 -3.2741,3.66667 -16.12489,3.66667 -7.28011,0 -13.2166,-0.45 -13.1922,-1 z m 31.95563,-3 c 2.83825,-3.98595 2.89489,-4 16.12504,-4 h 13.27678 l -2.06848,4 -2.06848,4 H 427.0823 413.02575 Z m 28,3.28642 c 0,-0.39247 0.96901,-2.19247 2.15335,-4 2.04832,-3.12614 2.79616,-3.28642 15.33333,-3.28642 7.24899,0 13.17999,0.27176 13.17999,0.60393 0,0.33216 -0.69631,2.13216 -1.54736,4 -1.5129,3.32046 -1.85426,3.39607 -15.33333,3.39607 -7.58229,0 -13.78598,-0.32111 -13.78598,-0.71358 z m 30.66667,0.13371 c 0,-0.31893 0.58515,-2.11893 1.30033,-4 1.27784,-3.36098 1.53421,-3.42013 14.82217,-3.42013 13.37198,0 13.51294,0.0332 12.71788,3 -0.44219,1.65 -0.81216,3.45 -0.82218,4 -0.0188,1.0331 -28.0182,1.45295 -28.0182,0.42013 z m 30.86645,-3.42013 1.39441,-4 h 13.2029 c 13.7271,0 14.51114,0.37267 12.39358,5.89095 -0.66579,1.73503 -3.25445,2.10905 -14.5973,2.10905 h -13.78799 z m 29.6265,1 c 0.44218,-1.65 0.81216,-3.45 0.82217,-4 0.01,-0.55 6.01821,-1 13.35154,-1 h 13.33333 v 4 4 h -14.15551 c -14.02911,0 -14.14832,-0.0268 -13.35153,-3 z m 30.17371,-1 v -4 h 13.94632 13.94632 l -0.27965,3.99735 -0.27966,3.99735 -13.66667,0.003 -13.66666,0.003 z m 29.33333,0 v -4 h 14 14 v 4 4 h -14 -14 z m 30.16666,-0.16667 c -0.45833,-2.29167 -0.83333,-6.19167 -0.83333,-8.66667 v -4.5 H 636.398 c 12.56829,0 14.14266,0.60585 14.14266,5.44239 0,0.67335 -5.7,1.22428 -12.66667,1.22428 -7.55556,0 -12.66667,0.53801 -12.66667,1.33333 0,0.8 5.33334,1.33334 13.33334,1.33334 10.62121,0 13.33333,0.38463 13.33333,1.89095 0,1.04002 0.36419,2.84002 0.80932,4 0.70627,1.84051 -0.97019,2.10905 -13.16667,2.10905 h -13.97598 z m 30.50764,2.32001 c -2.31565,-7.87423 -2.90988,-7.48668 11.47911,-7.48668 12.83162,0 13.28369,0.10228 14.75842,3.33897 0.83674,1.83643 1.27387,3.56006 0.97142,3.83028 -0.30246,0.27021 -6.44984,0.78668 -13.66084,1.1477 -9.00905,0.45104 -13.2477,0.19128 -13.54811,-0.83027 z m 28.85882,-3.48668 -1.39441,-4 h 13.22973 13.22974 l 2.06848,4 2.06848,4 h -13.90381 -13.9038 z m 29.54167,0 -1.50983,-4 h 13.14191 c 12.06899,0 13.31136,0.24193 15.21751,2.96334 1.14159,1.62984 2.07561,3.42984 2.07561,4 0,0.57017 -6.16846,1.03666 -13.70768,1.03666 h -13.70769 z m 29.80396,0 -2.36286,-4 h 13.78791 13.7879 l 2.36286,4 2.36286,4 h -13.78791 -13.7879 z m 29.7879,0 -2.84825,-4 h 13.54374 c 12.41492,0 13.75232,0.25004 16.04643,3 1.37648,1.65 2.52266,3.45 2.54706,4 0.0244,0.55 -5.91479,1 -13.19819,1 -13.1921,0 -13.25338,-0.0152 -16.09079,-4 z m 29.54416,0 -2.95732,-4 13.70658,0.0738 c 13.54445,0.0729 13.74327,0.12021 16.80799,4 l 3.10141,3.92622 h -13.85066 c -13.84356,0 -13.85219,-0.002 -16.808,-4 z m 29.78917,0 -3.83224,-4 h 14 c 13.81506,0 14.05062,0.0528 17.83224,4 l 3.83224,4 h -14 c -13.81505,0 -14.05062,-0.0528 -17.83224,-4 z m 29.33333,0 -3.83224,-4 h 13.07344 c 12.62476,0 13.22978,0.13728 17.62918,4 l 4.55575,4 h -13.79694 c -13.58944,0 -13.85458,-0.0602 -17.62919,-4 z m -554.92561,-7.37546 c 3.42363,-3.01197 4.82909,-3.2912 16.56575,-3.2912 h 12.82474 l -3.13151,3.33333 c -2.94466,3.13445 -3.93305,3.33082 -16.56575,3.2912 l -13.43424,-0.0421 z m 27.59232,0.0421 c 2.93014,-3.11899 3.97791,-3.33333 16.29466,-3.33333 h 13.16316 l -2.39558,3.29143 c -2.27848,3.13055 -3.07497,3.29348 -16.29466,3.33333 l -13.89909,0.0419 z m 29.33333,0 c 2.93538,-3.12457 3.96657,-3.33333 16.46483,-3.33333 h 13.33334 l -3.13151,3.33333 c -2.93537,3.12457 -3.96657,3.33333 -16.46483,3.33333 H 360.7425 Z m 28.75826,0.0473 c 2.12678,-3.24587 2.74709,-3.38066 15.55771,-3.38066 h 13.34262 l -1.98826,3 c -1.81322,2.73591 -3.18277,3.03351 -15.55771,3.38066 l -13.56945,0.38066 z m 28.90446,0.286 c 1.79853,-2.71409 3.21177,-3.03636 14.8293,-3.38161 7.06272,-0.20989 12.84131,-0.0204 12.84131,0.42099 0,0.44143 -0.62111,1.96316 -1.38025,3.38161 -1.22456,2.28812 -2.89722,2.57901 -14.82929,2.57901 h -13.44905 z m 27.71301,2 c 0.0233,-0.55 0.90317,-2.13711 1.95521,-3.52691 1.57081,-2.07513 4.1855,-2.64217 14.62426,-3.17149 6.9913,-0.35452 12.71146,-0.29563 12.71146,0.13085 0,0.42647 -0.69631,2.30364 -1.54736,4.17148 -1.50552,3.30427 -1.90199,3.39607 -14.66666,3.39607 -7.21562,0 -13.10023,-0.45 -13.07691,-1 z m 29.29093,0.39607 c 0,-0.33216 0.69631,-2.13216 1.54735,-4 1.50471,-3.30248 1.90696,-3.39607 14.59731,-3.39607 h 13.04995 l -1.39441,4 -1.39441,4 h -13.20289 c -7.2616,0 -13.2029,-0.27176 -13.2029,-0.60393 z m 29.84355,-2.46211 c 0.43268,-1.61367 0.79489,-3.38396 0.80491,-3.93396 0.01,-0.55 6.08239,-1 13.49419,-1 11.74054,0 13.37176,0.27161 12.66666,2.10905 -0.44512,1.15998 -0.8129,2.80998 -0.81729,3.66667 -0.005,1.06682 -4.25027,1.64184 -13.47157,1.82491 -13.27801,0.26361 -13.45275,0.22685 -12.6769,-2.66667 z m 41.73684,2.071 c -12.63488,-0.42186 -13.0718,-0.53872 -12.66667,-3.38761 0.3959,-2.78401 1.15392,-2.97224 13.41961,-3.3323 l 12.99999,-0.38161 v 4.04828 c 0,2.22656 -0.15,3.92271 -0.33333,3.76923 -0.18333,-0.15348 -6.22215,-0.47567 -13.4196,-0.71599 z m 16.18113,-3.33829 0.54114,-3.66667 h 13.182 c 13.07905,0 13.182,0.0254 13.182,3.24755 0,3.20368 -0.1854,3.25321 -13.72314,3.66667 l -13.72314,0.41912 z m 28.23556,0 0.003,-3.66667 h 13.33333 c 13.2363,0 13.33333,0.0236 13.33333,3.24479 0,3.19309 -0.21243,3.2515 -13.33623,3.66666 l -13.33624,0.42189 z m 58.14556,0.89095 c -1.60772,-4.18964 -0.6091,-4.55762 12.36857,-4.55762 12.99762,0 13.18662,0.0456 13.81511,3.33334 l 0.63721,3.33333 h -13.00579 c -10.62959,0 -13.15365,-0.38533 -13.8151,-2.10905 z m 28.57092,-0.46996 c -0.75913,-1.41846 -1.38024,-2.91846 -1.38024,-3.33333 0,-0.41488 5.90369,-0.75433 13.11931,-0.75433 12.70004,0 13.16785,0.10653 14.63808,3.33334 l 1.51877,3.33333 h -13.25784 c -11.74302,0 -13.41554,-0.29467 -14.63808,-2.57901 z m 28.16711,-0.81706 c -0.85105,-1.86784 -1.54736,-3.66784 -1.54736,-4 0,-0.33216 5.66598,-0.60393 12.59107,-0.60393 11.49975,0 12.77095,0.25684 14.66666,2.96334 1.14158,1.62984 2.07561,3.42984 2.07561,4 0,0.57016 -5.90369,1.03666 -13.11932,1.03666 -12.76467,0 -13.16114,-0.0918 -14.66666,-3.39607 z m 28.66474,-0.60393 -2.36286,-4 h 12.86166 c 11.70758,0 13.08622,0.26919 15.36435,3 1.37649,1.65 2.52266,3.45 2.54706,4 0.0244,0.55 -5.82628,1 -13.0015,1 h -13.04585 z m 28.45457,0 -2.84825,-4 h 13.33333 c 13.29298,0 13.34195,0.0121 16.18158,4 l 2.84825,4 h -13.33333 c -13.29298,0 -13.34195,-0.0121 -16.18158,-4 z m 29.56575,0.91407 c -1.5945,-1.69727 -2.89909,-3.49727 -2.89909,-4 0,-0.50274 5.58775,-0.91407 12.41721,-0.91407 12.05641,0 12.52857,0.11623 16.24946,4 l 3.83224,4 h -13.35037 c -12.23102,0 -13.59344,-0.25874 -16.24945,-3.08593 z m 27.9995,-1.0075 -3.10141,-3.90657 h 12.53566 c 11.64741,0 12.75755,0.23619 15.66716,3.33333 1.72233,1.83334 3.7315,3.33334 4.46484,3.33334 0.73333,0 -0.0758,-1.5 -1.79818,-3.33334 l -3.1315,-3.33333 12.56575,0.0542 c 11.93545,0.0515 12.7954,0.25052 17.1441,3.96831 l 4.57835,3.91413 -27.91168,-0.0617 -27.91168,-0.0618 z m -507.30443,-6.84467 c 3.42165,-3.57143 4.105,-3.7278 16.29169,-3.7278 h 12.72024 l -3.30303,3.20755 c -2.93251,2.84774 -4.76003,3.26591 -16.29169,3.7278 l -12.98867,0.52024 z m 27.73921,-0.35313 c 3.60859,-2.95793 5.22959,-3.28346 16.56575,-3.32671 l 12.56575,-0.048 -3.13151,3.33334 c -2.9394,3.12885 -3.95562,3.33292 -16.56575,3.32671 l -13.43424,-0.007 z m 27.44727,-0.0947 c 3.20562,-3.20561 4.04317,-3.366 15.66646,-3 l 12.27979,0.38667 -2.1057,3 c -1.94879,2.77644 -3.11625,3 -15.66646,3 h -13.56076 z m 26.55272,2.25999 c 0,-0.61968 1.09725,-2.11968 2.43832,-3.33334 1.89673,-1.71651 5.1613,-2.20665 14.69741,-2.20665 h 12.25908 l -2.18409,3.33334 c -2.07288,3.16362 -2.82117,3.33333 -14.6974,3.33333 -6.88232,0 -12.51332,-0.50701 -12.51332,-1.12668 z m 28.04241,0.12668 c 0.0233,-0.55 0.83946,-2.05 1.81365,-3.33333 1.45964,-1.92283 3.91521,-2.33334 13.9576,-2.33334 6.70248,0 12.18634,0.33945 12.18634,0.75433 0,0.41487 -0.62111,1.91487 -1.38025,3.33333 -1.21535,2.27092 -2.88782,2.57901 -14,2.57901 -6.94086,0 -12.60067,-0.45 -12.57734,-1 z m 27.99999,0 c 0.0233,-0.55 0.83947,-2.05 1.81366,-3.33333 1.45963,-1.92283 3.91521,-2.33334 13.95759,-2.33334 6.70249,0 12.18635,0.33945 12.18635,0.75433 0,0.41487 -0.62111,1.91487 -1.38025,3.33333 -1.21536,2.27092 -2.88782,2.57901 -14,2.57901 -6.94086,0 -12.60067,-0.45 -12.57735,-1 z m 27.9576,-0.0785 c 0,-0.59317 0.75977,-2.11755 1.68838,-3.38749 1.42708,-1.95166 3.56632,-2.24903 13.82281,-1.92151 11.95999,0.38192 12.11844,0.43062 11.02125,3.38749 -1.04767,2.82344 -1.86117,3 -13.82281,3 -6.9903,0 -12.70963,-0.48532 -12.70963,-1.07849 z m 28.50473,-0.98032 c 0.45573,-1.18761 0.8286,-2.71022 0.8286,-3.38357 0,-0.67336 5.55,-1.34767 12.33333,-1.49847 l 12.33333,-0.27418 -11.78871,-0.44617 c -9.96282,-0.37707 -11.66656,-0.76452 -11,-2.50154 0.43379,-1.13045 0.78871,-2.60629 0.78871,-3.27964 0,-0.67336 5.61409,-1.22428 12.47575,-1.22428 h 12.47574 l -1.57368,6.99999 -1.57367,7 -13.064,0.38357 c -11.58513,0.34015 -12.9702,0.13914 -12.2354,-1.77571 z m 28.00099,-0.27452 c 0.37698,-1.28334 1.08419,-4.58334 1.57157,-7.33334 l 0.88615,-4.99999 10.85161,-0.26833 10.85161,-0.26833 -10.41852,-0.45596 c -9.86878,-0.4319 -10.39643,-0.61121 -10,-3.39834 0.39074,-2.74711 1.20351,-2.9681 12.24692,-3.32998 l 11.8284,-0.3876 -0.96594,10.3876 c -0.53127,5.71318 -1.23946,10.8376 -1.57376,11.3876 -0.3343,0.55 -6.31284,1 -13.28564,1 -11.44635,0 -12.61125,-0.22665 -11.9924,-2.33333 z m 27.97192,-1.33334 c 0.37924,-2.01666 1.07009,-7.11666 1.53522,-11.33333 l 0.84568,-7.66666 h 11.90406 11.90406 v 11.33333 11.33333 h -13.43928 -13.43927 z m 27.52235,-7.66666 v -11.33333 h 11.90406 11.90405 l 0.812,7.66666 c 0.4466,4.21667 1.07478,9.31667 1.39594,11.33333 l 0.58395,3.66667 h -13.3 -13.3 z m 27.13346,0.33333 -1.13346,-11 11.22057,-0.38846 c 7.59055,-0.26279 11.53671,0.12306 12.19776,1.19267 0.53746,0.86962 1.68035,5.15519 2.53976,9.52349 0.85941,4.3683 1.88461,8.7816 2.27822,9.80733 0.58373,1.52117 -1.74399,1.86497 -12.62687,1.86497 h -13.34252 z m 27.19921,0.76848 c -1.28369,-5.73933 -2.33369,-10.9085 -2.33333,-11.48705 3.6e-4,-0.57856 5.19768,-0.87856 11.54959,-0.66667 l 11.54894,0.38524 3.5792,10.66667 3.57919,10.66666 -12.7948,0.43515 -12.7948,0.43514 z m 29.14331,6.78914 c -1.60318,-4.17782 -0.62695,-4.55762 11.71469,-4.55762 12.56829,0 14.14266,0.60585 14.14266,5.44238 0,0.67336 -5.63581,1.22429 -12.52402,1.22429 -10.19027,0 -12.67482,-0.39301 -13.33333,-2.10905 z m 27.43328,-1.22429 -1.51876,-3.33333 h 12.59116 c 11.08392,0 12.7564,0.30873 13.97142,2.57901 0.75913,1.41846 1.38024,2.91846 1.38024,3.33334 0,0.41487 -5.60369,0.75432 -12.45264,0.75432 -11.98893,0 -12.50921,-0.12413 -13.97142,-3.33334 z m 28.07813,0.68476 c -0.90974,-1.45671 -1.65407,-2.95671 -1.65407,-3.33333 0,-0.37662 5.48386,-0.68476 12.18635,-0.68476 10.04238,0 12.49796,0.41051 13.95759,2.33333 0.97419,1.28334 1.79033,2.78334 1.81366,3.33334 0.0233,0.55 -5.51327,1 -12.30354,1 -10.87381,0 -12.54316,-0.31582 -13.99999,-2.64858 z m 27.13521,-0.68476 -2.18409,-3.33333 h 12.49076 c 10.40751,0 12.85878,0.40667 14.6974,2.43832 1.21366,1.34108 2.20665,2.84108 2.20665,3.33334 0,0.49225 -5.63099,0.89501 -12.51332,0.89501 -11.87623,0 -12.62452,-0.16971 -14.6974,-3.33334 z m 27.92289,0.33334 -2.1057,-3 12.20066,-0.38563 c 9.9673,-0.31503 12.65758,0.0279 14.69677,1.87332 1.37285,1.24242 2.4961,2.76595 2.4961,3.38562 0,0.61968 -5.66598,1.12669 -12.59106,1.12669 -11.5446,0 -12.76607,-0.24934 -14.69677,-3 z m 27.28783,-0.33334 -3.13151,-3.33333 h 12.66667 c 11.78715,0 12.8841,0.23145 15.79817,3.33333 l 3.1315,3.33334 h -12.66666 c -11.78716,0 -12.88411,-0.23145 -15.79817,-3.33334 z m 28,0 -3.13151,-3.33333 11.89909,0.007 c 10.6609,0.006 12.31531,0.3478 15.89908,3.28539 l 4,3.27876 -12.76758,0.048 c -11.92557,0.0448 -12.9741,-0.17188 -15.89908,-3.28539 z m -513.41271,-10.06052 7.25393,-6.60614 h 11.36262 11.36261 l -6.56642,6.66667 -6.56642,6.66666 -12.05012,-0.0605 -12.05013,-0.0605 z m 26.07941,0.0605 6.56642,-6.66667 h 11.92344 c 11.83898,0 11.90634,0.0189 9.51013,2.66667 -2.03434,2.24792 -4.31752,2.70928 -14.53998,2.93806 l -12.12668,0.27139 11.17904,0.45209 11.17904,0.45209 -3.07813,3.27651 c -2.82875,3.01107 -4.05442,3.27652 -15.12891,3.27652 h -12.0508 z m 23.36315,3.30158 c 2.85618,-3.04026 4.05421,-3.30158 15.13593,-3.30158 9.35997,0 11.67869,0.35555 10.43425,1.6 -3.03289,3.03288 -1.59398,4.19251 1.54412,1.24441 2.82716,-2.65598 4.30883,-2.91464 14.69712,-2.56575 l 11.55298,0.388 -2.08381,2.96826 c -2.03383,2.89704 -2.71112,2.96825 -28.23305,2.96825 h -26.14922 z m 52.01258,2.36508 c 0.0233,-0.55 0.83947,-2.05 1.81365,-3.33333 1.4591,-1.92213 3.91385,-2.33333 13.92901,-2.33333 h 12.15776 l -1.51877,3.33333 c -1.46221,3.2092 -1.98248,3.33333 -13.97141,3.33333 -6.84896,0 -12.43356,-0.45 -12.41024,-1 z m 28.2002,-2.33333 c 1.46185,-3.20841 1.98439,-3.33333 13.94283,-3.33333 h 12.42406 l -1.51877,3.33333 c -1.46185,3.20841 -1.98439,3.33333 -13.94283,3.33333 h -12.42406 z m 26.92805,1.27647 c 0.45613,-1.18868 0.82934,-2.71217 0.82934,-3.38552 0,-0.67336 5.68066,-1.22428 12.6237,-1.22428 12.53019,0 12.6155,0.0222 11.51727,2.99999 -1.02293,2.7736 -2.03822,3.0291 -13.45305,3.38553 -10.92861,0.34124 -12.25136,0.1373 -11.51726,-1.77572 z m 186.95466,-5.51399 c -1.16893,-3.43063 -2.12533,-6.43063 -2.12533,-6.66667 0,-0.23603 5.3358,-0.42914 11.85734,-0.42914 9.60894,0 12.01164,0.40206 12.671,2.12032 0.4475,1.16618 0.47628,2.66618 0.064,3.33333 -0.41233,0.66716 -0.21058,1.21301 0.44832,1.21301 0.6589,0 1.88145,1.5 2.71677,3.33334 l 1.51877,3.33333 H 688.6374 676.12466 Z m 28.01732,4.12847 c -1.59751,-4.16305 -0.64722,-4.55762 10.97666,-4.55762 11.27782,0 11.85146,0.14372 13.30475,3.33334 l 1.51876,3.33333 h -12.49543 c -10.16421,0 -12.64642,-0.39348 -13.30474,-2.10905 z m 26.64662,-1.22428 -2.18408,-3.33334 h 12.21708 c 10.07166,0 12.52812,0.40975 13.98833,2.33334 0.97419,1.28333 1.79033,2.78333 1.81365,3.33333 0.0233,0.55 -5.28859,1 -11.80424,1 -11.16512,0 -11.97231,-0.19177 -14.03074,-3.33333 z m 26.66666,0 -2.18408,-3.33334 12.36407,0.0419 c 11.58713,0.0393 12.5146,0.24873 14.75965,3.33333 l 2.39558,3.29144 h -12.57557 c -11.94262,0 -12.68549,-0.16777 -14.75965,-3.33333 z m 26.66667,0 -2.18408,-3.33334 h 11.79831 c 10.86092,0 12.04713,0.26484 14.92982,3.33334 l 3.13151,3.33333 h -12.74574 c -12.12414,0 -12.85225,-0.16256 -14.92982,-3.33333 z m 27.21072,0 -3.1315,-3.33334 h 12 c 11.07604,0 12.24111,0.25666 15.1315,3.33334 l 3.1315,3.33333 h -12 c -11.07604,0 -12.24111,-0.25666 -15.1315,-3.33333 z m 26.66667,0 -3.13151,-3.33334 h 11.4914 c 10.319,0 11.87308,0.33578 15.23242,3.2912 l 3.74102,3.2912 -12.10092,0.0421 c -11.21102,0.039 -12.3312,-0.20299 -15.23241,-3.29119 z m -449.99997,-6 c 2.06712,-2.28415 4.10662,-2.66667 14.21794,-2.66667 11.47088,0 11.75757,0.0754 10.13929,2.66667 -1.47378,2.3599 -3.10937,2.66666 -14.21795,2.66666 -12.46813,0 -12.53635,-0.0179 -10.13928,-2.66666 z m 26.38633,-0.004 c 1.69701,-2.42282 3.4765,-2.80921 14.05349,-3.05152 11.83758,-0.27118 12.07064,-0.21734 10.34359,2.38924 -1.51852,2.29185 -3.49383,2.72076 -14.05349,3.05151 -12.21072,0.38247 -12.27463,0.36771 -10.34359,-2.38923 z m 26.6091,-0.32895 c 1.76648,-2.66658 3.26642,-3.04281 13.49596,-3.38524 6.32973,-0.21189 11.5086,-0.0224 11.5086,0.42099 0,0.44342 -0.62111,1.96678 -1.38024,3.38524 -1.20915,2.25932 -2.88212,2.57901 -13.49597,2.57901 h -12.11571 z m 25.00456,2.24568 c 0,-0.41488 0.62111,-1.91488 1.38025,-3.33333 1.20665,-2.25466 2.87995,-2.57901 13.30474,-2.57901 h 11.92451 l -1.51877,3.33333 c -1.45329,3.18961 -2.02693,3.33333 -13.30475,3.33333 -6.48229,0 -11.78598,-0.33944 -11.78598,-0.75432 z m 26.90927,-2.57901 c 1.45528,-3.19399 2.01742,-3.33333 13.4474,-3.33333 10.32956,0 11.82014,0.28272 11.11931,2.10905 -0.44512,1.15997 -0.80932,2.65997 -0.80932,3.33333 0,0.67335 -5.68713,1.22428 -12.63808,1.22428 H 489.2645 Z m 25.61474,1.22428 c 0.44513,-1.15998 0.80932,-2.65998 0.80932,-3.33333 0,-0.67336 5.4,-1.22428 12,-1.22428 6.6,0 12,0.55092 12,1.22428 0,4.80161 -1.60343,5.44238 -13.61864,5.44238 -10.39464,0 -11.89172,-0.28215 -11.19068,-2.10905 z m 182.14264,-1.89095 c -1.37802,-2.57485 -1.01398,-2.66666 10.57284,-2.66666 10.6354,0 12.1623,0.30324 13.42716,2.66666 1.37802,2.57485 1.01399,2.66667 -10.57284,2.66667 -10.63539,0 -12.16229,-0.30325 -13.42716,-2.66667 z m 26.14265,0.55762 c -0.44512,-1.15998 -0.80932,-2.35998 -0.80932,-2.66667 0,-1.40418 22.26465,-0.4263 23.73334,1.04239 3.12618,3.12618 1.45802,3.73333 -10.25735,3.73333 -9.58236,0 -12.01263,-0.40465 -12.66667,-2.10905 z m 23.25474,-3.79785 c -2.23523,-3.2488 -4.06406,-6.2488 -4.06406,-6.66667 0,-0.41787 5.07889,-0.75976 11.28642,-0.75976 9.84375,0 11.46514,0.33393 12.68457,2.61245 1.32833,2.48201 0.84802,2.6349 -9.61976,3.06194 l -11.01789,0.44948 12.17998,0.2714 c 11.37731,0.25351 12.32392,0.49106 14.36407,3.60473 l 2.18408,3.33333 h -11.96668 -11.96668 z m 27.54036,2.53167 -2.39558,-3.29144 h 11.82983 c 10.89452,0 12.07741,0.26355 14.96133,3.33334 l 3.1315,3.33333 -12.56575,-0.0419 c -11.80163,-0.0394 -12.71142,-0.24205 -14.96133,-3.33333 z m 25.72891,0.0419 -3.1315,-3.33334 h 12 c 11.07604,0 12.24111,0.25666 15.1315,3.33334 l 3.1315,3.33333 h -12 c -11.07604,0 -12.24111,-0.25666 -15.1315,-3.33333 z m 26.37161,0.0547 -3.62839,-3.19432 11.37081,-0.43021 c 10.9231,-0.41328 11.5089,-0.28584 14.87785,3.23645 l 3.50703,3.66667 -11.24946,-0.0421 c -9.93703,-0.0372 -11.67276,-0.4148 -14.87784,-3.23645 z m -425.92921,-2.05474 -10.89095,-0.66667 2.48095,-3.05303 c 2.2847,-2.81151 3.37399,-3.02246 13.76986,-2.66667 l 11.2889,0.38637 -2.8789,3.33333 c -2.73809,3.1703 -3.41156,3.30073 -13.76986,2.66667 z m -58.70135,-3.37547 c 3.32126,-2.92192 4.95559,-3.2912 14.56575,-3.2912 h 10.82474 l -3.13151,3.33333 c -2.8757,3.06105 -4.06551,3.32989 -14.56575,3.2912 l -11.43425,-0.0421 z m 24.92565,0.0421 c 2.86392,-3.04851 4.0999,-3.33333 14.46483,-3.33333 h 11.33334 l -3.13151,3.33333 c -2.86392,3.04851 -4.0999,3.33334 -14.46483,3.33334 H 364.7425 Z m 50.03788,0.12931 c 2.16775,-3.30841 2.80966,-3.46264 14.41176,-3.46264 11.96049,0 12.10343,0.038 9.51332,2.5309 -1.97963,1.90531 -5.54199,2.76122 -14.41176,3.46265 l -11.78213,0.93174 z m 25.96211,-0.79597 c 1.25461,-2.34425 2.79177,-2.66667 12.71358,-2.66667 6.20753,0 11.28642,0.48 11.28642,1.06667 0,3.08962 -3.94868,4.26666 -14.31358,4.26666 -10.7004,0 -11.06052,-0.0991 -9.68642,-2.66666 z m 25.33333,0 c 1.25268,-2.34065 2.79177,-2.66667 12.58876,-2.66667 10.50515,0 11.12058,0.15683 10.46424,2.66667 -0.63159,2.4152 -1.81869,2.66666 -12.58875,2.66666 -11.47823,0 -11.84182,-0.0926 -10.46425,-2.66666 z m 24.52402,0.55761 c 0.44512,-1.15997 0.80932,-2.35997 0.80932,-2.66666 0,-0.30669 5.34382,-0.55762 11.87517,-0.55762 11.21873,0 11.83662,0.14741 11.17782,2.66667 -0.63211,2.41721 -1.81868,2.66666 -12.68449,2.66666 -10.38291,0 -11.87883,-0.28225 -11.17782,-2.10905 z m 25.33333,0 c 0.44512,-1.15997 0.80932,-2.35997 0.80932,-2.66666 0,-0.30669 5.1,-0.55762 11.33333,-0.55762 10.44444,0 11.33333,0.20915 11.33333,2.66667 0,2.47145 -0.88889,2.66666 -12.14265,2.66666 -10.52472,0 -12.03481,-0.28102 -11.33333,-2.10905 z m 25.33333,0 c 0.44513,-1.15997 0.80932,-2.35997 0.80932,-2.66666 0,-0.30669 5.1,-0.55762 11.33333,-0.55762 10.44445,0 11.33333,0.20915 11.33333,2.66667 0,2.47145 -0.88888,2.66666 -12.14265,2.66666 -10.52472,0 -12.03481,-0.28102 -11.33333,-2.10905 z m 24.80932,-0.55761 c 0,-2.46914 0.88889,-2.66667 12,-2.66667 11.11111,0 12,0.19753 12,2.66667 0,2.46913 -0.88889,2.66666 -12,2.66666 -11.11111,0 -12,-0.19753 -12,-2.66666 z m 25.33333,0 c 0,-2.45485 0.88889,-2.66667 11.19068,-2.66667 10.75848,0 12.80932,0.76462 12.80932,4.77572 0,0.30668 -5.4,0.55761 -12,0.55761 -11.11111,0 -12,-0.19753 -12,-2.66666 z m 25.33333,0 c 0,-2.45485 0.88889,-2.66667 11.19068,-2.66667 10.75848,0 12.80932,0.76462 12.80932,4.77572 0,0.30668 -5.4,0.55761 -12,0.55761 -11.11111,0 -12,-0.19753 -12,-2.66666 z m 25.33333,0.11111 c 0,-1.40556 0.45,-2.80722 1,-3.11481 0.55,-0.30759 0.31181,-0.40014 -0.5293,-0.20567 -0.84112,0.19447 -1.80792,-1.10386 -2.14844,-2.88519 -0.61521,-3.21824 -0.54922,-3.23878 10.40397,-3.23878 h 11.0231 l 2.0444,6 2.04441,6 h -11.91907 c -10.85744,0 -11.91907,-0.22762 -11.91907,-2.55555 z m 24.26785,-1.87244 c -2.74762,-7.59842 -2.59887,-7.71538 9.27487,-7.2926 l 10.87605,0.38726 2.40261,5.66667 2.4026,5.66666 h -11.67747 -11.67747 z m 24.54359,-0.93232 c -1.17963,-2.94818 -2.14477,-5.67244 -2.14477,-6.05393 0,-0.38148 4.85707,-0.51934 10.7935,-0.30635 l 10.79351,0.38726 3.34188,5.66667 3.34188,5.66666 h -11.99061 -11.99062 z m 24.84815,-0.14978 c -1.65389,-3.07277 -2.85389,-5.70815 -2.66667,-5.85638 0.18723,-0.14823 4.99392,-0.60541 10.68154,-1.01595 9.2723,-0.6693 10.48299,-0.4814 11.71358,1.81799 1.1109,2.07573 0.91884,2.58976 -1.0078,2.69734 -1.65186,0.0922 -1.40474,0.40613 0.80756,1.02576 1.7533,0.49107 4.02384,2.15198 5.04565,3.69091 1.83653,2.76596 1.72345,2.80052 -9.85447,3.01263 l -11.71232,0.21458 z m 51.00707,1.51009 c -2.39532,-2.64679 -2.32884,-2.66666 8.92003,-2.66666 9.64001,0 11.69391,0.39843 13.74664,2.66666 2.39531,2.6468 2.32884,2.66667 -8.92004,2.66667 -9.64001,0 -11.6939,-0.39843 -13.74663,-2.66667 z m 25.33333,0 c -2.39531,-2.64679 -2.32884,-2.66666 8.92003,-2.66666 9.64002,0 11.69391,0.39843 13.74664,2.66666 2.39531,2.6468 2.32884,2.66667 -8.92004,2.66667 -9.64001,0 -11.6939,-0.39843 -13.74663,-2.66667 z m 24.48105,0.0444 -3.14772,-2.62231 11.46002,-0.0444 c 9.80067,-0.0379 11.80945,0.34175 13.87332,2.6223 2.39429,2.64567 2.32884,2.66667 -8.31231,2.66667 -8.70925,0 -11.31735,-0.49298 -13.87331,-2.62231 z m -436.36563,-2.71102 c -8.86731,-0.56027 -10.21792,-0.94161 -8.46256,-2.38935 1.42868,-1.17831 5.54687,-1.59964 13.03222,-1.33333 9.97212,0.35478 10.72328,0.56687 8.46256,2.38934 -1.91579,1.54441 -4.8845,1.84814 -13.03222,1.33334 z m -32.78205,-2 c 1.2223,-1.47279 4.47163,-2 12.32651,-2 9.33031,0 10.45872,0.25056 9.00682,2 -1.22231,1.47279 -4.47164,2 -12.32652,2 -9.3303,0 -10.45871,-0.25057 -9.00681,-2 z m 47.99999,0 c 1.2372,-1.49073 4.54572,-2 12.99319,-2 9.92289,0 11.12676,0.2489 9.67348,2 -1.2372,1.49073 -4.54571,2 -12.99319,2 -9.92289,0 -11.12676,-0.2489 -9.67348,-2 z m 24.86463,-0.0351 c 0.94811,-2.47074 23.13537,-2.91986 23.13537,-0.46832 0,1.01675 0.53437,1.07075 1.66667,0.16841 0.91666,-0.7305 6.66195,-1.74915 12.76731,-2.26367 10.9046,-0.91897 11.07483,-0.88724 9.63853,1.7965 -1.38795,2.59342 -2.64141,2.73199 -24.712,2.73199 -19.93425,0 -23.14236,-0.28021 -22.49588,-1.96491 z m 48.4687,0.96842 c 0,-3.04389 3.93848,-4.26667 13.74265,-4.26667 9.06573,0 10.42928,0.29546 9.73333,2.10905 -0.44512,1.15998 -0.80931,2.35998 -0.80931,2.66667 0,0.30669 -5.1,0.55762 -11.33334,0.55762 -6.23333,0 -11.33333,-0.48 -11.33333,-1.06667 z m 25.30496,-1.54699 c 1.27966,-2.39106 2.75051,-2.71968 12.17305,-2.71968 9.48822,0 10.66635,0.26764 10.27142,2.33334 -0.37762,1.9751 -2.2465,2.39264 -12.17305,2.71967 -11.44229,0.37697 -11.69161,0.32033 -10.27142,-2.33333 z m 24.27894,0.28032 c 0.3769,-1.97134 2.23643,-2.39284 11.98609,-2.71695 11.04248,-0.36707 11.50935,-0.26648 10.82949,2.33334 -0.64423,2.46351 -1.76228,2.71695 -11.98609,2.71695 -10.01971,0 -11.2259,-0.25989 -10.82949,-2.33334 z m 24.27344,0.22429 c 0.44513,-1.15998 0.80932,-2.35998 0.80932,-2.66667 0,-0.30669 5.04383,-0.55762 11.20851,-0.55762 10.55207,0 11.16766,0.15618 10.51116,2.66667 -0.62828,2.40252 -1.81869,2.66667 -12.01783,2.66667 -9.775,0 -11.20999,-0.28793 -10.51116,-2.10905 z m 24.80932,-0.55762 c 0,-2.45752 0.88889,-2.66667 11.33333,-2.66667 10.44445,0 11.33334,0.20915 11.33334,2.66667 0,2.45752 -0.88889,2.66667 -11.33334,2.66667 -10.44444,0 -11.33333,-0.20915 -11.33333,-2.66667 z m 24,0 c 0,-2.45752 0.88889,-2.66667 11.33333,-2.66667 10.44445,0 11.33333,0.20915 11.33333,2.66667 0,2.45752 -0.88888,2.66667 -11.33333,2.66667 -10.44444,0 -11.33333,-0.20915 -11.33333,-2.66667 z m 24.80932,0.55762 c -0.44513,-1.15998 -0.80932,-2.35998 -0.80932,-2.66667 0,-0.30669 5.03002,-0.55762 11.17782,-0.55762 10.05649,0 11.24778,0.26752 11.87517,2.66667 0.65599,2.50848 0.0409,2.66667 -10.3685,2.66667 -8.86063,0 -11.22714,-0.4203 -11.87517,-2.10905 z m 120.85535,-1.85587 c -1.61245,-2.58193 -1.2068,-2.63157 21.50437,-2.63157 21.35162,0 23.33262,0.2042 25.52937,2.63157 2.35284,2.59987 2.24775,2.63158 -8.72012,2.63158 -8.66911,0 -11.68548,-0.51127 -13.76607,-2.33333 -2.53753,-2.22222 -2.62389,-2.22222 -1.8135,0 0.76659,2.10211 -0.23624,2.33333 -10.11985,2.33333 -9.47799,0 -11.19438,-0.35807 -12.6142,-2.63158 z m 48.33532,-0.0351 c -2.39532,-2.6468 -2.32885,-2.66667 8.92003,-2.66667 9.64001,0 11.6939,0.39843 13.74663,2.66667 2.39532,2.64679 2.32885,2.66666 -8.92003,2.66666 -9.64001,0 -11.69391,-0.39843 -13.74663,-2.66666 z m 23.99999,0 c -2.39429,-2.64567 -2.32884,-2.66667 8.31231,-2.66667 8.70925,0 11.31735,0.49298 13.87331,2.62231 l 3.14772,2.6223 -11.46002,0.0444 c -9.80067,0.0379 -11.80945,-0.34175 -13.87332,-2.6223 z"
       id="path1" />
  </g>
</svg>
